<svg xmlns="http://www.w3.org/2000/svg" viewBox="0 0 592.88 132.8"><defs><style>.cls-1{fill:#ffb0ae;}.cls-2{fill:none;stroke:#fe7467;stroke-miterlimit:10;stroke-width:5px;}.cls-3{fill:#e2574c;}.cls-4{fill:#fe7467;}</style></defs><title>资源 12</title><g id="图层_2" data-name="图层 2"><g id="图层_2-2" data-name="图层 2"><rect class="cls-1" x="2.5" y="2.5" width="587.88" height="127.8" rx="22.56"/><rect class="cls-2" x="2.5" y="2.5" width="587.88" height="127.8" rx="22.56"/><path class="cls-3" d="M81.5,73.92a10.1,10.1,0,0,1-4-4.28A14.67,14.67,0,0,1,76.14,63v0a14.67,14.67,0,0,1,1.39-6.65,10.16,10.16,0,0,1,4-4.26,12,12,0,0,1,6.08-1.49,11.59,11.59,0,0,1,5.2,1.13,9.61,9.61,0,0,1,3.66,3.12,9.19,9.19,0,0,1,1.61,4.52l0,.17H93.16l-.07-.28a5.88,5.88,0,0,0-1-2.32,5.09,5.09,0,0,0-1.87-1.53,6,6,0,0,0-2.63-.55,5.68,5.68,0,0,0-3.34,1,6.44,6.44,0,0,0-2.19,2.81A11.08,11.08,0,0,0,81.28,63v0a11.34,11.34,0,0,0,.77,4.37,6.39,6.39,0,0,0,2.2,2.83,5.69,5.69,0,0,0,3.33,1,6,6,0,0,0,2.58-.53,5.08,5.08,0,0,0,1.9-1.54,6.25,6.25,0,0,0,1.08-2.44l0-.17h4.91l0,.18a9.3,9.3,0,0,1-1.62,4.53,9.49,9.49,0,0,1-3.67,3.1,11.59,11.59,0,0,1-5.2,1.13A11.87,11.87,0,0,1,81.5,73.92Z"/><path class="cls-3" d="M102.85,74.59a5.11,5.11,0,0,1-2.87-4.7v0A4.56,4.56,0,0,1,101.8,66a9.4,9.4,0,0,1,5.14-1.61l7-.43v3l-6.22.42a3.76,3.76,0,0,0-2.13.65,1.8,1.8,0,0,0-.73,1.51v0a1.8,1.8,0,0,0,.75,1.54,3.3,3.3,0,0,0,2,.56,4.35,4.35,0,0,0,1.94-.42,3.51,3.51,0,0,0,1.35-1.17,3,3,0,0,0,.49-1.65V63.07a2.38,2.38,0,0,0-.75-1.86,3.12,3.12,0,0,0-2.18-.69,3.71,3.71,0,0,0-2.16.56,2.3,2.3,0,0,0-1,1.42l0,.15h-4.46l0-.2a5.7,5.7,0,0,1,1.1-2.92,6.27,6.27,0,0,1,2.67-2,10.32,10.32,0,0,1,4.05-.72,9.87,9.87,0,0,1,4,.74,6.09,6.09,0,0,1,2.64,2.09,5.37,5.37,0,0,1,.94,3.14V75h-4.86V72.36h-.1a6.11,6.11,0,0,1-1.3,1.56,5.75,5.75,0,0,1-1.79,1,6.63,6.63,0,0,1-2.17.34A6.85,6.85,0,0,1,102.85,74.59Z"/><path class="cls-3" d="M119.45,51h4.86V75h-4.86Z"/><path class="cls-3" d="M127.71,51h4.85V75h-4.85Z"/><path class="cls-3" d="M145.28,74.12c-1-.83-1.43-2.2-1.43-4.11V60.82h-2.48V57.16h2.48V52.8h4.91v4.36H152v3.66h-3.26v8.66a2.25,2.25,0,0,0,.55,1.74,2.49,2.49,0,0,0,1.66.49,5,5,0,0,0,.58,0,3.35,3.35,0,0,0,.47-.06v3.56c-.27,0-.6.09-1,.13s-.85.06-1.36.06A6.55,6.55,0,0,1,145.28,74.12Z"/><path class="cls-3" d="M154.81,51h4.86v9.25h.1a5.41,5.41,0,0,1,2.09-2.55,6.12,6.12,0,0,1,3.39-.89,6.28,6.28,0,0,1,3.34.85,5.74,5.74,0,0,1,2.16,2.43,8.51,8.51,0,0,1,.75,3.72V75h-4.87V64.8a4.48,4.48,0,0,0-.88-2.92,3.15,3.15,0,0,0-2.55-1.06,3.37,3.37,0,0,0-1.86.51,3.57,3.57,0,0,0-1.23,1.4,4.61,4.61,0,0,0-.44,2.05V75h-4.86Z"/><path class="cls-3" d="M178,74.24a7.5,7.5,0,0,1-3-3.2A10.69,10.69,0,0,1,174,66.12v0A10.7,10.7,0,0,1,175,61.17a7.73,7.73,0,0,1,3-3.23,8.72,8.72,0,0,1,4.54-1.14,8.89,8.89,0,0,1,4.51,1.1A7.53,7.53,0,0,1,190,61a10.21,10.21,0,0,1,1,4.71v1.52H176.35V64.17h12.39l-2.31,2.88V65.17a6.29,6.29,0,0,0-.48-2.62A3.48,3.48,0,0,0,184.61,61a3.66,3.66,0,0,0-2-.54,3.53,3.53,0,0,0-3.37,2.16,6.08,6.08,0,0,0-.49,2.59v1.89a5.87,5.87,0,0,0,.49,2.52,3.62,3.62,0,0,0,1.41,1.6,4.11,4.11,0,0,0,2.18.56,4.38,4.38,0,0,0,1.73-.32,3.69,3.69,0,0,0,1.19-.79,2.69,2.69,0,0,0,.64-1l0-.1h4.46l0,.19a6.47,6.47,0,0,1-.78,2,7.43,7.43,0,0,1-1.57,1.83,7.81,7.81,0,0,1-2.42,1.33,10.14,10.14,0,0,1-3.33.5A9.32,9.32,0,0,1,178,74.24Z"/><path class="cls-3" d="M203.7,74.24a7.5,7.5,0,0,1-3-3.2,10.69,10.69,0,0,1-1.06-4.92v0a10.7,10.7,0,0,1,1.06-4.93,7.73,7.73,0,0,1,3-3.23,8.72,8.72,0,0,1,4.54-1.14,8.89,8.89,0,0,1,4.51,1.1A7.53,7.53,0,0,1,215.66,61a10.21,10.21,0,0,1,1,4.71v1.52H202V64.17H214.4l-2.31,2.88V65.17a6.29,6.29,0,0,0-.48-2.62A3.48,3.48,0,0,0,210.27,61a3.66,3.66,0,0,0-2-.54,3.53,3.53,0,0,0-3.37,2.16,6.08,6.08,0,0,0-.49,2.59v1.89a5.87,5.87,0,0,0,.49,2.52,3.62,3.62,0,0,0,1.41,1.6,4.11,4.11,0,0,0,2.18.56,4.38,4.38,0,0,0,1.73-.32,3.69,3.69,0,0,0,1.19-.79,2.69,2.69,0,0,0,.64-1l0-.1h4.46l-.05.19a6.47,6.47,0,0,1-.78,2,7.27,7.27,0,0,1-1.58,1.83,7.64,7.64,0,0,1-2.41,1.33,10.14,10.14,0,0,1-3.33.5A9.32,9.32,0,0,1,203.7,74.24Z"/><path class="cls-3" d="M219.2,57.16h4.85v3h.1A4.93,4.93,0,0,1,226,57.71a5.34,5.34,0,0,1,3.12-.91,5.53,5.53,0,0,1,2.24.43,4.47,4.47,0,0,1,1.69,1.25,4.77,4.77,0,0,1,1,2h.1a5.15,5.15,0,0,1,1.2-1.95,5.6,5.6,0,0,1,1.92-1.27,6.32,6.32,0,0,1,2.42-.45,6.09,6.09,0,0,1,3.06.75,5.22,5.22,0,0,1,2.05,2.09,6.61,6.61,0,0,1,.73,3.16V75h-4.86V64a3.41,3.41,0,0,0-.75-2.38,2.74,2.74,0,0,0-2.16-.84,3,3,0,0,0-1.61.43,2.82,2.82,0,0,0-1.07,1.17,3.73,3.73,0,0,0-.39,1.75V75H230V63.89a3.16,3.16,0,0,0-.77-2.26,2.76,2.76,0,0,0-2.11-.81,3,3,0,0,0-1.61.44,3,3,0,0,0-1.09,1.21,3.73,3.73,0,0,0-.4,1.77V75H219.2Z"/><path class="cls-3" d="M252,74.24a7.42,7.42,0,0,1-3-3.2A10.69,10.69,0,0,1,248,66.12v0A10.7,10.7,0,0,1,249,61.17a7.64,7.64,0,0,1,3-3.23,8.72,8.72,0,0,1,4.54-1.14,8.89,8.89,0,0,1,4.51,1.1A7.53,7.53,0,0,1,264,61a10.21,10.21,0,0,1,1,4.71v1.52H250.35V64.17h12.39l-2.31,2.88V65.17a6.29,6.29,0,0,0-.48-2.62A3.48,3.48,0,0,0,258.61,61a3.66,3.66,0,0,0-2-.54,3.79,3.79,0,0,0-2,.55,3.74,3.74,0,0,0-1.36,1.61,6.08,6.08,0,0,0-.49,2.59v1.89a5.87,5.87,0,0,0,.49,2.52,3.62,3.62,0,0,0,1.41,1.6,4.11,4.11,0,0,0,2.18.56,4.38,4.38,0,0,0,1.73-.32,3.69,3.69,0,0,0,1.19-.79,2.57,2.57,0,0,0,.64-1l0-.1h4.46l-.05.19a6.47,6.47,0,0,1-.78,2,7.22,7.22,0,0,1-1.57,1.83,7.7,7.7,0,0,1-2.42,1.33,10.14,10.14,0,0,1-3.33.5A9.32,9.32,0,0,1,252,74.24Z"/><path class="cls-3" d="M267.54,57.16h4.77v3.05h.1a4.56,4.56,0,0,1,1.48-2.51,4,4,0,0,1,2.67-.9,4.7,4.7,0,0,1,.76.05A3.16,3.16,0,0,1,278,57v4.29a3.07,3.07,0,0,0-.76-.2,6.33,6.33,0,0,0-1-.08,4.22,4.22,0,0,0-2.05.47,3.22,3.22,0,0,0-1.3,1.36A4.65,4.65,0,0,0,272.4,65V75h-4.86Z"/><path class="cls-3" d="M283.42,80.52a7.47,7.47,0,0,1-2.9-1.82,4.89,4.89,0,0,1-1.3-2.58l0-.15h4.75l.05.11a2.58,2.58,0,0,0,1.25,1.15,5.3,5.3,0,0,0,2.46.5,4.09,4.09,0,0,0,2.86-.9,3.08,3.08,0,0,0,1-2.38V71.71h-.1a5,5,0,0,1-1.27,1.61,5.88,5.88,0,0,1-1.88,1.06,7.12,7.12,0,0,1-2.36.37,6.92,6.92,0,0,1-3.86-1.06,6.82,6.82,0,0,1-2.5-3.06,11.78,11.78,0,0,1-.87-4.75h0a12,12,0,0,1,.89-4.88A6.6,6.6,0,0,1,286,56.8a6.37,6.37,0,0,1,2.31.41,5.53,5.53,0,0,1,1.84,1.18,6.1,6.1,0,0,1,1.28,1.82h.11V57.16h4.86V74.5A5.91,5.91,0,0,1,295.33,78a6.85,6.85,0,0,1-3,2.35,11.49,11.49,0,0,1-4.63.85A12.27,12.27,0,0,1,283.42,80.52Zm6.26-10a4.1,4.1,0,0,0,1.38-1.8,7.24,7.24,0,0,0,.49-2.76v0a7.08,7.08,0,0,0-.49-2.73,4.07,4.07,0,0,0-1.38-1.79,3.47,3.47,0,0,0-2.08-.64,3.56,3.56,0,0,0-2.09.63,3.9,3.9,0,0,0-1.38,1.78,7,7,0,0,0-.49,2.75v0a7.05,7.05,0,0,0,.49,2.76,4,4,0,0,0,1.38,1.8,3.56,3.56,0,0,0,2.09.63A3.46,3.46,0,0,0,289.68,70.56Z"/><path class="cls-3" d="M303,74.24a7.5,7.5,0,0,1-3-3.2,10.69,10.69,0,0,1-1.07-4.92v0A10.7,10.7,0,0,1,300,61.17a7.67,7.67,0,0,1,3-3.23,8.71,8.71,0,0,1,4.53-1.14A8.93,8.93,0,0,1,312,57.9,7.5,7.5,0,0,1,315,61a10.09,10.09,0,0,1,1,4.71v1.52H301.3V64.17h12.4l-2.32,2.88V65.17a6.29,6.29,0,0,0-.48-2.62A3.48,3.48,0,0,0,309.56,61a3.64,3.64,0,0,0-2-.54,3.56,3.56,0,0,0-3.37,2.16,6.23,6.23,0,0,0-.49,2.59v1.89a6,6,0,0,0,.49,2.52,3.62,3.62,0,0,0,1.41,1.6,4.13,4.13,0,0,0,2.18.56,4.34,4.34,0,0,0,1.73-.32,3.63,3.63,0,0,0,1.2-.79,2.66,2.66,0,0,0,.63-1l0-.1h4.46l0,.19a6.47,6.47,0,0,1-.78,2,7.22,7.22,0,0,1-1.57,1.83A7.75,7.75,0,0,1,311,74.87a10.16,10.16,0,0,1-3.34.5A9.28,9.28,0,0,1,303,74.24Z"/><path class="cls-3" d="M318.49,57.16h4.86v2.93h.1a5.51,5.51,0,0,1,2.06-2.41,6.09,6.09,0,0,1,3.38-.88,5.83,5.83,0,0,1,4.55,1.77,7.06,7.06,0,0,1,1.61,4.92V75h-4.86V64.5a4,4,0,0,0-.83-2.71,3,3,0,0,0-2.45-1,3.49,3.49,0,0,0-1.88.5,3.45,3.45,0,0,0-1.24,1.38,4.58,4.58,0,0,0-.44,2V75h-4.86Z"/><path class="cls-3" d="M341.59,74.24A7.73,7.73,0,0,1,338.53,71a10.82,10.82,0,0,1-1.07-5v0a10.52,10.52,0,0,1,1.08-4.93,7.66,7.66,0,0,1,3-3.2,10.23,10.23,0,0,1,8.85-.22,7.12,7.12,0,0,1,2.79,2.46,6.85,6.85,0,0,1,1.1,3.48v.11h-4.52l0-.15a3.79,3.79,0,0,0-1.1-2.13,3.3,3.3,0,0,0-2.39-.86,3.37,3.37,0,0,0-2.06.65,4.23,4.23,0,0,0-1.35,1.89,8.16,8.16,0,0,0-.47,2.92h0a8.34,8.34,0,0,0,.47,3,4.11,4.11,0,0,0,1.35,1.87,3.44,3.44,0,0,0,2.07.64,3.35,3.35,0,0,0,2.36-.83,3.76,3.76,0,0,0,1.12-2.17l0-.15h4.53v.1a7,7,0,0,1-3.92,5.95,8.91,8.91,0,0,1-4.15.91A9.33,9.33,0,0,1,341.59,74.24Z"/><path class="cls-3" d="M358.11,80.81c-.44,0-.81-.1-1.1-.15V77.05l.68.11a6.9,6.9,0,0,0,.95,0,3.48,3.48,0,0,0,1.73-.36,2.24,2.24,0,0,0,.95-1.27l.2-.58-6.29-17.84h5.34l4,14.91-.65-1h.92l-.65,1,4-14.91h5.14l-6.12,18.16a9.76,9.76,0,0,1-1.76,3.32A5.81,5.81,0,0,1,363,80.37a10.6,10.6,0,0,1-3.46.51C359,80.88,358.55,80.85,358.11,80.81Z"/><path class="cls-3" d="M381.81,57.16h4.86v2.93h.1a5.51,5.51,0,0,1,2.06-2.41,6.07,6.07,0,0,1,3.38-.88,5.83,5.83,0,0,1,4.55,1.77,7.06,7.06,0,0,1,1.6,4.92V75h-4.85V64.5a4,4,0,0,0-.83-2.71,3.06,3.06,0,0,0-2.45-1,3.49,3.49,0,0,0-1.88.5,3.38,3.38,0,0,0-1.24,1.38,4.45,4.45,0,0,0-.44,2V75h-4.86Z"/><path class="cls-3" d="M404.17,74.56a5.18,5.18,0,0,1-2.09-2.3,8.22,8.22,0,0,1-.72-3.58V57.16h4.86v10.5a4.07,4.07,0,0,0,.82,2.72,3.07,3.07,0,0,0,2.46,1,3.51,3.51,0,0,0,1.89-.5,3.4,3.4,0,0,0,1.23-1.39,4.57,4.57,0,0,0,.44-2V57.16h4.86V75h-4.86V72.06h-.12a5.42,5.42,0,0,1-2.05,2.43,6.19,6.19,0,0,1-3.39.88A6.47,6.47,0,0,1,404.17,74.56Z"/><path class="cls-3" d="M421.08,57.16h4.86v3h.1a4.91,4.91,0,0,1,1.87-2.45A5.34,5.34,0,0,1,431,56.8a5.61,5.61,0,0,1,2.25.43A4.63,4.63,0,0,1,435,58.48a4.76,4.76,0,0,1,1,2h.1a5.28,5.28,0,0,1,1.2-1.95,5.6,5.6,0,0,1,1.92-1.27,6.36,6.36,0,0,1,2.42-.45,6.06,6.06,0,0,1,3.06.75,5.16,5.16,0,0,1,2.05,2.09,6.5,6.5,0,0,1,.73,3.16V75h-4.86V64a3.41,3.41,0,0,0-.75-2.38,2.74,2.74,0,0,0-2.16-.84,3,3,0,0,0-1.61.43A2.89,2.89,0,0,0,437,62.42a3.73,3.73,0,0,0-.38,1.75V75h-4.68V63.89a3.15,3.15,0,0,0-.76-2.26,2.78,2.78,0,0,0-2.12-.81,3,3,0,0,0-1.61.44,3,3,0,0,0-1.09,1.21,3.85,3.85,0,0,0-.39,1.77V75h-4.86Z"/><path class="cls-3" d="M457.72,74.46a5.77,5.77,0,0,1-2.15-2.5h-.1v3h-4.85V51h4.85v9.27h.1a5.81,5.81,0,0,1,2.18-2.54,6,6,0,0,1,3.33-.92A6.75,6.75,0,0,1,465,57.9a7.14,7.14,0,0,1,2.51,3.18,12.84,12.84,0,0,1,.88,5h0a12.89,12.89,0,0,1-.88,5,7.12,7.12,0,0,1-2.52,3.19,6.63,6.63,0,0,1-3.87,1.12A6,6,0,0,1,457.72,74.46Zm3.83-3.76a4,4,0,0,0,1.35-1.82,7.42,7.42,0,0,0,.48-2.8h0a7.41,7.41,0,0,0-.48-2.81,4.09,4.09,0,0,0-1.37-1.8,3.43,3.43,0,0,0-2.08-.64,3.48,3.48,0,0,0-2.07.64,4.31,4.31,0,0,0-1.4,1.83,6.93,6.93,0,0,0-.51,2.78h0a7.22,7.22,0,0,0,.5,2.8,4.2,4.2,0,0,0,1.4,1.82,3.73,3.73,0,0,0,4.18,0Z"/><path class="cls-3" d="M474.26,74.24a7.5,7.5,0,0,1-3-3.2,10.69,10.69,0,0,1-1.06-4.92v0a10.7,10.7,0,0,1,1.06-4.93,7.73,7.73,0,0,1,3-3.23,8.71,8.71,0,0,1,4.53-1.14,8.9,8.9,0,0,1,4.52,1.1,7.59,7.59,0,0,1,3,3.12,10.21,10.21,0,0,1,1,4.71v1.52h-14.7V64.17H485l-2.31,2.88V65.17a6.29,6.29,0,0,0-.48-2.62A3.54,3.54,0,0,0,480.83,61a3.66,3.66,0,0,0-2-.54,3.53,3.53,0,0,0-3.37,2.16,6.08,6.08,0,0,0-.49,2.59v1.89a5.87,5.87,0,0,0,.49,2.52,3.6,3.6,0,0,0,1.4,1.6,4.13,4.13,0,0,0,2.18.56,4.39,4.39,0,0,0,1.74-.32,3.69,3.69,0,0,0,1.19-.79,2.83,2.83,0,0,0,.64-1l0-.1h4.46l-.05.19a6.73,6.73,0,0,1-.78,2,7.27,7.27,0,0,1-1.58,1.83,7.64,7.64,0,0,1-2.41,1.33,10.16,10.16,0,0,1-3.34.5A9.28,9.28,0,0,1,474.26,74.24Z"/><path class="cls-3" d="M489.75,57.16h4.78v3.05h.1a4.56,4.56,0,0,1,1.48-2.51,4,4,0,0,1,2.66-.9,4.82,4.82,0,0,1,.77.05,3.32,3.32,0,0,1,.63.13v4.29a3.07,3.07,0,0,0-.76-.2,6.33,6.33,0,0,0-1-.08,4.22,4.22,0,0,0-2.05.47,3.16,3.16,0,0,0-1.3,1.36,4.65,4.65,0,0,0-.45,2.13V75h-4.86Z"/><path class="cls-3" d="M506.61,66.28a6.42,6.42,0,0,1,.21-2.12,4.18,4.18,0,0,1,1-1.68A8.12,8.12,0,0,1,509.62,61a12.2,12.2,0,0,0,1.68-1.16,3.19,3.19,0,0,0,.87-1.13,3.35,3.35,0,0,0,.25-1.35v0A2.5,2.5,0,0,0,512,56a2.74,2.74,0,0,0-1.11-1,3.71,3.71,0,0,0-1.65-.34,3.55,3.55,0,0,0-1.67.38,3.09,3.09,0,0,0-1.13,1A3.12,3.12,0,0,0,506,57.6l0,.13h-4.53l0-.15a6.89,6.89,0,0,1,1-3.5,6.68,6.68,0,0,1,2.74-2.42,9.66,9.66,0,0,1,4.33-.89,9.76,9.76,0,0,1,4.15.83,6.67,6.67,0,0,1,2.76,2.26,5.78,5.78,0,0,1,1,3.35v0a5.71,5.71,0,0,1-.9,3.22,7.79,7.79,0,0,1-2.66,2.38A12.22,12.22,0,0,0,512.19,64a3.22,3.22,0,0,0-.87,1.14,3.42,3.42,0,0,0-.25,1.37v.68h-4.43Zm.39,8.16a2.48,2.48,0,0,1-.79-1.85,2.52,2.52,0,0,1,.79-1.86,2.86,2.86,0,0,1,3.86,0,2.48,2.48,0,0,1,.79,1.86,2.44,2.44,0,0,1-.79,1.85,2.83,2.83,0,0,1-3.86,0Z"/><rect class="cls-4" x="536.99" y="65.55" width="33.51" height="2.84"/><polygon class="cls-4" points="560.71 79.05 558.7 77.04 568.77 66.97 558.42 56.61 560.43 54.6 572.79 66.97 560.71 79.05"/><path class="cls-4" d="M200.12,114.74a3.5,3.5,0,0,1-1.43-1.08,2.93,2.93,0,0,1-.6-1.64v-.11h1l0,.11a2.06,2.06,0,0,0,.48,1.12,2.57,2.57,0,0,0,1.08.74,4.4,4.4,0,0,0,1.56.26,4.15,4.15,0,0,0,1.53-.26,2.23,2.23,0,0,0,1-.75,1.84,1.84,0,0,0,.36-1.13h0a1.66,1.66,0,0,0-.57-1.32,4.4,4.4,0,0,0-1.86-.79l-1.23-.27a5.17,5.17,0,0,1-2.39-1.1,2.51,2.51,0,0,1-.76-1.92h0a2.71,2.71,0,0,1,.49-1.58,3.34,3.34,0,0,1,1.36-1.07,4.7,4.7,0,0,1,2-.39,4.53,4.53,0,0,1,1.93.4,3.41,3.41,0,0,1,1.36,1.08,3,3,0,0,1,.57,1.62v.11H205v-.1a2.15,2.15,0,0,0-.45-1.13,2.45,2.45,0,0,0-1-.74,3.55,3.55,0,0,0-1.39-.26,3.64,3.64,0,0,0-1.42.26,2.28,2.28,0,0,0-1,.71,1.76,1.76,0,0,0-.33,1.06v0a1.64,1.64,0,0,0,.56,1.27,4.35,4.35,0,0,0,1.79.77l1.23.27a5.42,5.42,0,0,1,2.47,1.1,2.58,2.58,0,0,1,.75,2h0a2.91,2.91,0,0,1-.49,1.67,3.24,3.24,0,0,1-1.4,1.1,5.4,5.4,0,0,1-2.13.39A5.46,5.46,0,0,1,200.12,114.74Z"/><path class="cls-4" d="M207.7,103.73h1v11.21h-1Z"/><path class="cls-4" d="M210.68,105.2a.68.68,0,1,1,1,0,.68.68,0,0,1-1,0Zm0,1.66h1v8.08h-1Z"/><path class="cls-4" d="M214.74,114.57a3.52,3.52,0,0,1-1.2-1.47,5.36,5.36,0,0,1-.43-2.2h0a5.2,5.2,0,0,1,.44-2.2,3.46,3.46,0,0,1,1.2-1.45,3,3,0,0,1,1.77-.52,2.88,2.88,0,0,1,1.69.5,2.91,2.91,0,0,1,1.08,1.34h0v-4.83h1v11.21h-1v-1.69h0a3,3,0,0,1-1.07,1.34,2.9,2.9,0,0,1-1.68.5A3.19,3.19,0,0,1,214.74,114.57Zm3.33-.81a2.66,2.66,0,0,0,.92-1.15,4.14,4.14,0,0,0,.33-1.71h0a4,4,0,0,0-.34-1.7,2.72,2.72,0,0,0-.91-1.15,2.32,2.32,0,0,0-1.35-.41,2.36,2.36,0,0,0-1.35.4,2.5,2.5,0,0,0-.89,1.14,4.33,4.33,0,0,0-.32,1.72h0a4.38,4.38,0,0,0,.32,1.73,2.5,2.5,0,0,0,.89,1.14,2.29,2.29,0,0,0,1.35.4A2.32,2.32,0,0,0,218.07,113.76Z"/><path class="cls-4" d="M223.49,114.58a3.4,3.4,0,0,1-1.27-1.45,5.19,5.19,0,0,1-.44-2.21h0a5.26,5.26,0,0,1,.44-2.22,3.34,3.34,0,0,1,3.15-2,3.32,3.32,0,0,1,1.86.5,3.18,3.18,0,0,1,1.22,1.41,4.83,4.83,0,0,1,.43,2.12v.4h-6.59v-.82h6.1l-.52.74v-.39a3.79,3.79,0,0,0-.33-1.67,2.36,2.36,0,0,0-.88-1,2.46,2.46,0,0,0-1.3-.35,2.41,2.41,0,0,0-1.31.36,2.38,2.38,0,0,0-.91,1,3.79,3.79,0,0,0-.33,1.65v.39a3.87,3.87,0,0,0,.33,1.68,2.47,2.47,0,0,0,.93,1.06,2.68,2.68,0,0,0,1.4.36,2.91,2.91,0,0,0,1.06-.18,2.14,2.14,0,0,0,.78-.52,2,2,0,0,0,.44-.77l0-.08h1v.08a3,3,0,0,1-.4,1,2.57,2.57,0,0,1-.71.76,3,3,0,0,1-1,.5,3.89,3.89,0,0,1-1.21.18A3.67,3.67,0,0,1,223.49,114.58Z"/><path class="cls-4" d="M234.43,114.59a2.09,2.09,0,0,1-.49-1.55v-5.31h-1.19v-.87h1.19v-2.18H235v2.18h1.6v.87H235V113a1.25,1.25,0,0,0,.29.93,1.19,1.19,0,0,0,.85.26h.25l.21,0V115l-.3,0-.37,0A2,2,0,0,1,234.43,114.59Z"/><path class="cls-4" d="M239.1,114.57a3.4,3.4,0,0,1-1.3-1.45,4.91,4.91,0,0,1-.46-2.22h0a4.91,4.91,0,0,1,.46-2.22,3.4,3.4,0,0,1,1.3-1.45,3.94,3.94,0,0,1,3.84,0,3.5,3.5,0,0,1,1.3,1.44,5,5,0,0,1,.46,2.23h0a5,5,0,0,1-.46,2.23,3.45,3.45,0,0,1-3.22,2A3.67,3.67,0,0,1,239.1,114.57Zm3.31-.79a2.57,2.57,0,0,0,.92-1.12,4.32,4.32,0,0,0,.32-1.76h0a4.26,4.26,0,0,0-.32-1.76,2.42,2.42,0,0,0-2.32-1.5,2.42,2.42,0,0,0-1.37.39,2.57,2.57,0,0,0-.92,1.12,4.2,4.2,0,0,0-.33,1.75h0a4.32,4.32,0,0,0,.33,1.76,2.57,2.57,0,0,0,.92,1.12,2.46,2.46,0,0,0,1.39.39A2.43,2.43,0,0,0,242.41,113.78Z"/><path class="cls-4" d="M250.24,114.59a2.09,2.09,0,0,1-.49-1.55v-5.31h-1.19v-.87h1.19v-2.18h1.06v2.18h1.59v.87h-1.59V113a1.25,1.25,0,0,0,.28.93,1.19,1.19,0,0,0,.85.26h.25l.21,0V115l-.3,0-.37,0A2,2,0,0,1,250.24,114.59Z"/><path class="cls-4" d="M253.9,103.73h1v4.61h0a2.55,2.55,0,0,1,1-1.18,3.22,3.22,0,0,1,3.18,0,2.77,2.77,0,0,1,1,1.13,3.86,3.86,0,0,1,.36,1.72v5h-1v-4.81a2.64,2.64,0,0,0-.6-1.85,2.1,2.1,0,0,0-1.63-.65A2.25,2.25,0,0,0,256,108a2.17,2.17,0,0,0-.82.9,2.92,2.92,0,0,0-.29,1.32v4.76h-1Z"/><path class="cls-4" d="M263.55,114.58a3.34,3.34,0,0,1-1.27-1.45,5,5,0,0,1-.45-2.21h0a5.11,5.11,0,0,1,.45-2.22,3.56,3.56,0,0,1,5-1.48,3.31,3.31,0,0,1,1.22,1.41,5,5,0,0,1,.43,2.12v.4h-6.59v-.82h6.09l-.52.74v-.39a4,4,0,0,0-.32-1.67,2.38,2.38,0,0,0-.89-1,2.43,2.43,0,0,0-3.51,1,3.79,3.79,0,0,0-.33,1.65v.39a3.87,3.87,0,0,0,.33,1.68,2.52,2.52,0,0,0,.92,1.06,2.69,2.69,0,0,0,1.41.36,3,3,0,0,0,1.06-.18,2,2,0,0,0,.77-.52,1.8,1.8,0,0,0,.44-.77l0-.08h1l0,.08a2.83,2.83,0,0,1-1.11,1.71,3.08,3.08,0,0,1-1,.5,4,4,0,0,1-1.21.18A3.64,3.64,0,0,1,263.55,114.58Z"/><path class="cls-4" d="M273.57,106.86h1v1.42h0a2.28,2.28,0,0,1,.75-1.15,2.09,2.09,0,0,1,1.29-.41,2.25,2.25,0,0,1,.38,0l.26.06v1a1.26,1.26,0,0,0-.3-.08,3.32,3.32,0,0,0-.48,0,1.73,1.73,0,0,0-1.64,1.06,2.7,2.7,0,0,0-.23,1.14v5h-1Z"/><path class="cls-4" d="M278.46,105.2a.68.68,0,0,1,0-1,.65.65,0,0,1,.47-.2.68.68,0,0,1,.49.2.68.68,0,0,1,0,1,.64.64,0,0,1-.49.2A.61.61,0,0,1,278.46,105.2Zm0,1.66h1v8.08h-1Z"/><path class="cls-4" d="M283,117.53a3,3,0,0,1-1.15-.74,2.4,2.4,0,0,1-.58-1v-.07h1l0,.07a1.69,1.69,0,0,0,.81.82,3.26,3.26,0,0,0,1.52.32,2.54,2.54,0,0,0,1.81-.61,2.14,2.14,0,0,0,.65-1.64v-1.42h0a2.77,2.77,0,0,1-.61.94,3,3,0,0,1-.94.64,3.08,3.08,0,0,1-1.19.23,3.16,3.16,0,0,1-1.79-.51,3.43,3.43,0,0,1-1.21-1.46,5.13,5.13,0,0,1-.43-2.19h0a5.11,5.11,0,0,1,.44-2.18,3.54,3.54,0,0,1,1.21-1.45,3.18,3.18,0,0,1,1.79-.51,2.88,2.88,0,0,1,1.19.24,2.81,2.81,0,0,1,.93.66,3,3,0,0,1,.61,1h0v-1.72h1v7.88a3.05,3.05,0,0,1-.42,1.62,2.86,2.86,0,0,1-1.19,1.06,4.1,4.1,0,0,1-1.85.38A4.62,4.62,0,0,1,283,117.53Zm2.87-3.82a2.67,2.67,0,0,0,.91-1.14,4.09,4.09,0,0,0,.33-1.7h0a4,4,0,0,0-.33-1.69,2.58,2.58,0,0,0-.91-1.13,2.31,2.31,0,0,0-1.34-.41,2.39,2.39,0,0,0-1.36.4,2.55,2.55,0,0,0-.9,1.13,4.06,4.06,0,0,0-.32,1.7h0a4.16,4.16,0,0,0,.32,1.72,2.61,2.61,0,0,0,.9,1.13,2.39,2.39,0,0,0,1.36.4A2.31,2.31,0,0,0,285.86,113.71Z"/><path class="cls-4" d="M290,103.73h1v4.61h0a2.59,2.59,0,0,1,1-1.18,3,3,0,0,1,1.65-.44,2.9,2.9,0,0,1,1.53.4,2.73,2.73,0,0,1,1,1.13,3.86,3.86,0,0,1,.36,1.72v5h-1v-4.81a2.64,2.64,0,0,0-.6-1.85,2.1,2.1,0,0,0-1.63-.65,2.25,2.25,0,0,0-1.22.33,2.17,2.17,0,0,0-.82.9,2.79,2.79,0,0,0-.29,1.32v4.76h-1Z"/><path class="cls-4" d="M299.21,114.59a2.09,2.09,0,0,1-.5-1.55v-5.31h-1.19v-.87h1.19v-2.18h1.06v2.18h1.59v.87h-1.59V113a1.25,1.25,0,0,0,.28.93,1.19,1.19,0,0,0,.85.26h.26l.2,0V115l-.3,0-.37,0A2,2,0,0,1,299.21,114.59Z"/><path class="cls-4" d="M307,114.59a2.09,2.09,0,0,1-.49-1.55v-5.31h-1.19v-.87h1.19v-2.18h1v2.18h1.6v.87h-1.6V113a1.25,1.25,0,0,0,.29.93,1.19,1.19,0,0,0,.85.26h.25l.21,0V115l-.3,0-.37,0A2,2,0,0,1,307,114.59Z"/><path class="cls-4" d="M311.63,114.57a3.44,3.44,0,0,1-1.29-1.45,4.91,4.91,0,0,1-.46-2.22h0a4.91,4.91,0,0,1,.46-2.22,3.44,3.44,0,0,1,1.29-1.45,3.71,3.71,0,0,1,1.92-.5,3.67,3.67,0,0,1,1.93.5,3.48,3.48,0,0,1,1.29,1.44,5,5,0,0,1,.47,2.23h0a5,5,0,0,1-.47,2.23,3.43,3.43,0,0,1-3.21,2A3.74,3.74,0,0,1,311.63,114.57Zm3.32-.79a2.57,2.57,0,0,0,.92-1.12,4.5,4.5,0,0,0,.32-1.76h0a4.43,4.43,0,0,0-.32-1.76A2.49,2.49,0,0,0,315,108a2.52,2.52,0,0,0-1.4-.39,2.42,2.42,0,0,0-1.37.39,2.51,2.51,0,0,0-.92,1.12,4.2,4.2,0,0,0-.33,1.75h0a4.32,4.32,0,0,0,.33,1.76,2.51,2.51,0,0,0,.92,1.12,2.65,2.65,0,0,0,2.77,0Z"/><path class="cls-4" d="M321.86,106.86h1v1.4h0a2.38,2.38,0,0,1,.85-1.11,2.66,2.66,0,0,1,2.51-.21,2.22,2.22,0,0,1,.79.59,2.44,2.44,0,0,1,.48.9h0a2.56,2.56,0,0,1,1.42-1.49,2.9,2.9,0,0,1,1.12-.22,2.67,2.67,0,0,1,1.38.34,2.33,2.33,0,0,1,.91.93,2.93,2.93,0,0,1,.33,1.43v5.52h-1v-5.29a2.1,2.1,0,0,0-.49-1.48,1.78,1.78,0,0,0-1.38-.54,2.07,2.07,0,0,0-1.06.28,2,2,0,0,0-.71.79,2.5,2.5,0,0,0-.26,1.15v5.09h-1v-5.38a1.88,1.88,0,0,0-.52-1.4,1.77,1.77,0,0,0-1.33-.53,1.9,1.9,0,0,0-1.06.3,2.16,2.16,0,0,0-.72.83,2.65,2.65,0,0,0-.26,1.23v5h-1Z"/><path class="cls-4" d="M335.44,114.79a2.32,2.32,0,0,1-.94-.84,2.36,2.36,0,0,1-.34-1.25h0a2,2,0,0,1,.76-1.64,3.75,3.75,0,0,1,2.14-.69l3-.19v.8l-2.91.19a2.74,2.74,0,0,0-1.46.47,1.24,1.24,0,0,0-.52,1.06h0a1.29,1.29,0,0,0,.52,1.08,2.06,2.06,0,0,0,1.32.41,2.73,2.73,0,0,0,1.29-.3,2.48,2.48,0,0,0,.91-.82,2.15,2.15,0,0,0,.33-1.17v-2.4a1.79,1.79,0,0,0-.52-1.37,2.06,2.06,0,0,0-1.47-.5,2.35,2.35,0,0,0-1.43.4,1.66,1.66,0,0,0-.69,1.08l0,.08h-1v-.09a2.55,2.55,0,0,1,.48-1.24A2.75,2.75,0,0,1,336,107a3.87,3.87,0,0,1,1.58-.3,3.6,3.6,0,0,1,1.6.33,2.42,2.42,0,0,1,1,.93,2.67,2.67,0,0,1,.37,1.43v5.53h-1v-1.48h0a2.36,2.36,0,0,1-.63.85,3.2,3.2,0,0,1-.94.57,3.32,3.32,0,0,1-2.54-.09Z"/><path class="cls-4" d="M342.42,103.73h1v11.21h-1Zm.77,7h.28l4-3.82h1.26l-3.89,3.73h-.07L343.19,112Zm1.09.21.68-.69,3.82,4.74h-1.2Z"/><path class="cls-4" d="M350.63,114.58a3.34,3.34,0,0,1-1.27-1.45,5.19,5.19,0,0,1-.44-2.21h0a5.26,5.26,0,0,1,.44-2.22,3.41,3.41,0,0,1,1.26-1.46,3.7,3.7,0,0,1,3.75,0,3.24,3.24,0,0,1,1.22,1.41,4.83,4.83,0,0,1,.43,2.12v.4h-6.59v-.82h6.1l-.53.74v-.39a3.8,3.8,0,0,0-.32-1.67,2.36,2.36,0,0,0-.88-1,2.59,2.59,0,0,0-2.62,0,2.43,2.43,0,0,0-.9,1,3.79,3.79,0,0,0-.33,1.65v.39a3.87,3.87,0,0,0,.33,1.68,2.47,2.47,0,0,0,.93,1.06,2.65,2.65,0,0,0,1.4.36,2.91,2.91,0,0,0,1.06-.18,2.14,2.14,0,0,0,.78-.52,2,2,0,0,0,.44-.77l0-.08h1v.08a3,3,0,0,1-.4,1,2.71,2.71,0,0,1-.71.76,3.13,3.13,0,0,1-1,.5,3.89,3.89,0,0,1-1.21.18A3.64,3.64,0,0,1,350.63,114.58Z"/><path class="cls-4" d="M361.64,114.79a2.32,2.32,0,0,1-.94-.84,2.36,2.36,0,0,1-.34-1.25h0a2,2,0,0,1,.76-1.64,3.75,3.75,0,0,1,2.14-.69l3-.19v.8l-2.91.19a2.74,2.74,0,0,0-1.46.47,1.27,1.27,0,0,0-.52,1.06h0a1.29,1.29,0,0,0,.52,1.08,2.06,2.06,0,0,0,1.32.41,2.73,2.73,0,0,0,1.29-.3,2.48,2.48,0,0,0,.91-.82,2.16,2.16,0,0,0,.34-1.17v-2.4a1.8,1.8,0,0,0-.53-1.37,2.06,2.06,0,0,0-1.47-.5,2.37,2.37,0,0,0-1.43.4,1.66,1.66,0,0,0-.69,1.08l0,.08h-1v-.09a2.53,2.53,0,0,1,.47-1.24,2.75,2.75,0,0,1,1.07-.84,3.89,3.89,0,0,1,1.59-.3,3.58,3.58,0,0,1,1.59.33,2.42,2.42,0,0,1,1,.93,2.67,2.67,0,0,1,.37,1.43v5.53h-1v-1.48h0a2.36,2.36,0,0,1-.63.85,3.2,3.2,0,0,1-.94.57,3.32,3.32,0,0,1-2.54-.09Z"/><path class="cls-4" d="M373.1,114.57a3.45,3.45,0,0,1-1.28-1.46,5.2,5.2,0,0,1-.45-2.22h0a5,5,0,0,1,.46-2.21,3.36,3.36,0,0,1,1.28-1.45,3.91,3.91,0,0,1,3.57-.15,3,3,0,0,1,1.13,1,2.94,2.94,0,0,1,.53,1.28v.07h-1l0-.07a2.22,2.22,0,0,0-.76-1.2,2.35,2.35,0,0,0-1.54-.49,2.43,2.43,0,0,0-1.37.4,2.67,2.67,0,0,0-.91,1.14,4.17,4.17,0,0,0-.33,1.73h0a4.24,4.24,0,0,0,.33,1.75,2.56,2.56,0,0,0,.92,1.12,2.48,2.48,0,0,0,1.38.39,2.38,2.38,0,0,0,1.5-.47,2.13,2.13,0,0,0,.78-1.22l0-.07h1l0,.06a3,3,0,0,1-1.71,2.27,3.5,3.5,0,0,1-1.58.35A3.64,3.64,0,0,1,373.1,114.57Z"/><path class="cls-4" d="M380.63,114.79a2.25,2.25,0,0,1-1.28-2.09h0a2,2,0,0,1,.75-1.64,3.81,3.81,0,0,1,2.15-.69l3-.19v.8l-2.91.19a2.74,2.74,0,0,0-1.46.47,1.24,1.24,0,0,0-.52,1.06h0a1.31,1.31,0,0,0,.51,1.08,2.09,2.09,0,0,0,1.33.41,2.73,2.73,0,0,0,1.29-.3,2.38,2.38,0,0,0,.9-.82,2.08,2.08,0,0,0,.34-1.17v-2.4a1.79,1.79,0,0,0-.52-1.37,2.06,2.06,0,0,0-1.47-.5,2.38,2.38,0,0,0-1.44.4,1.61,1.61,0,0,0-.68,1.08l0,.08h-1v-.09a2.45,2.45,0,0,1,.48-1.24,2.75,2.75,0,0,1,1.07-.84,3.87,3.87,0,0,1,1.58-.3,3.6,3.6,0,0,1,1.6.33,2.48,2.48,0,0,1,1,.93,2.77,2.77,0,0,1,.37,1.43v5.53h-1v-1.48h0a2.62,2.62,0,0,1-.63.85,3.12,3.12,0,0,1-.95.57,3,3,0,0,1-1.13.21A3.1,3.1,0,0,1,380.63,114.79Z"/><path class="cls-4" d="M387.58,103.73h1v11.21h-1Z"/><path class="cls-4" d="M390.52,103.73h1v11.21h-1Z"/><path class="cls-4" d="M393.46,114.83a.72.72,0,1,1,.51.21A.69.69,0,0,1,393.46,114.83Z"/><path class="cls-3" d="M45.84,46.17a18,18,0,1,0,18,18A18,18,0,0,0,45.84,46.17Zm0,32.64A14.63,14.63,0,1,1,60.47,64.18,14.63,14.63,0,0,1,45.84,78.81Zm0-24.74c-1.29,0-2.27.67-2.27,1.76v10c0,1.09,1,1.76,2.27,1.76s2.26-.7,2.26-1.76v-10C48.1,54.77,47.09,54.07,45.84,54.07Zm0,15.74a2.25,2.25,0,1,0,2.24,2.24A2.24,2.24,0,0,0,45.84,69.81Z"/></g></g></svg>