<svg xmlns="http://www.w3.org/2000/svg" xmlns:xlink="http://www.w3.org/1999/xlink" viewBox="0 0 759.07 132.8"><defs><style>.cls-1,.cls-5{fill:none;}.cls-2{clip-path:url(#clip-path);}.cls-3{opacity:0.36;fill:url(#未命名的渐变_19);}.cls-4{fill:#ffb0ae;}.cls-5{stroke:#fe7467;stroke-miterlimit:10;stroke-width:5px;}.cls-6{fill:#e2574c;}.cls-7{fill:#fe7467;}</style><clipPath id="clip-path" transform="translate(0.57 -238.9)"><rect class="cls-1" width="644.11" height="790.09"/></clipPath><linearGradient id="未命名的渐变_19" y1="66.4" x2="215.27" y2="66.4" gradientUnits="userSpaceOnUse"><stop offset="0" stop-color="#e2574c" stop-opacity="0.1"/><stop offset="0.55" stop-color="#e2574c" stop-opacity="0.98"/><stop offset="1" stop-color="#e2574c"/></linearGradient></defs><title>资源 10</title><g id="图层_2" data-name="图层 2"><g id="图层_2-2" data-name="图层 2"><g class="cls-2"><rect class="cls-3" y="2.5" width="215.27" height="127.8"/><rect class="cls-4" x="168.7" y="2.5" width="587.88" height="127.8" rx="22.56"/><rect class="cls-5" x="168.7" y="2.5" width="587.88" height="127.8" rx="22.56"/><path class="cls-6" d="M247.13,312.82a10,10,0,0,1-4-4.28,14.67,14.67,0,0,1-1.4-6.65v0a14.64,14.64,0,0,1,1.4-6.65,10,10,0,0,1,4-4.26,11.94,11.94,0,0,1,6.08-1.49,11.58,11.58,0,0,1,5.19,1.13,9.71,9.71,0,0,1,3.67,3.12,9.25,9.25,0,0,1,1.61,4.52l0,.17h-4.91l-.07-.28a6,6,0,0,0-1-2.32,5.09,5.09,0,0,0-1.87-1.53,6,6,0,0,0-2.63-.55,5.68,5.68,0,0,0-3.34,1,6.37,6.37,0,0,0-2.19,2.81,10.9,10.9,0,0,0-.77,4.32v0a11.16,11.16,0,0,0,.77,4.37,6.39,6.39,0,0,0,2.2,2.83,5.67,5.67,0,0,0,3.33,1,5.89,5.89,0,0,0,2.58-.54,5,5,0,0,0,1.9-1.53,6.25,6.25,0,0,0,1.08-2.44l0-.17h4.91v.18a9.21,9.21,0,0,1-1.63,4.53,9.5,9.5,0,0,1-3.67,3.1,11.58,11.58,0,0,1-5.19,1.13A11.84,11.84,0,0,1,247.13,312.82Z" transform="translate(0.57 -238.9)"/><path class="cls-6" d="M268.48,313.49a5.21,5.21,0,0,1-2.11-1.91,5.15,5.15,0,0,1-.76-2.79v0a4.56,4.56,0,0,1,1.82-3.82,9.4,9.4,0,0,1,5.14-1.61l6.95-.43v3l-6.22.42a3.76,3.76,0,0,0-2.13.65,1.8,1.8,0,0,0-.73,1.51v0a1.8,1.8,0,0,0,.74,1.54,3.32,3.32,0,0,0,2,.56,4.38,4.38,0,0,0,1.94-.42,3.41,3.41,0,0,0,1.34-1.17,2.92,2.92,0,0,0,.5-1.66V302a2.38,2.38,0,0,0-.75-1.86,3.12,3.12,0,0,0-2.18-.69,3.77,3.77,0,0,0-2.17.56,2.28,2.28,0,0,0-1,1.42l0,.15h-4.46l0-.2a5.53,5.53,0,0,1,1.1-2.92,6.29,6.29,0,0,1,2.66-2,10.41,10.41,0,0,1,4.06-.72,9.9,9.9,0,0,1,4,.74,6,6,0,0,1,2.63,2.09,5.3,5.3,0,0,1,.94,3.14V313.9H277v-2.64h-.1a6.11,6.11,0,0,1-1.3,1.56,5.53,5.53,0,0,1-1.79,1,6.41,6.41,0,0,1-2.17.35A6.82,6.82,0,0,1,268.48,313.49Z" transform="translate(0.57 -238.9)"/><path class="cls-6" d="M285.08,289.89h4.86v24h-4.86Z" transform="translate(0.57 -238.9)"/><path class="cls-6" d="M293.33,289.89h4.86v24h-4.86Z" transform="translate(0.57 -238.9)"/><path class="cls-6" d="M310.91,313a5.18,5.18,0,0,1-1.44-4.11v-9.19H307v-3.66h2.48V291.7h4.91v4.36h3.26v3.66h-3.26v8.66a2.25,2.25,0,0,0,.56,1.74,2.47,2.47,0,0,0,1.66.49,5,5,0,0,0,.58,0c.17,0,.32,0,.46-.06v3.56c-.26.05-.59.09-1,.13a13.39,13.39,0,0,1-1.35.06A6.54,6.54,0,0,1,310.91,313Z" transform="translate(0.57 -238.9)"/><path class="cls-6" d="M320.44,289.89h4.86v9.25h.1a5.41,5.41,0,0,1,2.09-2.55,6.06,6.06,0,0,1,3.38-.89,6.29,6.29,0,0,1,3.35.85,5.63,5.63,0,0,1,2.15,2.42,8.45,8.45,0,0,1,.76,3.73v11.2h-4.87V303.7a4.41,4.41,0,0,0-.89-2.92,3.13,3.13,0,0,0-2.54-1.06,3.3,3.3,0,0,0-3.09,1.91,4.61,4.61,0,0,0-.44,2.05V313.9h-4.86Z" transform="translate(0.57 -238.9)"/><path class="cls-6" d="M343.67,313.14a7.56,7.56,0,0,1-3-3.2,10.7,10.7,0,0,1-1.06-4.93h0a10.77,10.77,0,0,1,1.06-4.94,7.76,7.76,0,0,1,3-3.22,8.71,8.71,0,0,1,4.53-1.14,8.83,8.83,0,0,1,4.52,1.1,7.59,7.59,0,0,1,2.95,3.12,10.19,10.19,0,0,1,1,4.71v1.52H342v-3.08h12.4L352.06,306v-1.88a6.13,6.13,0,0,0-.49-2.62,3.46,3.46,0,0,0-1.33-1.59,3.69,3.69,0,0,0-2-.54,3.74,3.74,0,0,0-2,.55,3.62,3.62,0,0,0-1.36,1.61,6.08,6.08,0,0,0-.49,2.59V306a5.87,5.87,0,0,0,.49,2.52,3.59,3.59,0,0,0,1.4,1.6,4.13,4.13,0,0,0,2.18.56,4.31,4.31,0,0,0,1.73-.32,3.5,3.5,0,0,0,1.2-.8,2.55,2.55,0,0,0,.63-1l0-.1h4.46l0,.19a7,7,0,0,1-.78,2,7.27,7.27,0,0,1-1.58,1.83,7.84,7.84,0,0,1-2.41,1.33,10.16,10.16,0,0,1-3.34.5A9.28,9.28,0,0,1,343.67,313.14Z" transform="translate(0.57 -238.9)"/><path class="cls-6" d="M369.33,313.14a7.56,7.56,0,0,1-3-3.2,10.7,10.7,0,0,1-1.06-4.93h0a10.77,10.77,0,0,1,1.06-4.94,7.76,7.76,0,0,1,3-3.22,8.71,8.71,0,0,1,4.53-1.14,8.83,8.83,0,0,1,4.52,1.1,7.59,7.59,0,0,1,3,3.12,10.19,10.19,0,0,1,1,4.71v1.52h-14.7v-3.08H380L377.72,306v-1.88a6.13,6.13,0,0,0-.49-2.62,3.46,3.46,0,0,0-1.33-1.59,3.69,3.69,0,0,0-2-.54,3.74,3.74,0,0,0-2,.55,3.62,3.62,0,0,0-1.36,1.61,6.08,6.08,0,0,0-.49,2.59V306a5.87,5.87,0,0,0,.49,2.52,3.59,3.59,0,0,0,1.4,1.6,4.13,4.13,0,0,0,2.18.56,4.31,4.31,0,0,0,1.73-.32,3.5,3.5,0,0,0,1.2-.8,2.55,2.55,0,0,0,.63-1l0-.1h4.46l-.05.19a6.77,6.77,0,0,1-.79,2,7,7,0,0,1-1.57,1.83,7.84,7.84,0,0,1-2.41,1.33,10.16,10.16,0,0,1-3.34.5A9.28,9.28,0,0,1,369.33,313.14Z" transform="translate(0.57 -238.9)"/><path class="cls-6" d="M384.82,296.06h4.86v3h.1a5,5,0,0,1,1.87-2.45,5.38,5.38,0,0,1,3.12-.91,5.57,5.57,0,0,1,2.25.43,4.47,4.47,0,0,1,1.69,1.25,4.76,4.76,0,0,1,1,2h.1a5.3,5.3,0,0,1,1.21-1.95,5.42,5.42,0,0,1,1.91-1.27,6.39,6.39,0,0,1,2.42-.45,6.2,6.2,0,0,1,3.07.74,5.29,5.29,0,0,1,2,2.1,6.5,6.5,0,0,1,.73,3.16v12.2h-4.85v-11a3.4,3.4,0,0,0-.75-2.37,2.75,2.75,0,0,0-2.17-.84,2.92,2.92,0,0,0-2.68,1.6,3.86,3.86,0,0,0-.38,1.75V313.9h-4.67V302.78a3.15,3.15,0,0,0-.77-2.25,2.76,2.76,0,0,0-2.11-.81,3,3,0,0,0-1.62.44,3.11,3.11,0,0,0-1.09,1.21,3.83,3.83,0,0,0-.39,1.76V313.9h-4.86Z" transform="translate(0.57 -238.9)"/><path class="cls-6" d="M417.67,313.14a7.56,7.56,0,0,1-3-3.2,10.7,10.7,0,0,1-1.06-4.93h0a10.77,10.77,0,0,1,1.06-4.94,7.76,7.76,0,0,1,3-3.22,8.71,8.71,0,0,1,4.53-1.14,8.8,8.8,0,0,1,4.52,1.1,7.59,7.59,0,0,1,2.95,3.12,10.19,10.19,0,0,1,1,4.71v1.52H416v-3.08h12.4L426.06,306v-1.88a6.29,6.29,0,0,0-.48-2.62,3.54,3.54,0,0,0-1.34-1.59,3.69,3.69,0,0,0-2-.54,3.74,3.74,0,0,0-2,.55,3.62,3.62,0,0,0-1.36,1.61,6.08,6.08,0,0,0-.49,2.59V306a5.87,5.87,0,0,0,.49,2.52,3.59,3.59,0,0,0,1.4,1.6,4.13,4.13,0,0,0,2.18.56,4.31,4.31,0,0,0,1.73-.32,3.5,3.5,0,0,0,1.2-.8,2.55,2.55,0,0,0,.63-1l0-.1h4.46l0,.19a7,7,0,0,1-.78,2,7.27,7.27,0,0,1-1.58,1.83,7.84,7.84,0,0,1-2.41,1.33,10.16,10.16,0,0,1-3.34.5A9.28,9.28,0,0,1,417.67,313.14Z" transform="translate(0.57 -238.9)"/><path class="cls-6" d="M433.16,296.06h4.78v3.05h.1a4.62,4.62,0,0,1,1.48-2.52,4.07,4.07,0,0,1,2.66-.89,4.82,4.82,0,0,1,.77.05,3.32,3.32,0,0,1,.63.13v4.29a3,3,0,0,0-.76-.21,6.45,6.45,0,0,0-1-.07,4.22,4.22,0,0,0-2.05.47,3.16,3.16,0,0,0-1.3,1.36,4.65,4.65,0,0,0-.45,2.13v10h-4.86Z" transform="translate(0.57 -238.9)"/><path class="cls-6" d="M449.05,319.42a7.47,7.47,0,0,1-2.9-1.82,4.89,4.89,0,0,1-1.3-2.58l0-.15h4.74l.05.11a2.63,2.63,0,0,0,1.25,1.15,5.34,5.34,0,0,0,2.47.5,4.1,4.1,0,0,0,2.86-.9,3.08,3.08,0,0,0,1-2.38v-2.74h-.1a5.09,5.09,0,0,1-1.27,1.61,5.88,5.88,0,0,1-1.88,1.06,7.12,7.12,0,0,1-2.36.37,6.9,6.9,0,0,1-3.86-1.06,6.75,6.75,0,0,1-2.5-3.06,11.61,11.61,0,0,1-.88-4.75h0a12.15,12.15,0,0,1,.89-4.88,7,7,0,0,1,2.53-3.11,6.9,6.9,0,0,1,3.89-1.08,6.16,6.16,0,0,1,2.31.41,5.63,5.63,0,0,1,1.84,1.18,5.9,5.9,0,0,1,1.27,1.82h.12v-3.05H462V313.4a5.91,5.91,0,0,1-1.06,3.49,6.91,6.91,0,0,1-3,2.35,11.49,11.49,0,0,1-4.63.85A12.23,12.23,0,0,1,449.05,319.42Zm6.26-10a4.1,4.1,0,0,0,1.38-1.8,7.24,7.24,0,0,0,.49-2.76v0a7.17,7.17,0,0,0-.49-2.74,4,4,0,0,0-1.39-1.78,3.42,3.42,0,0,0-2.07-.64,3.52,3.52,0,0,0-2.09.63,4,4,0,0,0-1.39,1.78,7.16,7.16,0,0,0-.48,2.75v0a7.25,7.25,0,0,0,.48,2.76,4.05,4.05,0,0,0,1.39,1.8,3.77,3.77,0,0,0,4.17,0Z" transform="translate(0.57 -238.9)"/><path class="cls-6" d="M468.62,313.14a7.59,7.59,0,0,1-3-3.2,10.7,10.7,0,0,1-1.07-4.93h0a10.77,10.77,0,0,1,1.07-4.94,7.74,7.74,0,0,1,3-3.22,9.72,9.72,0,0,1,9.06,0,7.5,7.5,0,0,1,2.94,3.12,10.19,10.19,0,0,1,1,4.71v1.52H466.93v-3.08h12.39L477,306v-1.88a6.29,6.29,0,0,0-.48-2.62,3.48,3.48,0,0,0-1.34-1.59,3.64,3.64,0,0,0-2-.54,3.73,3.73,0,0,0-2,.55,3.64,3.64,0,0,0-1.37,1.61,6.08,6.08,0,0,0-.49,2.59V306a5.87,5.87,0,0,0,.49,2.52,3.67,3.67,0,0,0,1.41,1.6,4.11,4.11,0,0,0,2.18.56,4.38,4.38,0,0,0,1.73-.32,3.5,3.5,0,0,0,1.2-.8,2.55,2.55,0,0,0,.63-1l0-.1h4.46l-.05.19a6.47,6.47,0,0,1-.78,2,7.22,7.22,0,0,1-1.57,1.83,7.9,7.9,0,0,1-2.42,1.33,10.1,10.1,0,0,1-3.33.5A9.32,9.32,0,0,1,468.62,313.14Z" transform="translate(0.57 -238.9)"/><path class="cls-6" d="M484.12,296.06H489V299h.1a5.51,5.51,0,0,1,2.06-2.41,6.09,6.09,0,0,1,3.38-.88,5.83,5.83,0,0,1,4.55,1.77,7.06,7.06,0,0,1,1.6,4.92V313.9h-4.85V303.4a4,4,0,0,0-.83-2.71,3,3,0,0,0-2.45-1,3.49,3.49,0,0,0-1.88.5,3.38,3.38,0,0,0-1.24,1.38,4.45,4.45,0,0,0-.44,2V313.9h-4.86Z" transform="translate(0.57 -238.9)"/><path class="cls-6" d="M507.21,313.14a7.71,7.71,0,0,1-3-3.22,10.83,10.83,0,0,1-1.07-5h0a10.59,10.59,0,0,1,1.08-4.94,7.7,7.7,0,0,1,3.05-3.19,10.23,10.23,0,0,1,8.85-.22,7.16,7.16,0,0,1,2.78,2.46,6.86,6.86,0,0,1,1.11,3.48v.11h-4.53v-.15a3.85,3.85,0,0,0-1.1-2.13,3.31,3.31,0,0,0-2.4-.86,3.36,3.36,0,0,0-2.05.65,4.25,4.25,0,0,0-1.35,1.88,8,8,0,0,0-.47,2.92v0a8.12,8.12,0,0,0,.47,3,4.11,4.11,0,0,0,1.35,1.87,3.44,3.44,0,0,0,2.07.64,3.31,3.31,0,0,0,2.35-.83,3.71,3.71,0,0,0,1.13-2.17l0-.15H520v.1a7,7,0,0,1-3.92,5.95,9.06,9.06,0,0,1-4.15.91A9.37,9.37,0,0,1,507.21,313.14Z" transform="translate(0.57 -238.9)"/><path class="cls-6" d="M523.74,319.71c-.45,0-.81-.1-1.1-.15V316l.67.11a9.3,9.3,0,0,0,1,.05,3.51,3.51,0,0,0,1.73-.36,2.28,2.28,0,0,0,1-1.27l.2-.58-6.29-17.84h5.34l4,14.91-.65-1h.91l-.64,1,4-14.91H539l-6.13,18.16a9.85,9.85,0,0,1-1.75,3.32,5.87,5.87,0,0,1-2.54,1.73,10.64,10.64,0,0,1-3.46.51C524.64,319.78,524.18,319.75,523.74,319.71Z" transform="translate(0.57 -238.9)"/><path class="cls-6" d="M547.43,296.06h4.86V299h.1a5.59,5.59,0,0,1,2.07-2.41,6.06,6.06,0,0,1,3.37-.88,5.84,5.84,0,0,1,4.56,1.77,7.06,7.06,0,0,1,1.6,4.92V313.9h-4.86V303.4a4,4,0,0,0-.82-2.71,3,3,0,0,0-2.46-1,3.33,3.33,0,0,0-3.12,1.88,4.58,4.58,0,0,0-.44,2V313.9h-4.86Z" transform="translate(0.57 -238.9)"/><path class="cls-6" d="M569.8,313.46a5.26,5.26,0,0,1-2.1-2.3,8.37,8.37,0,0,1-.71-3.58V296.06h4.86v10.5a4,4,0,0,0,.82,2.71,3,3,0,0,0,2.45,1,3.46,3.46,0,0,0,1.89-.5,3.33,3.33,0,0,0,1.23-1.39,4.44,4.44,0,0,0,.45-2V296.06h4.85V313.9h-4.85V311h-.12a5.48,5.48,0,0,1-2.05,2.43,6.19,6.19,0,0,1-3.39.88A6.47,6.47,0,0,1,569.8,313.46Z" transform="translate(0.57 -238.9)"/><path class="cls-6" d="M586.71,296.06h4.86v3h.1a4.91,4.91,0,0,1,1.87-2.45,5.34,5.34,0,0,1,3.12-.91,5.53,5.53,0,0,1,2.24.43,4.47,4.47,0,0,1,1.69,1.25,4.77,4.77,0,0,1,1,2h.1a5.15,5.15,0,0,1,1.2-1.95,5.46,5.46,0,0,1,1.92-1.27,6.32,6.32,0,0,1,2.42-.45,6.19,6.19,0,0,1,3.06.74,5.25,5.25,0,0,1,2.05,2.1,6.61,6.61,0,0,1,.73,3.16v12.2h-4.86v-11a3.4,3.4,0,0,0-.75-2.37,2.74,2.74,0,0,0-2.16-.84,3,3,0,0,0-1.61.43,2.82,2.82,0,0,0-1.07,1.17,3.73,3.73,0,0,0-.38,1.75V313.9h-4.68V302.78a3.15,3.15,0,0,0-.77-2.25,2.76,2.76,0,0,0-2.11-.81,3,3,0,0,0-1.61.44,3,3,0,0,0-1.09,1.21,3.83,3.83,0,0,0-.39,1.76V313.9h-4.86Z" transform="translate(0.57 -238.9)"/><path class="cls-6" d="M623.35,313.36a5.77,5.77,0,0,1-2.15-2.5h-.1v3h-4.86v-24h4.86v9.27h.1a5.79,5.79,0,0,1,2.17-2.54,6,6,0,0,1,3.34-.92,6.67,6.67,0,0,1,3.87,1.1,7.12,7.12,0,0,1,2.5,3.18,12.63,12.63,0,0,1,.89,5v0a12.7,12.7,0,0,1-.89,5,7.1,7.1,0,0,1-2.51,3.19,6.67,6.67,0,0,1-3.88,1.12A6.09,6.09,0,0,1,623.35,313.36Zm3.83-3.76a4.1,4.1,0,0,0,1.35-1.82A7.42,7.42,0,0,0,629,305v0a7.19,7.19,0,0,0-.49-2.8,4,4,0,0,0-1.36-1.8,3.43,3.43,0,0,0-2.08-.64,3.48,3.48,0,0,0-2.07.64,4.23,4.23,0,0,0-1.4,1.83,6.92,6.92,0,0,0-.51,2.77v0a7.22,7.22,0,0,0,.5,2.8,4.19,4.19,0,0,0,1.4,1.82,3.73,3.73,0,0,0,4.18,0Z" transform="translate(0.57 -238.9)"/><path class="cls-6" d="M639.89,313.14a7.56,7.56,0,0,1-3-3.2A10.7,10.7,0,0,1,635.8,305h0a10.77,10.77,0,0,1,1.06-4.94,7.76,7.76,0,0,1,3-3.22,8.71,8.71,0,0,1,4.53-1.14,8.83,8.83,0,0,1,4.52,1.1,7.59,7.59,0,0,1,3,3.12,10.19,10.19,0,0,1,1,4.71v1.52h-14.7v-3.08h12.4L648.28,306v-1.88a6.13,6.13,0,0,0-.49-2.62,3.42,3.42,0,0,0-1.34-1.59,3.63,3.63,0,0,0-2-.54,3.74,3.74,0,0,0-2,.55,3.62,3.62,0,0,0-1.36,1.61,6.07,6.07,0,0,0-.5,2.59V306a5.87,5.87,0,0,0,.5,2.52,3.59,3.59,0,0,0,1.4,1.6,4.13,4.13,0,0,0,2.18.56,4.34,4.34,0,0,0,1.73-.32,3.5,3.5,0,0,0,1.2-.8,2.55,2.55,0,0,0,.63-1l0-.1h4.46l0,.19a6.77,6.77,0,0,1-.79,2,7,7,0,0,1-1.57,1.83,7.84,7.84,0,0,1-2.41,1.33,10.16,10.16,0,0,1-3.34.5A9.28,9.28,0,0,1,639.89,313.14Z" transform="translate(0.57 -238.9)"/><path class="cls-6" d="M655.38,296.06h4.78v3.05h.1a4.56,4.56,0,0,1,1.48-2.52,4.07,4.07,0,0,1,2.66-.89,4.82,4.82,0,0,1,.77.05,3.32,3.32,0,0,1,.63.13v4.29A3.13,3.13,0,0,0,665,300a6.28,6.28,0,0,0-1-.07,4.18,4.18,0,0,0-2,.47,3.16,3.16,0,0,0-1.3,1.36,4.65,4.65,0,0,0-.45,2.13v10h-4.86Z" transform="translate(0.57 -238.9)"/><path class="cls-6" d="M672.24,305.18a5.93,5.93,0,0,1,.21-2.12,4.18,4.18,0,0,1,1-1.68,7.85,7.85,0,0,1,1.84-1.44,11.33,11.33,0,0,0,1.68-1.17,3.08,3.08,0,0,0,.87-1.12,3.53,3.53,0,0,0,.25-1.35v0a2.58,2.58,0,0,0-.4-1.41,2.74,2.74,0,0,0-1.11-1,3.73,3.73,0,0,0-1.66-.34,3.53,3.53,0,0,0-1.66.38,3,3,0,0,0-1.13,1.05,3.2,3.2,0,0,0-.47,1.51v.14h-4.53l0-.15a6.86,6.86,0,0,1,1-3.5,6.68,6.68,0,0,1,2.74-2.42,9.61,9.61,0,0,1,4.32-.89,9.8,9.8,0,0,1,4.16.83,6.67,6.67,0,0,1,2.76,2.26,5.78,5.78,0,0,1,1,3.35v0a5.71,5.71,0,0,1-.9,3.22,7.88,7.88,0,0,1-2.66,2.38,12.41,12.41,0,0,0-1.72,1.19,3.12,3.12,0,0,0-.86,1.13,3.5,3.5,0,0,0-.25,1.38v.68h-4.43Zm.39,8.16a2.44,2.44,0,0,1-.79-1.85,2.48,2.48,0,0,1,.79-1.86,2.86,2.86,0,0,1,3.86,0,2.48,2.48,0,0,1,.79,1.86,2.44,2.44,0,0,1-.79,1.85,2.83,2.83,0,0,1-3.86,0Z" transform="translate(0.57 -238.9)"/><rect class="cls-6" x="703.18" y="65.55" width="33.51" height="2.84"/><polygon class="cls-6" points="726.91 79.05 724.9 77.04 734.97 66.97 724.61 56.61 726.62 54.6 738.99 66.97 726.91 79.05"/><path class="cls-7" d="M365.75,353.64a3.5,3.5,0,0,1-1.43-1.08,3,3,0,0,1-.61-1.64v-.11h1.05l0,.11a2.06,2.06,0,0,0,.48,1.12,2.57,2.57,0,0,0,1.08.74,4.4,4.4,0,0,0,1.56.26,4.23,4.23,0,0,0,1.53-.26,2.2,2.2,0,0,0,1-.75,1.78,1.78,0,0,0,.37-1.13h0a1.66,1.66,0,0,0-.57-1.32,4.4,4.4,0,0,0-1.86-.79l-1.23-.27a5.17,5.17,0,0,1-2.39-1.1,2.51,2.51,0,0,1-.76-1.92h0a2.71,2.71,0,0,1,.49-1.58,3.37,3.37,0,0,1,1.35-1.07,4.74,4.74,0,0,1,2-.39,4.41,4.41,0,0,1,1.93.4,3.41,3.41,0,0,1,1.36,1.08,3,3,0,0,1,.57,1.62v.11h-1.06v-.1a2.33,2.33,0,0,0-.45-1.13,2.45,2.45,0,0,0-1-.74,3.55,3.55,0,0,0-1.39-.26,3.72,3.72,0,0,0-1.43.26,2.31,2.31,0,0,0-1,.71,1.77,1.77,0,0,0-.34,1.06v0a1.58,1.58,0,0,0,.57,1.26,4.22,4.22,0,0,0,1.79.78l1.22.27a5.32,5.32,0,0,1,2.47,1.1,2.55,2.55,0,0,1,.76,2h0a2.84,2.84,0,0,1-.5,1.67,3.15,3.15,0,0,1-1.39,1.1,6,6,0,0,1-4.23,0Z" transform="translate(0.57 -238.9)"/><path class="cls-7" d="M373.33,342.63h1v11.21h-1Z" transform="translate(0.57 -238.9)"/><path class="cls-7" d="M376.31,344.1a.68.68,0,0,1,0-1,.65.65,0,0,1,.47-.2.68.68,0,0,1,.49.2.68.68,0,0,1,0,1,.64.64,0,0,1-.49.2A.61.61,0,0,1,376.31,344.1Zm0,1.66h1v8.08h-1Z" transform="translate(0.57 -238.9)"/><path class="cls-7" d="M380.37,353.47a3.52,3.52,0,0,1-1.2-1.47,5.2,5.2,0,0,1-.43-2.2h0a5.2,5.2,0,0,1,.43-2.2,3.53,3.53,0,0,1,1.2-1.45,3.09,3.09,0,0,1,1.78-.53,2.88,2.88,0,0,1,1.69.51,2.85,2.85,0,0,1,1.07,1.33h0v-4.82h1v11.21h-1v-1.69h0a3,3,0,0,1-1.07,1.34,2.9,2.9,0,0,1-1.68.5A3.17,3.17,0,0,1,380.37,353.47Zm3.33-.81a2.74,2.74,0,0,0,.92-1.15,4.31,4.31,0,0,0,.33-1.71h0a4.21,4.21,0,0,0-.34-1.71,2.69,2.69,0,0,0-.92-1.14,2.44,2.44,0,0,0-2.69,0,2.58,2.58,0,0,0-.9,1.14,4.3,4.3,0,0,0-.31,1.72h0a4.38,4.38,0,0,0,.31,1.73,2.58,2.58,0,0,0,.9,1.14,2.27,2.27,0,0,0,1.35.4A2.32,2.32,0,0,0,383.7,352.66Z" transform="translate(0.57 -238.9)"/><path class="cls-7" d="M389.12,353.48a3.34,3.34,0,0,1-1.27-1.45,5,5,0,0,1-.44-2.21h0a5.12,5.12,0,0,1,.44-2.22,3.41,3.41,0,0,1,1.26-1.46,3.64,3.64,0,0,1,3.75,0,3.24,3.24,0,0,1,1.22,1.41,4.83,4.83,0,0,1,.43,2.12v.4h-6.59v-.82H394l-.52.74v-.39a3.8,3.8,0,0,0-.32-1.67,2.36,2.36,0,0,0-.88-1,2.59,2.59,0,0,0-2.62,0,2.43,2.43,0,0,0-.9,1,3.79,3.79,0,0,0-.33,1.65V350a3.87,3.87,0,0,0,.33,1.68,2.39,2.39,0,0,0,.93,1.05,2.57,2.57,0,0,0,1.4.37,2.91,2.91,0,0,0,1.06-.18,2.14,2.14,0,0,0,.78-.52,2,2,0,0,0,.44-.78l0-.07h1v.08a3,3,0,0,1-.4.95,2.74,2.74,0,0,1-.72.76,3.08,3.08,0,0,1-1,.5,3.93,3.93,0,0,1-1.21.18A3.64,3.64,0,0,1,389.12,353.48Z" transform="translate(0.57 -238.9)"/><path class="cls-7" d="M400.06,353.49a2.1,2.1,0,0,1-.49-1.55v-5.32h-1.19v-.86h1.19v-2.18h1.05v2.18h1.6v.86h-1.6v5.31a1.25,1.25,0,0,0,.29.93,1.19,1.19,0,0,0,.85.26H402l.21,0v.83l-.3.05-.37,0A2,2,0,0,1,400.06,353.49Z" transform="translate(0.57 -238.9)"/><path class="cls-7" d="M404.72,353.47a3.44,3.44,0,0,1-1.29-1.45,4.94,4.94,0,0,1-.46-2.22v0a4.9,4.9,0,0,1,.46-2.21,3.44,3.44,0,0,1,1.29-1.45,3.63,3.63,0,0,1,1.92-.51,3.59,3.59,0,0,1,1.93.51,3.48,3.48,0,0,1,1.29,1.44,5,5,0,0,1,.47,2.22v0a5,5,0,0,1-.47,2.23,3.45,3.45,0,0,1-3.21,2A3.74,3.74,0,0,1,404.72,353.47Zm3.32-.79a2.57,2.57,0,0,0,.92-1.12,4.5,4.5,0,0,0,.32-1.76v0A4.41,4.41,0,0,0,409,348a2.49,2.49,0,0,0-.92-1.11,2.52,2.52,0,0,0-1.4-.39,2.42,2.42,0,0,0-1.37.39,2.51,2.51,0,0,0-.92,1.12,4.19,4.19,0,0,0-.33,1.74v0a4.32,4.32,0,0,0,.33,1.76,2.51,2.51,0,0,0,.92,1.12,2.65,2.65,0,0,0,2.77,0Z" transform="translate(0.57 -238.9)"/><path class="cls-7" d="M415.87,353.49a2.1,2.1,0,0,1-.49-1.55v-5.32h-1.19v-.86h1.19v-2.18h1.05v2.18H418v.86h-1.6v5.31a1.25,1.25,0,0,0,.29.93,1.19,1.19,0,0,0,.85.26h.25l.21,0v.83l-.3.05-.37,0A2,2,0,0,1,415.87,353.49Z" transform="translate(0.57 -238.9)"/><path class="cls-7" d="M419.53,342.63h1v4.61h0a2.59,2.59,0,0,1,1-1.18,3,3,0,0,1,1.65-.44,2.9,2.9,0,0,1,1.53.4,2.73,2.73,0,0,1,1,1.13,3.86,3.86,0,0,1,.36,1.72v5h-1V349a2.64,2.64,0,0,0-.6-1.85,2.1,2.1,0,0,0-1.63-.65,2.25,2.25,0,0,0-1.22.33,2.14,2.14,0,0,0-.82.89,2.83,2.83,0,0,0-.29,1.33v4.76h-1Z" transform="translate(0.57 -238.9)"/><path class="cls-7" d="M429.18,353.48a3.27,3.27,0,0,1-1.27-1.45,5,5,0,0,1-.45-2.21h0a5.11,5.11,0,0,1,.45-2.22,3.32,3.32,0,0,1,1.25-1.46,3.66,3.66,0,0,1,3.76,0,3.31,3.31,0,0,1,1.22,1.41,5,5,0,0,1,.43,2.12v.4H428v-.82h6.1l-.52.74v-.39a4,4,0,0,0-.32-1.67,2.38,2.38,0,0,0-.89-1,2.45,2.45,0,0,0-3.52,1.05,3.79,3.79,0,0,0-.33,1.65V350a3.87,3.87,0,0,0,.33,1.68,2.39,2.39,0,0,0,.93,1.05,2.6,2.6,0,0,0,1.41.37,2.89,2.89,0,0,0,1-.18,2.14,2.14,0,0,0,.78-.52,1.89,1.89,0,0,0,.44-.78l0-.07h1l0,.08a2.83,2.83,0,0,1-1.11,1.71,3.08,3.08,0,0,1-1,.5,4,4,0,0,1-1.22.18A3.63,3.63,0,0,1,429.18,353.48Z" transform="translate(0.57 -238.9)"/><path class="cls-7" d="M439.2,345.76h1v1.42h0a2.16,2.16,0,0,1,.75-1.15,2,2,0,0,1,1.29-.42,2,2,0,0,1,.37,0l.27.06v1a1.26,1.26,0,0,0-.3-.08,3.32,3.32,0,0,0-.48,0,1.8,1.8,0,0,0-1,.28,1.85,1.85,0,0,0-.65.78,2.7,2.7,0,0,0-.23,1.14v5h-1Z" transform="translate(0.57 -238.9)"/><path class="cls-7" d="M444.08,344.1a.7.7,0,0,1,0-1,.67.67,0,0,1,.48-.2.7.7,0,0,1,.49.2.7.7,0,0,1,0,1,.66.66,0,0,1-.49.2A.63.63,0,0,1,444.08,344.1Zm0,1.66h1v8.08h-1Z" transform="translate(0.57 -238.9)"/><path class="cls-7" d="M448.62,356.43a3.09,3.09,0,0,1-1.15-.74,2.3,2.3,0,0,1-.58-1v-.07h1l0,.07a1.66,1.66,0,0,0,.8.82,3.28,3.28,0,0,0,1.53.32,2.5,2.5,0,0,0,1.8-.61,2.1,2.1,0,0,0,.65-1.64v-1.43h0a2.72,2.72,0,0,1-.61.95,3,3,0,0,1-.94.64,3.09,3.09,0,0,1-1.2.23,3.18,3.18,0,0,1-1.79-.51A3.49,3.49,0,0,1,447,352a5.13,5.13,0,0,1-.43-2.19h0a5,5,0,0,1,.44-2.18,3.46,3.46,0,0,1,1.21-1.45,3.17,3.17,0,0,1,1.79-.52,2.91,2.91,0,0,1,1.19.25,3,3,0,0,1,1.54,1.62h0v-1.72h1v7.88a3.05,3.05,0,0,1-.42,1.62,2.82,2.82,0,0,1-1.2,1.06,4,4,0,0,1-1.84.38A4.62,4.62,0,0,1,448.62,356.43Zm2.87-3.82a2.67,2.67,0,0,0,.91-1.14,4.26,4.26,0,0,0,.32-1.7h0a4.18,4.18,0,0,0-.32-1.69,2.58,2.58,0,0,0-.91-1.13,2.45,2.45,0,0,0-2.7,0,2.55,2.55,0,0,0-.9,1.13,4.06,4.06,0,0,0-.32,1.7h0a4.16,4.16,0,0,0,.32,1.72,2.61,2.61,0,0,0,.9,1.13,2.37,2.37,0,0,0,1.36.4A2.31,2.31,0,0,0,451.49,352.61Z" transform="translate(0.57 -238.9)"/><path class="cls-7" d="M455.58,342.63h1v4.61h0a2.59,2.59,0,0,1,1-1.18,3,3,0,0,1,1.65-.44,2.93,2.93,0,0,1,1.53.4,2.73,2.73,0,0,1,1,1.13,3.86,3.86,0,0,1,.36,1.72v5h-1V349a2.64,2.64,0,0,0-.59-1.85,2.12,2.12,0,0,0-1.64-.65,2.22,2.22,0,0,0-1.21.33,2.08,2.08,0,0,0-.82.89,2.83,2.83,0,0,0-.29,1.33v4.76h-1Z" transform="translate(0.57 -238.9)"/><path class="cls-7" d="M464.83,353.49a2.1,2.1,0,0,1-.49-1.55v-5.32h-1.19v-.86h1.19v-2.18h1.06v2.18H467v.86H465.4v5.31a1.25,1.25,0,0,0,.28.93,1.19,1.19,0,0,0,.85.26h.25l.21,0v.83l-.3.05-.37,0A2,2,0,0,1,464.83,353.49Z" transform="translate(0.57 -238.9)"/><path class="cls-7" d="M472.6,353.49a2.1,2.1,0,0,1-.49-1.55v-5.32h-1.19v-.86h1.19v-2.18h1.05v2.18h1.59v.86h-1.59v5.31a1.25,1.25,0,0,0,.29.93,1.16,1.16,0,0,0,.84.26h.26l.2,0v.83l-.3.05-.36,0A2,2,0,0,1,472.6,353.49Z" transform="translate(0.57 -238.9)"/><path class="cls-7" d="M477.26,353.47A3.44,3.44,0,0,1,476,352a4.94,4.94,0,0,1-.46-2.22v0a4.9,4.9,0,0,1,.46-2.21,3.44,3.44,0,0,1,1.29-1.45,3.89,3.89,0,0,1,3.85,0,3.48,3.48,0,0,1,1.29,1.44,5,5,0,0,1,.47,2.22v0a5,5,0,0,1-.47,2.23,3.45,3.45,0,0,1-3.21,2A3.74,3.74,0,0,1,477.26,353.47Zm3.32-.79a2.49,2.49,0,0,0,.91-1.12,4.32,4.32,0,0,0,.33-1.76v0a4.24,4.24,0,0,0-.33-1.75,2.37,2.37,0,0,0-.92-1.11,2.46,2.46,0,0,0-1.39-.39,2.42,2.42,0,0,0-1.37.39,2.59,2.59,0,0,0-.93,1.12,4.19,4.19,0,0,0-.32,1.74v0a4.32,4.32,0,0,0,.32,1.76,2.59,2.59,0,0,0,.93,1.12,2.44,2.44,0,0,0,1.39.39A2.48,2.48,0,0,0,480.58,352.68Z" transform="translate(0.57 -238.9)"/><path class="cls-7" d="M487.49,345.76h1v1.4h0a2.36,2.36,0,0,1,.84-1.11,2.68,2.68,0,0,1,2.52-.21,2.22,2.22,0,0,1,.79.59,2.44,2.44,0,0,1,.48.9h0a2.56,2.56,0,0,1,1.42-1.49,2.87,2.87,0,0,1,1.12-.22,2.72,2.72,0,0,1,1.38.34,2.33,2.33,0,0,1,.91.93,3,3,0,0,1,.32,1.43v5.52h-1v-5.29a2.15,2.15,0,0,0-.49-1.48,1.78,1.78,0,0,0-1.38-.54,2.07,2.07,0,0,0-1.06.28,2,2,0,0,0-.71.79,2.5,2.5,0,0,0-.26,1.15v5.09h-1v-5.38a1.9,1.9,0,0,0-.52-1.4,1.77,1.77,0,0,0-1.33-.53,1.9,1.9,0,0,0-1.06.3,2.08,2.08,0,0,0-.72.83,2.64,2.64,0,0,0-.27,1.22v5h-1Z" transform="translate(0.57 -238.9)"/><path class="cls-7" d="M501.07,353.69a2.25,2.25,0,0,1-1.28-2.09h0a2,2,0,0,1,.75-1.64,3.81,3.81,0,0,1,2.15-.69l3-.19v.8l-2.91.19a2.74,2.74,0,0,0-1.46.47,1.24,1.24,0,0,0-.52,1.06h0a1.31,1.31,0,0,0,.51,1.08,2.11,2.11,0,0,0,1.33.41,2.73,2.73,0,0,0,1.29-.3,2.48,2.48,0,0,0,.91-.82,2.15,2.15,0,0,0,.33-1.17v-2.4a1.79,1.79,0,0,0-.52-1.37,2.06,2.06,0,0,0-1.47-.5,2.38,2.38,0,0,0-1.44.4,1.61,1.61,0,0,0-.68,1.08l0,.08h-1V348a2.45,2.45,0,0,1,.48-1.24,2.75,2.75,0,0,1,1.07-.84,3.87,3.87,0,0,1,1.58-.31,3.6,3.6,0,0,1,1.6.34,2.41,2.41,0,0,1,1,.93,2.65,2.65,0,0,1,.37,1.43v5.53h-1v-1.48h0a2.62,2.62,0,0,1-.63.85,3.12,3.12,0,0,1-.95.57,3,3,0,0,1-1.13.21A3.13,3.13,0,0,1,501.07,353.69Z" transform="translate(0.57 -238.9)"/><path class="cls-7" d="M508.05,342.63h1v11.21h-1Zm.77,6.94h.28l4-3.81h1.25l-3.88,3.73h-.07l-1.56,1.45Zm1.09.21.68-.68,3.82,4.74h-1.2Z" transform="translate(0.57 -238.9)"/><path class="cls-7" d="M516.26,353.48A3.34,3.34,0,0,1,515,352a5,5,0,0,1-.45-2.21h0a5.11,5.11,0,0,1,.45-2.22,3.41,3.41,0,0,1,1.26-1.46,3.34,3.34,0,0,1,1.88-.53,3.38,3.38,0,0,1,1.87.51,3.24,3.24,0,0,1,1.22,1.41,4.83,4.83,0,0,1,.43,2.12v.4h-6.59v-.82h6.09l-.52.74v-.39a3.8,3.8,0,0,0-.32-1.67,2.36,2.36,0,0,0-.88-1,2.47,2.47,0,0,0-1.31-.35,2.35,2.35,0,0,0-2.21,1.4,3.79,3.79,0,0,0-.33,1.65V350a3.87,3.87,0,0,0,.33,1.68,2.39,2.39,0,0,0,.93,1.05,2.54,2.54,0,0,0,1.4.37,3,3,0,0,0,1.06-.18,2,2,0,0,0,.77-.52,1.91,1.91,0,0,0,.45-.78l0-.07h1l0,.08a2.83,2.83,0,0,1-1.11,1.71,3.08,3.08,0,0,1-1,.5,3.93,3.93,0,0,1-1.21.18A3.64,3.64,0,0,1,516.26,353.48Z" transform="translate(0.57 -238.9)"/><path class="cls-7" d="M527.27,353.69A2.25,2.25,0,0,1,526,351.6h0a2,2,0,0,1,.75-1.64,3.81,3.81,0,0,1,2.15-.69l3-.19v.8l-2.91.19a2.74,2.74,0,0,0-1.46.47,1.24,1.24,0,0,0-.52,1.06h0a1.31,1.31,0,0,0,.51,1.08,2.11,2.11,0,0,0,1.33.41,2.73,2.73,0,0,0,1.29-.3,2.48,2.48,0,0,0,.91-.82,2.15,2.15,0,0,0,.33-1.17v-2.4a1.79,1.79,0,0,0-.52-1.37,2.06,2.06,0,0,0-1.47-.5,2.35,2.35,0,0,0-1.43.4,1.66,1.66,0,0,0-.69,1.08l0,.08h-1V348a2.55,2.55,0,0,1,.48-1.24,2.75,2.75,0,0,1,1.07-.84,3.87,3.87,0,0,1,1.58-.31,3.6,3.6,0,0,1,1.6.34,2.41,2.41,0,0,1,1,.93,2.65,2.65,0,0,1,.37,1.43v5.53h-1v-1.48h0a2.36,2.36,0,0,1-.63.85,3.12,3.12,0,0,1-1,.57,3,3,0,0,1-1.13.21A3.13,3.13,0,0,1,527.27,353.69Z" transform="translate(0.57 -238.9)"/><path class="cls-7" d="M538.73,353.47a3.38,3.38,0,0,1-1.28-1.46,5.05,5.05,0,0,1-.45-2.22h0a4.89,4.89,0,0,1,.46-2.2,3.36,3.36,0,0,1,1.28-1.45,3.83,3.83,0,0,1,3.57-.15,3.12,3.12,0,0,1,1.13,1,2.94,2.94,0,0,1,.53,1.28v.07h-1v-.07a2.22,2.22,0,0,0-.76-1.2,2.61,2.61,0,0,0-2.91-.09,2.6,2.6,0,0,0-.91,1.14,4.14,4.14,0,0,0-.33,1.73h0a4.24,4.24,0,0,0,.33,1.75,2.5,2.5,0,0,0,.92,1.12,2.43,2.43,0,0,0,1.38.39,2.38,2.38,0,0,0,1.5-.47,2.23,2.23,0,0,0,.78-1.22v-.07h1v.06a3,3,0,0,1-1.71,2.27,3.53,3.53,0,0,1-1.58.35A3.64,3.64,0,0,1,538.73,353.47Z" transform="translate(0.57 -238.9)"/><path class="cls-7" d="M546.26,353.69A2.25,2.25,0,0,1,545,351.6h0a2,2,0,0,1,.75-1.64,3.77,3.77,0,0,1,2.14-.69l3-.19v.8l-2.9.19a2.81,2.81,0,0,0-1.47.47,1.26,1.26,0,0,0-.51,1.06h0a1.31,1.31,0,0,0,.51,1.08,2.09,2.09,0,0,0,1.33.41,2.72,2.72,0,0,0,1.28-.3,2.41,2.41,0,0,0,.91-.82,2.08,2.08,0,0,0,.34-1.17v-2.4a1.79,1.79,0,0,0-.52-1.37,2.07,2.07,0,0,0-1.48-.5,2.37,2.37,0,0,0-1.43.4,1.66,1.66,0,0,0-.69,1.08v.08h-1V348a2.53,2.53,0,0,1,.47-1.24,2.86,2.86,0,0,1,1.08-.84,3.84,3.84,0,0,1,1.58-.31,3.6,3.6,0,0,1,1.6.34,2.47,2.47,0,0,1,1,.93,2.74,2.74,0,0,1,.36,1.43v5.53h-1v-1.48h0a2.62,2.62,0,0,1-.63.85,3.25,3.25,0,0,1-1,.57,3.06,3.06,0,0,1-1.13.21A3.1,3.1,0,0,1,546.26,353.69Z" transform="translate(0.57 -238.9)"/><path class="cls-7" d="M553.21,342.63h1v11.21h-1Z" transform="translate(0.57 -238.9)"/><path class="cls-7" d="M556.14,342.63h1v11.21h-1Z" transform="translate(0.57 -238.9)"/><path class="cls-7" d="M559.09,353.73a.72.72,0,1,1,.51.21A.69.69,0,0,1,559.09,353.73Z" transform="translate(0.57 -238.9)"/><path class="cls-6" d="M211.46,285.07a18,18,0,1,0,18,18A18,18,0,0,0,211.46,285.07Zm0,32.64a14.63,14.63,0,1,1,14.63-14.63A14.63,14.63,0,0,1,211.46,317.71Zm0-24.74c-1.29,0-2.26.67-2.26,1.76v10c0,1.09,1,1.76,2.26,1.76s2.27-.7,2.27-1.76v-10C213.73,293.67,212.72,293,211.46,293Zm0,15.74a2.25,2.25,0,1,0,2.25,2.24A2.24,2.24,0,0,0,211.46,308.71Z" transform="translate(0.57 -238.9)"/></g></g></g></svg>