<svg xmlns="http://www.w3.org/2000/svg" xmlns:xlink="http://www.w3.org/1999/xlink" viewBox="0 0 754.01 132.8"><defs><style>.cls-1,.cls-5{fill:none;}.cls-2{fill:url(#未命名的渐变_23);}.cls-3{clip-path:url(#clip-path);}.cls-4{fill:#98f4e7;}.cls-5{stroke:#40dfcb;stroke-miterlimit:10;stroke-width:5px;}.cls-6{fill:#35d8c0;}</style><linearGradient id="未命名的渐变_23" x1="526.91" y1="66.4" x2="754.01" y2="66.4" gradientUnits="userSpaceOnUse"><stop offset="0" stop-color="#98f4e7"/><stop offset="0.55" stop-color="#98f4e7"/><stop offset="1" stop-color="#98f4e7" stop-opacity="0.1"/></linearGradient><clipPath id="clip-path" transform="translate(110.51 -387.13)"><rect class="cls-1" width="643" height="560"/></clipPath></defs><title>资源 9</title><g id="图层_2" data-name="图层 2"><g id="图层_2-2" data-name="图层 2"><rect class="cls-2" x="526.91" y="2.5" width="227.09" height="127.8"/><g class="cls-3"><rect class="cls-4" x="2.5" y="2.5" width="587.88" height="127.8" rx="22.56"/><rect class="cls-5" x="2.5" y="2.5" width="587.88" height="127.8" rx="22.56"/><path class="cls-6" d="M-61.35,433.18c10.6.49,18.86,9.3,18.36,19.6-.51,10.58-9.26,18.79-19.53,18.34-10.64-.46-18.92-9.3-18.4-19.64C-80.4,440.91-71.63,432.71-61.35,433.18Zm14.55,19A15.13,15.13,0,0,0-61.68,437a15.1,15.1,0,0,0-15.43,15.17A15.13,15.13,0,0,0-62.2,467.31,15.12,15.12,0,0,0-46.8,452.17Z" transform="translate(110.51 -387.13)"/><path class="cls-6" d="M-65.34,454.89l7.4-7.43c.63-.64,1.26-1.28,1.9-1.9a1.86,1.86,0,0,1,2.8-.1,1.87,1.87,0,0,1-.08,2.75q-5.28,5.3-10.57,10.57a1.85,1.85,0,0,1-2.81,0c-1.34-1.3-2.66-2.63-4-4a1.85,1.85,0,0,1,0-2.69,1.87,1.87,0,0,1,2.69,0C-67.1,453-66.28,453.92-65.34,454.89Z" transform="translate(110.51 -387.13)"/><path class="cls-6" d="M53.48,447.58H46.53v-4.14H65.46v4.14H58.51v19.87h-5Z" transform="translate(110.51 -387.13)"/><path class="cls-6" d="M67.94,443.44H72.8v9.25h.1A5.55,5.55,0,0,1,75,450.13a6.91,6.91,0,0,1,6.73,0,5.72,5.72,0,0,1,2.16,2.42,8.56,8.56,0,0,1,.75,3.73v11.2H79.76v-10.2a4.44,4.44,0,0,0-.88-2.92,3.12,3.12,0,0,0-2.55-1.06,3.31,3.31,0,0,0-1.85.51,3.45,3.45,0,0,0-1.24,1.4,4.58,4.58,0,0,0-.44,2.05v10.22H67.94Z" transform="translate(110.51 -387.13)"/><path class="cls-6" d="M89.92,467a5.06,5.06,0,0,1-2.87-4.7v0a4.54,4.54,0,0,1,1.82-3.82A9.37,9.37,0,0,1,94,456.88l7-.43v3l-6.22.41a3.87,3.87,0,0,0-2.13.65,1.82,1.82,0,0,0-.74,1.52v0a1.8,1.8,0,0,0,.75,1.54,3.32,3.32,0,0,0,2,.56,4.31,4.31,0,0,0,1.93-.43,3.27,3.27,0,0,0,1.35-1.16,2.94,2.94,0,0,0,.49-1.66v-5.42a2.44,2.44,0,0,0-.74-1.87,3.17,3.17,0,0,0-2.19-.68,3.74,3.74,0,0,0-2.16.56,2.26,2.26,0,0,0-1,1.42l0,.15H87.85v-.2A5.66,5.66,0,0,1,89,452a6.36,6.36,0,0,1,2.66-2,10.21,10.21,0,0,1,4.05-.73,10,10,0,0,1,4,.74,6.05,6.05,0,0,1,2.64,2.09,5.35,5.35,0,0,1,.94,3.15v12.23H98.41V464.8h-.1A5.92,5.92,0,0,1,97,466.37a5.64,5.64,0,0,1-1.79,1,6.67,6.67,0,0,1-2.17.35A6.82,6.82,0,0,1,89.92,467Z" transform="translate(110.51 -387.13)"/><path class="cls-6" d="M106.4,449.61h4.86v2.93h.1a5.52,5.52,0,0,1,2.06-2.41,6.1,6.1,0,0,1,3.38-.89,5.8,5.8,0,0,1,4.55,1.78,7.05,7.05,0,0,1,1.61,4.91v11.52H118.1V457a4,4,0,0,0-.82-2.71,3,3,0,0,0-2.46-1,3.49,3.49,0,0,0-1.88.5,3.39,3.39,0,0,0-1.24,1.38,4.58,4.58,0,0,0-.44,2.05v10.25H106.4Z" transform="translate(110.51 -387.13)"/><path class="cls-6" d="M126.19,443.44h4.87v24h-4.87Zm4.27,13.31h.7l6-7.14h5.5L134.46,459h-1.08l-2.92,3.21Zm1.45,2.83,3.08-3.71,8,11.58h-5.61Z" transform="translate(110.51 -387.13)"/><path class="cls-6" d="M147.18,467.1a6.38,6.38,0,0,1-2.71-2,6,6,0,0,1-1.16-2.95l0-.15H148l0,.15a2.58,2.58,0,0,0,1.05,1.63,3.82,3.82,0,0,0,2.26.58,5.14,5.14,0,0,0,1.58-.22,2.3,2.3,0,0,0,1-.65,1.45,1.45,0,0,0,.36-1v0a1.44,1.44,0,0,0-.52-1.15,4.24,4.24,0,0,0-1.83-.71l-3-.65a7.72,7.72,0,0,1-3.91-1.83,4.44,4.44,0,0,1-1.31-3.3v0a4.83,4.83,0,0,1,.92-3,6,6,0,0,1,2.61-1.94,10.44,10.44,0,0,1,4-.69,9.68,9.68,0,0,1,4,.76,6.11,6.11,0,0,1,2.55,2,5.16,5.16,0,0,1,.94,2.84v.17h-4.48v-.13a2.43,2.43,0,0,0-.89-1.59,3.24,3.24,0,0,0-2.13-.64,4.18,4.18,0,0,0-1.44.23,2.17,2.17,0,0,0-1,.65,1.57,1.57,0,0,0-.34,1h0a1.45,1.45,0,0,0,.54,1.15,4.27,4.27,0,0,0,1.88.75l3,.65a8.24,8.24,0,0,1,4,1.75,4.11,4.11,0,0,1,1.22,3.13h0a4.89,4.89,0,0,1-1,3.05,6.58,6.58,0,0,1-2.76,2,10.61,10.61,0,0,1-4.05.72A11,11,0,0,1,147.18,467.1Z" transform="translate(110.51 -387.13)"/><path class="cls-6" d="M163.47,466.89a2.57,2.57,0,0,1,0-3.71,2.66,2.66,0,0,1,1.92-.76,2.63,2.63,0,0,1,1.92.76,2.57,2.57,0,0,1,0,3.71,2.63,2.63,0,0,1-1.92.76A2.66,2.66,0,0,1,163.47,466.89Zm-.57-23.45h5l-.4,15.94h-4.2Z" transform="translate(110.51 -387.13)"/><path class="cls-6" d="M179.52,443.44h5v24h-5Z" transform="translate(110.51 -387.13)"/><path class="cls-6" d="M197,467a5.11,5.11,0,0,1-2.87-4.7v0a4.53,4.53,0,0,1,1.83-3.82,9.34,9.34,0,0,1,5.13-1.61l7-.43v3l-6.23.41a3.92,3.92,0,0,0-2.13.65,1.81,1.81,0,0,0-.73,1.52v0a1.8,1.8,0,0,0,.75,1.54,3.3,3.3,0,0,0,2,.56,4.36,4.36,0,0,0,1.94-.43A3.4,3.4,0,0,0,205,462.6a2.94,2.94,0,0,0,.49-1.66v-5.42a2.41,2.41,0,0,0-.75-1.87,3.16,3.16,0,0,0-2.18-.68,3.71,3.71,0,0,0-2.16.56,2.22,2.22,0,0,0-1,1.42l0,.15H195l0-.2a5.73,5.73,0,0,1,1.1-2.93,6.33,6.33,0,0,1,2.67-2,10.18,10.18,0,0,1,4.05-.73,10,10,0,0,1,4,.74,6.17,6.17,0,0,1,2.64,2.09,5.42,5.42,0,0,1,.94,3.15v12.23h-4.86V464.8h-.1a6.15,6.15,0,0,1-1.3,1.57,5.53,5.53,0,0,1-1.79,1,6.63,6.63,0,0,1-2.17.35A6.85,6.85,0,0,1,197,467Z" transform="translate(110.51 -387.13)"/><path class="cls-6" d="M213.52,449.61h4.86v3h.1a4.88,4.88,0,0,1,1.87-2.44,5.34,5.34,0,0,1,3.12-.92,5.53,5.53,0,0,1,2.24.44,4.45,4.45,0,0,1,1.69,1.24,4.81,4.81,0,0,1,1,2h.1a5.08,5.08,0,0,1,1.2-1.95,5.62,5.62,0,0,1,1.92-1.28,6.32,6.32,0,0,1,2.42-.45,6.09,6.09,0,0,1,3.06.75,5.25,5.25,0,0,1,2,2.1,6.61,6.61,0,0,1,.73,3.16v12.2H235v-11a3.45,3.45,0,0,0-.75-2.38,2.77,2.77,0,0,0-2.16-.83,3,3,0,0,0-1.61.42,2.91,2.91,0,0,0-1.07,1.18,3.73,3.73,0,0,0-.38,1.75v10.83h-4.68V456.33a3.15,3.15,0,0,0-.77-2.25,2.76,2.76,0,0,0-2.11-.81,3,3,0,0,0-1.61.44,3,3,0,0,0-1.09,1.21,3.83,3.83,0,0,0-.39,1.76v10.77h-4.86Z" transform="translate(110.51 -387.13)"/><path class="cls-6" d="M253.17,466.71a7.59,7.59,0,0,1-3.07-3.2,10.58,10.58,0,0,1-1.09-5v0a10.41,10.41,0,0,1,1.11-5,7.74,7.74,0,0,1,3.08-3.18,10.27,10.27,0,0,1,9.31,0,7.64,7.64,0,0,1,3.09,3.18,10.51,10.51,0,0,1,1.1,5v0a10.59,10.59,0,0,1-1.09,5,7.62,7.62,0,0,1-3.07,3.19,10.53,10.53,0,0,1-9.37,0Zm6.76-3.35a4.13,4.13,0,0,0,1.34-1.86,8.41,8.41,0,0,0,.47-3v0a8,8,0,0,0-.48-2.94,4.13,4.13,0,0,0-1.36-1.87,3.42,3.42,0,0,0-2-.64,3.34,3.34,0,0,0-2,.65,4.24,4.24,0,0,0-1.36,1.87,8,8,0,0,0-.48,2.93v0a8.41,8.41,0,0,0,.47,3,4,4,0,0,0,1.36,1.86,3.43,3.43,0,0,0,2.08.64A3.34,3.34,0,0,0,259.93,463.36Z" transform="translate(110.51 -387.13)"/><path class="cls-6" d="M269.35,443.44h4.87v24h-4.87Zm4.27,13.31h.7l6-7.14h5.5L277.62,459h-1.09l-2.91,3.21Zm1.45,2.83,3.08-3.71,8,11.58h-5.61Z" transform="translate(110.51 -387.13)"/><path class="cls-6" d="M289.62,467a5.11,5.11,0,0,1-2.87-4.7v0a4.54,4.54,0,0,1,1.82-3.82,9.4,9.4,0,0,1,5.14-1.61l7-.43v3l-6.22.41a3.92,3.92,0,0,0-2.13.65,1.81,1.81,0,0,0-.73,1.52v0a1.8,1.8,0,0,0,.75,1.54,3.3,3.3,0,0,0,2,.56,4.36,4.36,0,0,0,1.94-.43,3.4,3.4,0,0,0,1.35-1.16,3,3,0,0,0,.49-1.66v-5.42a2.41,2.41,0,0,0-.75-1.87,3.16,3.16,0,0,0-2.18-.68,3.77,3.77,0,0,0-2.17.56,2.3,2.3,0,0,0-1,1.42l0,.15h-4.46l0-.2a5.73,5.73,0,0,1,1.1-2.93,6.33,6.33,0,0,1,2.67-2,10.14,10.14,0,0,1,4.05-.73,10,10,0,0,1,4,.74,6.17,6.17,0,0,1,2.64,2.09,5.42,5.42,0,0,1,.94,3.15v12.23h-4.86V464.8H298a6.15,6.15,0,0,1-1.3,1.57,5.53,5.53,0,0,1-1.79,1,6.63,6.63,0,0,1-2.17.35A6.85,6.85,0,0,1,289.62,467Z" transform="translate(110.51 -387.13)"/><path class="cls-6" d="M307.44,473.26c-.45-.05-.81-.1-1.1-.15V469.5l.67.1a6.85,6.85,0,0,0,1,.06,3.39,3.39,0,0,0,1.73-.37,2.22,2.22,0,0,0,.95-1.26l.2-.58-6.29-17.84h5.34l4,14.91-.65-1h.91l-.65,1,4-14.91h5.15l-6.13,18.15a9.66,9.66,0,0,1-1.75,3.32,5.7,5.7,0,0,1-2.54,1.73,10.64,10.64,0,0,1-3.46.51Q308.1,473.32,307.44,473.26Z" transform="translate(110.51 -387.13)"/><path class="cls-6" d="M326.28,466.89a2.57,2.57,0,0,1,0-3.71,2.82,2.82,0,0,1,3.85,0,2.57,2.57,0,0,1,0,3.71,2.82,2.82,0,0,1-3.85,0Zm-.57-23.45h5l-.4,15.94h-4.19Z" transform="translate(110.51 -387.13)"/><rect class="cls-6" x="492.4" y="69.52" width="33.51" height="2.84"/><polygon class="cls-6" points="502.19 58.86 504.19 60.87 494.12 70.94 504.48 81.3 502.47 83.31 490.11 70.94 502.19 58.86"/></g></g></g></svg>