<svg xmlns="http://www.w3.org/2000/svg" viewBox="0 0 592.88 132.8"><defs><style>.cls-1{fill:#98f4e7;}.cls-2{fill:none;stroke:#40dfcb;stroke-miterlimit:10;stroke-width:5px;}.cls-3{fill:#35d8c0;}</style></defs><title>资源 11</title><g id="图层_2" data-name="图层 2"><g id="图层_2-2" data-name="图层 2"><rect class="cls-1" x="2.5" y="2.5" width="587.88" height="127.8" rx="22.56"/><rect class="cls-2" x="2.5" y="2.5" width="587.88" height="127.8" rx="22.56"/><path class="cls-3" d="M49.15,46.05c10.61.49,18.86,9.3,18.36,19.6C67,76.23,58.26,84.44,48,84c-10.63-.47-18.91-9.3-18.4-19.64C30.1,53.78,38.88,45.58,49.15,46.05ZM63.7,65A15.16,15.16,0,1,0,48.3,80.17,15.12,15.12,0,0,0,63.7,65Z"/><path class="cls-3" d="M45.17,67.76l7.4-7.44c.63-.63,1.25-1.27,1.89-1.89a1.87,1.87,0,0,1,2.81-.11,1.89,1.89,0,0,1-.09,2.76q-5.26,5.3-10.57,10.56a1.84,1.84,0,0,1-2.81,0q-2-2-4-4a1.85,1.85,0,0,1,0-2.69,1.88,1.88,0,0,1,2.7,0C43.4,65.89,44.23,66.79,45.17,67.76Z"/><path class="cls-3" d="M164,60.45h-7V56.3H176v4.15H169V80.32h-5Z"/><path class="cls-3" d="M178.45,56.3h4.86v9.26h.1A5.38,5.38,0,0,1,185.5,63a6.14,6.14,0,0,1,3.38-.89,6.3,6.3,0,0,1,3.35.86,5.63,5.63,0,0,1,2.15,2.42,8.39,8.39,0,0,1,.76,3.73v11.2h-4.88V70.12a4.44,4.44,0,0,0-.88-2.93,3.13,3.13,0,0,0-2.54-1,3.37,3.37,0,0,0-1.86.51A3.33,3.33,0,0,0,183.75,68a4.66,4.66,0,0,0-.44,2.06V80.32h-4.86Z"/><path class="cls-3" d="M200.42,79.91a5.14,5.14,0,0,1-2.87-4.7v0a4.54,4.54,0,0,1,1.83-3.82,9.34,9.34,0,0,1,5.13-1.6l7-.43v3l-6.23.42a3.84,3.84,0,0,0-2.13.65,1.81,1.81,0,0,0-.73,1.51v0a1.83,1.83,0,0,0,.75,1.54,3.3,3.3,0,0,0,2,.55,4.35,4.35,0,0,0,1.94-.42,3.35,3.35,0,0,0,1.35-1.17,2.88,2.88,0,0,0,.49-1.65V68.38a2.4,2.4,0,0,0-.75-1.86,3.16,3.16,0,0,0-2.18-.68,3.64,3.64,0,0,0-2.16.56,2.22,2.22,0,0,0-1,1.42l0,.15h-4.46l0-.2a5.62,5.62,0,0,1,1.11-2.93,6.33,6.33,0,0,1,2.66-2,10.39,10.39,0,0,1,4.05-.72,10,10,0,0,1,4,.74,6.09,6.09,0,0,1,2.64,2.09,5.41,5.41,0,0,1,.94,3.14V80.32h-4.86V77.67h-.1a5.76,5.76,0,0,1-1.3,1.56,5.38,5.38,0,0,1-1.79,1,6.63,6.63,0,0,1-2.17.35A6.85,6.85,0,0,1,200.42,79.91Z"/><path class="cls-3" d="M216.91,62.48h4.86v2.93h.1A5.48,5.48,0,0,1,223.93,63a6.07,6.07,0,0,1,3.38-.88,5.83,5.83,0,0,1,4.55,1.77,7.06,7.06,0,0,1,1.6,4.92V80.32h-4.85V69.82a4.07,4.07,0,0,0-.83-2.72,3.06,3.06,0,0,0-2.45-1,3.41,3.41,0,0,0-1.88.5A3.26,3.26,0,0,0,222.21,68a4.44,4.44,0,0,0-.44,2V80.32h-4.86Z"/><path class="cls-3" d="M236.69,56.3h4.88v24h-4.88ZM241,69.62h.7l6-7.14h5.51L245,71.86h-1.08L241,75.07Zm1.45,2.82,3.07-3.71,8,11.59h-5.61Z"/><path class="cls-3" d="M257.68,80a6.35,6.35,0,0,1-2.7-2,6,6,0,0,1-1.16-3l0-.15h4.74l0,.15a2.63,2.63,0,0,0,1.05,1.63,3.85,3.85,0,0,0,2.27.59,4.88,4.88,0,0,0,1.58-.23,2.19,2.19,0,0,0,1-.64,1.48,1.48,0,0,0,.36-1h0a1.43,1.43,0,0,0-.51-1.15,4.47,4.47,0,0,0-1.83-.72l-3-.65A7.52,7.52,0,0,1,255.55,71a4.41,4.41,0,0,1-1.32-3.29v0a4.81,4.81,0,0,1,.93-3,5.91,5.91,0,0,1,2.61-1.94,10.37,10.37,0,0,1,4-.69,9.58,9.58,0,0,1,4,.76,6,6,0,0,1,2.54,2,5.08,5.08,0,0,1,.94,2.84v.17h-4.47l0-.13a2.34,2.34,0,0,0-.89-1.59,3.21,3.21,0,0,0-2.12-.64,4,4,0,0,0-1.45.23,2.09,2.09,0,0,0-.95.65,1.54,1.54,0,0,0-.33,1h0a1.48,1.48,0,0,0,.53,1.15,4.32,4.32,0,0,0,1.88.75l3,.65a8.38,8.38,0,0,1,4,1.74,4.16,4.16,0,0,1,1.22,3.13v0a4.84,4.84,0,0,1-1,3,6.57,6.57,0,0,1-2.75,2,10.61,10.61,0,0,1-4.05.72A11.2,11.2,0,0,1,257.68,80Z"/><path class="cls-3" d="M274,79.76a2.49,2.49,0,0,1-.8-1.86,2.45,2.45,0,0,1,.8-1.85,2.63,2.63,0,0,1,1.92-.76,2.66,2.66,0,0,1,1.92.76,2.44,2.44,0,0,1,.79,1.85,2.48,2.48,0,0,1-.79,1.86,2.7,2.7,0,0,1-1.92.75A2.66,2.66,0,0,1,274,79.76ZM273.4,56.3h5L278,72.24H273.8Z"/><path class="cls-3" d="M290,56.3h5v24h-5Z"/><path class="cls-3" d="M307.54,79.91a5.14,5.14,0,0,1-2.87-4.7v0a4.56,4.56,0,0,1,1.82-3.82,9.4,9.4,0,0,1,5.13-1.6l7-.43v3l-6.22.42a3.79,3.79,0,0,0-2.13.65,1.82,1.82,0,0,0-.74,1.51v0a1.83,1.83,0,0,0,.75,1.54,3.32,3.32,0,0,0,2,.55,4.38,4.38,0,0,0,1.94-.42,3.26,3.26,0,0,0,1.34-1.17,2.88,2.88,0,0,0,.49-1.65V68.38a2.43,2.43,0,0,0-.74-1.86,3.16,3.16,0,0,0-2.18-.68,3.67,3.67,0,0,0-2.17.56,2.26,2.26,0,0,0-1,1.42l0,.15h-4.46v-.2a5.62,5.62,0,0,1,1.11-2.93,6.46,6.46,0,0,1,2.66-2,10.41,10.41,0,0,1,4.06-.72,10.07,10.07,0,0,1,4,.74A6,6,0,0,1,320,64.94a5.34,5.34,0,0,1,.94,3.14V80.32H316V77.67h-.1a5.72,5.72,0,0,1-1.29,1.56,5.38,5.38,0,0,1-1.79,1,6.67,6.67,0,0,1-2.17.35A6.82,6.82,0,0,1,307.54,79.91Z"/><path class="cls-3" d="M324,62.48h4.86v3h.1A4.94,4.94,0,0,1,330.85,63a5.39,5.39,0,0,1,3.12-.92,5.57,5.57,0,0,1,2.25.43,4.58,4.58,0,0,1,1.69,1.25,4.74,4.74,0,0,1,1,2h.1a5.26,5.26,0,0,1,1.21-2,5.56,5.56,0,0,1,1.91-1.27,6.39,6.39,0,0,1,2.42-.45,6,6,0,0,1,3.06.75,5.25,5.25,0,0,1,2.05,2.1,6.47,6.47,0,0,1,.73,3.16v12.2H345.5v-11a3.43,3.43,0,0,0-.74-2.38,2.75,2.75,0,0,0-2.17-.83,3,3,0,0,0-1.6.42,2.94,2.94,0,0,0-1.08,1.18,3.81,3.81,0,0,0-.38,1.74V80.32h-4.67V69.2a3.16,3.16,0,0,0-.77-2.26,2.8,2.8,0,0,0-2.11-.8,2.93,2.93,0,0,0-2.71,1.65,3.8,3.8,0,0,0-.39,1.76V80.32H324Z"/><path class="cls-3" d="M363.68,79.58a7.59,7.59,0,0,1-3.07-3.2,10.58,10.58,0,0,1-1.09-5v0a10.46,10.46,0,0,1,1.1-5,7.76,7.76,0,0,1,3.09-3.18,9.24,9.24,0,0,1,4.64-1.12A9.41,9.41,0,0,1,373,63.22a7.59,7.59,0,0,1,3.09,3.18,10.47,10.47,0,0,1,1.1,5v0a10.72,10.72,0,0,1-1.09,5,7.62,7.62,0,0,1-3.07,3.19,10.53,10.53,0,0,1-9.37,0Zm6.75-3.35a4,4,0,0,0,1.34-1.86,8.18,8.18,0,0,0,.48-3v0a7.78,7.78,0,0,0-.49-2.93,4.11,4.11,0,0,0-1.35-1.87,3.58,3.58,0,0,0-4.1,0A4.13,4.13,0,0,0,365,68.43a8,8,0,0,0-.48,2.93v0a8.19,8.19,0,0,0,.47,3,4.08,4.08,0,0,0,1.36,1.86,3.41,3.41,0,0,0,2.08.64A3.31,3.31,0,0,0,370.43,76.23Z"/><path class="cls-3" d="M379.85,56.3h4.88v24h-4.88Zm4.28,13.32h.7l6-7.14h5.51l-8.24,9.38H387l-2.91,3.21Zm1.45,2.82,3.07-3.71,8,11.59h-5.61Z"/><path class="cls-3" d="M400.13,79.91a5.09,5.09,0,0,1-2.87-4.7v0a4.53,4.53,0,0,1,1.82-3.82,9.34,9.34,0,0,1,5.13-1.6l7-.43v3l-6.22.42a3.85,3.85,0,0,0-2.14.65,1.83,1.83,0,0,0-.73,1.51v0a1.83,1.83,0,0,0,.75,1.54,3.3,3.3,0,0,0,2,.55,4.32,4.32,0,0,0,1.94-.42,3.35,3.35,0,0,0,1.35-1.17,2.88,2.88,0,0,0,.49-1.65V68.38a2.4,2.4,0,0,0-.75-1.86,3.15,3.15,0,0,0-2.18-.68,3.64,3.64,0,0,0-2.16.56,2.26,2.26,0,0,0-1,1.42l0,.15h-4.46v-.2a5.62,5.62,0,0,1,1.11-2.93,6.39,6.39,0,0,1,2.66-2,10.39,10.39,0,0,1,4.05-.72,10,10,0,0,1,4,.74,6.09,6.09,0,0,1,2.64,2.09,5.34,5.34,0,0,1,.94,3.14V80.32h-4.86V77.67h-.1a5.58,5.58,0,0,1-1.3,1.56,5.33,5.33,0,0,1-1.78,1,6.73,6.73,0,0,1-2.18.35A6.81,6.81,0,0,1,400.13,79.91Z"/><path class="cls-3" d="M417.94,86.12a10.16,10.16,0,0,1-1.1-.15V82.36c.17,0,.39.07.68.11a6.8,6.8,0,0,0,1,.06,3.37,3.37,0,0,0,1.73-.37,2.18,2.18,0,0,0,.95-1.26l.2-.58-6.29-17.84h5.34l4,14.91-.65-1h.92l-.65,1,4-14.91h5.14l-6.12,18.15A9.67,9.67,0,0,1,425.32,84a5.73,5.73,0,0,1-2.54,1.73,10.6,10.6,0,0,1-3.46.51A12.38,12.38,0,0,1,417.94,86.12Z"/><path class="cls-3" d="M436.79,79.76A2.48,2.48,0,0,1,436,77.9a2.44,2.44,0,0,1,.79-1.85,2.63,2.63,0,0,1,1.92-.76,2.66,2.66,0,0,1,1.92.76,2.44,2.44,0,0,1,.79,1.85,2.48,2.48,0,0,1-.79,1.86,2.7,2.7,0,0,1-1.92.75A2.66,2.66,0,0,1,436.79,79.76Zm-.58-23.46h5l-.39,15.94h-4.2Z"/><rect class="cls-3" x="492.4" y="69.52" width="33.51" height="2.84"/><polygon class="cls-3" points="502.19 58.86 504.19 60.87 494.12 70.94 504.48 81.3 502.47 83.31 490.11 70.94 502.19 58.86"/></g></g></svg>