<svg xmlns="http://www.w3.org/2000/svg" viewBox="0 0 171.7 155.76"><defs><style>.cls-1{fill:#063f36;}</style></defs><title>资源 30</title><g id="图层_2" data-name="图层 2"><g id="图层_5" data-name="图层 5"><path class="cls-1" d="M.48,57.7,22.85,35.24a86.32,86.32,0,0,0,6.46-7,18.84,18.84,0,0,0,3-5,13.13,13.13,0,0,0,.84-4.69v-.08a9.9,9.9,0,0,0-5.32-9,11.89,11.89,0,0,0-5.71-1.32,13.68,13.68,0,0,0-6.57,1.54A12,12,0,0,0,11,13.78a10.4,10.4,0,0,0-1.67,5.78l0,.3H0v-.3A18.1,18.1,0,0,1,2.9,9.45,19.8,19.8,0,0,1,10.83,2.5,24.79,24.79,0,0,1,22,0,24.16,24.16,0,0,1,32.87,2.33a18.17,18.17,0,0,1,7.36,6.39,16.47,16.47,0,0,1,2.66,9.21V18a18,18,0,0,1-1.32,6.85A29.17,29.17,0,0,1,37.07,32q-3.19,3.9-8.9,9.58L10.42,59l3.34-6.33V59l-3.34-2.86H43.9v8.31H.48Z"/><path class="cls-1" d="M68.73,10.85h-.22L51.94,22.28V12.92L68.64,1.05H78.4V64.47H68.73Z"/><path class="cls-1" d="M93.78,57.7l22.37-22.46a88.2,88.2,0,0,0,6.46-7,19.39,19.39,0,0,0,3-5,13.12,13.12,0,0,0,.83-4.69v-.08a9.87,9.87,0,0,0-5.31-9,11.91,11.91,0,0,0-5.71-1.32,13.62,13.62,0,0,0-6.57,1.54,12,12,0,0,0-4.55,4.11,10.32,10.32,0,0,0-1.67,5.78l0,.3H93.3v-.3A18,18,0,0,1,96.2,9.45a19.73,19.73,0,0,1,7.93-6.95A24.72,24.72,0,0,1,115.31,0a24.23,24.23,0,0,1,10.86,2.33,18.24,18.24,0,0,1,7.36,6.39,16.47,16.47,0,0,1,2.66,9.21V18a18,18,0,0,1-1.32,6.85,29.17,29.17,0,0,1-4.5,7.17q-3.19,3.9-8.91,9.58L103.71,59l3.34-6.33V59l-3.34-2.86H137.2v8.31H93.78Z"/><path class="cls-1" d="M162,10.85h-.22L145.24,22.28V12.92l16.7-11.87h9.76V64.47H162Z"/><path class="cls-1" d="M28,144.75a13.08,13.08,0,0,1-5.42-4.07,11.47,11.47,0,0,1-2.27-6.19l0-.41h4l.06.41a7.85,7.85,0,0,0,1.81,4.24,9.85,9.85,0,0,0,4.08,2.78,16.14,16.14,0,0,0,5.88,1,15.3,15.3,0,0,0,5.76-1,8.59,8.59,0,0,0,3.81-2.81A6.93,6.93,0,0,0,47,134.44v0a6.25,6.25,0,0,0-2.14-5c-1.42-1.24-3.77-2.23-7-3l-4.63-1q-6.12-1.41-9-4.14A9.56,9.56,0,0,1,21.33,114v0a10.12,10.12,0,0,1,1.87-6,12.25,12.25,0,0,1,5.1-4,17.82,17.82,0,0,1,7.41-1.47A17.12,17.12,0,0,1,43,104a12.93,12.93,0,0,1,5.11,4.1,11.37,11.37,0,0,1,2.15,6.11l0,.41h-4l0-.38A8.74,8.74,0,0,0,44.58,110a9.23,9.23,0,0,0-3.68-2.77,13.32,13.32,0,0,0-5.27-1,13.76,13.76,0,0,0-5.37,1,8.33,8.33,0,0,0-3.58,2.68,6.53,6.53,0,0,0-1.28,4V114a6,6,0,0,0,2.14,4.79,15.57,15.57,0,0,0,6.74,2.91l4.63,1q6.47,1.45,9.31,4.16a9.66,9.66,0,0,1,2.84,7.38v0a10.77,10.77,0,0,1-1.85,6.31,12,12,0,0,1-5.28,4.15,20.21,20.21,0,0,1-8,1.46A20.21,20.21,0,0,1,28,144.75Z"/><path class="cls-1" d="M60.25,144.21q-1.86-1.86-1.86-5.85V118.29H53.91V115h4.48v-8.23h4V115h6v3.25h-6v20a4.72,4.72,0,0,0,1.07,3.52,4.59,4.59,0,0,0,3.21,1c.33,0,.65,0,.95,0l.78-.07v3.13c-.29.06-.67.11-1.13.16a12.81,12.81,0,0,1-1.39.08Q62.11,146.07,60.25,144.21Z"/><path class="cls-1" d="M77.7,144.15a12.62,12.62,0,0,1-4.79-5.45,19.1,19.1,0,0,1-1.69-8.34v0A19.33,19.33,0,0,1,72.91,122a13,13,0,0,1,4.73-5.53,14,14,0,0,1,14.16-.08,12.41,12.41,0,0,1,4.6,5.32,18.4,18.4,0,0,1,1.63,8v1.52H73.15v-3.07h23l-2,2.78v-1.46A14.57,14.57,0,0,0,93,123.14a8.88,8.88,0,0,0-3.34-3.88,9.2,9.2,0,0,0-13.27,4,14.27,14.27,0,0,0-1.24,6.23v1.46a14.61,14.61,0,0,0,1.24,6.33,9.15,9.15,0,0,0,3.5,4,10,10,0,0,0,5.31,1.38,10.82,10.82,0,0,0,4-.69A7.85,7.85,0,0,0,92.08,140,7.26,7.26,0,0,0,93.75,137l.09-.26h3.81l-.06.29a10.78,10.78,0,0,1-1.48,3.59,11,11,0,0,1-2.71,2.87,12.69,12.69,0,0,1-3.75,1.88,15.25,15.25,0,0,1-4.57.66A13.75,13.75,0,0,1,77.7,144.15Z"/><path class="cls-1" d="M103.21,115h3.87v6.48h.09a11.79,11.79,0,0,1,2.34-3.67,10.7,10.7,0,0,1,3.55-2.47,11,11,0,0,1,4.48-.9,11.8,11.8,0,0,1,6.77,2,13,13,0,0,1,4.52,5.51,19.67,19.67,0,0,1,1.63,8.32v0a19.59,19.59,0,0,1-1.63,8.31,13,13,0,0,1-4.51,5.49,11.64,11.64,0,0,1-6.72,2,11.5,11.5,0,0,1-4.5-.88,10.63,10.63,0,0,1-3.57-2.45,11.28,11.28,0,0,1-2.36-3.62h-.09v16.64h-3.87ZM122,141.09a9.9,9.9,0,0,0,3.37-4.3,16.17,16.17,0,0,0,1.2-6.49v0a16.37,16.37,0,0,0-1.2-6.55,9.78,9.78,0,0,0-3.37-4.28,9.26,9.26,0,0,0-10.18,0,10.27,10.27,0,0,0-3.47,4.31,15.49,15.49,0,0,0-1.26,6.49v0a15.5,15.5,0,0,0,1.26,6.45,10.24,10.24,0,0,0,3.47,4.32,9.23,9.23,0,0,0,10.18,0Z"/><path class="cls-1" d="M140.05,144.91a10.3,10.3,0,0,1-4.08-3.19,9.48,9.48,0,0,1-1.82-4.74l0-.26H138l.06.26a6.51,6.51,0,0,0,2.55,4.24,8.93,8.93,0,0,0,5.5,1.57,11.24,11.24,0,0,0,4-.65,5.7,5.7,0,0,0,2.61-1.86,4.47,4.47,0,0,0,.92-2.8v0a4.16,4.16,0,0,0-1.23-3.16,9.56,9.56,0,0,0-4.3-1.91l-4.6-1.08a13.84,13.84,0,0,1-6.4-3,6.7,6.7,0,0,1-2.1-5.11v0a7.53,7.53,0,0,1,1.39-4.5,9.35,9.35,0,0,1,3.84-3.06,13.44,13.44,0,0,1,5.61-1.12,13,13,0,0,1,5.67,1.16,9.73,9.73,0,0,1,3.84,3.19,9.29,9.29,0,0,1,1.62,4.68l0,.32h-3.69l0-.2a6.37,6.37,0,0,0-2.3-4.27,7.87,7.87,0,0,0-5.14-1.59,9.38,9.38,0,0,0-3.63.65,5.55,5.55,0,0,0-2.41,1.85A4.61,4.61,0,0,0,139,123v0a3.9,3.9,0,0,0,1.31,3,10.07,10.07,0,0,0,4.34,1.93l4.57,1.08q4.57,1.1,6.49,3a6.9,6.9,0,0,1,1.92,5.11v0a7.44,7.44,0,0,1-1.5,4.6,9.82,9.82,0,0,1-4.08,3.12,14.81,14.81,0,0,1-5.94,1.13A14.56,14.56,0,0,1,140.05,144.91Z"/></g></g></svg>