<svg xmlns="http://www.w3.org/2000/svg" viewBox="0 0 108.24 144.46"><defs><style>.cls-1{fill:#063f36;}</style></defs><title>资源 29</title><g id="图层_2" data-name="图层 2"><g id="图层_5" data-name="图层 5"><path class="cls-1" d="M16.79,9.8h-.22L0,21.23V11.87L16.7,0h9.76V63.41H16.79Z"/><path class="cls-1" d="M40.74,62.4a5.89,5.89,0,1,1,4.13,1.67A5.58,5.58,0,0,1,40.74,62.4Z"/><path class="cls-1" d="M90,50.8H58.27V42.19Q61,38,63.65,33.75t5.41-8.44q2.7-4.21,5.38-8.43t5.39-8.44Q82.53,4.22,85.21,0H99.45V42.5h8.79v8.3H99.45V63.41H90Zm.09-8.13V7.82h-.27c-1.49,2.32-3,4.62-4.48,6.92s-3,4.6-4.46,6.9-3,4.61-4.48,6.92-3,4.63-4.48,6.93l-4.46,6.92v.26Z"/><path class="cls-1" d="M19.24,102.18h3.84v42.28H19.24Zm2.9,26.19H23.2L38.2,114h4.74L28.29,128.05H28l-5.89,5.48Zm4.1.79,2.58-2.58,14.42,17.88H38.69Z"/><path class="cls-1" d="M46.9,114h3.86v5.27h.09a8.84,8.84,0,0,1,3.2-4.18,9.09,9.09,0,0,1,5.45-1.62,9.71,9.71,0,0,1,4,.8,8.45,8.45,0,0,1,3,2.26,9.06,9.06,0,0,1,1.78,3.38h.12a10.21,10.21,0,0,1,2.1-3.35,9.56,9.56,0,0,1,3.26-2.27,10.52,10.52,0,0,1,4.22-.82,10.32,10.32,0,0,1,5.2,1.26,8.79,8.79,0,0,1,3.44,3.53,11.11,11.11,0,0,1,1.23,5.38v20.83H84v-20a8,8,0,0,0-1.86-5.58,6.72,6.72,0,0,0-5.2-2A7.35,7.35,0,0,0,73,118a7.27,7.27,0,0,0-2.69,3,9.33,9.33,0,0,0-1,4.35v19.19H65.44V124.15a7.25,7.25,0,0,0-1.93-5.29,6.76,6.76,0,0,0-5-2,7.13,7.13,0,0,0-4,1.12,7.83,7.83,0,0,0-2.73,3.12,10.31,10.31,0,0,0-1,4.63v18.7H46.9Z"/></g></g></svg>