<svg xmlns="http://www.w3.org/2000/svg" viewBox="0 0 1125 251"><defs><style>.cls-1{fill:#d5edf1;}.cls-2{fill:#063f36;}</style></defs><title>资源 35</title><g id="图层_2" data-name="图层 2"><g id="图层_5" data-name="图层 5"><rect class="cls-1" width="1125" height="251"/><path class="cls-2" d="M107.9,181.79,131,158.68a2,2,0,0,0-2.89-2.89l-24.56,24.56a2,2,0,0,0,0,2.89l24.56,24.56a2,2,0,0,0,2.89-2.89Z"/><path class="cls-2" d="M173.4,151.61h9.71l11.12,46.9h.21l12.62-46.9h8.84l12.62,46.9h.2l11.13-46.9h9.71L233.41,211.5h-9l-12.87-45.11h-.2L198.51,211.5h-9Z"/><path class="cls-2" d="M255.29,210.63a12.31,12.31,0,0,1-5.11-4.65,12.9,12.9,0,0,1-1.83-6.89V199a10.92,10.92,0,0,1,4.26-9.07c2.83-2.22,6.83-3.49,12-3.79l16.52-1v6.31l-15.31.95a11.18,11.18,0,0,0-6.21,1.93,5.36,5.36,0,0,0-2.18,4.46v.09a5.39,5.39,0,0,0,2.18,4.52,9.28,9.28,0,0,0,5.79,1.66,12.26,12.26,0,0,0,5.67-1.29,10.06,10.06,0,0,0,4-3.54,9.22,9.22,0,0,0,1.45-5.09v-13a7.27,7.27,0,0,0-2.24-5.66,9.18,9.18,0,0,0-6.43-2.06,10.61,10.61,0,0,0-6.21,1.66,7,7,0,0,0-2.92,4.28l-.09.37H250.1l0-.46a13.19,13.19,0,0,1,2.53-6.78,14.84,14.84,0,0,1,6.1-4.75A22.44,22.44,0,0,1,268,167a22.06,22.06,0,0,1,9.25,1.79,14.15,14.15,0,0,1,6.06,5,13.36,13.36,0,0,1,2.16,7.59V211.5h-9.05v-6.89h-.16A14.19,14.19,0,0,1,273,208.7a15,15,0,0,1-4.59,2.66,15.81,15.81,0,0,1-5.46.93A16.62,16.62,0,0,1,255.29,210.63Z"/><path class="cls-2" d="M294.51,151.61h9V211.5h-9Z"/><path class="cls-2" d="M313.22,151.61h9V211.5h-9Zm7.43,34.83h1.79l17.47-18.6h10.58L330,189.34h-1.37l-8,8Zm4.65,4.81,5.85-6.43,20,26.68H340.74Z"/></g></g></svg>