<svg xmlns="http://www.w3.org/2000/svg" viewBox="0 0 839.67 966.54"><defs><style>.cls-1{fill:#063f36;}.cls-2{fill:#fe7467;}.cls-3{fill:#cef9f2;}.cls-4{fill:#40dfcb;}.cls-5{fill:#f4f9ff;}</style></defs><title>资源 39</title><g id="图层_2" data-name="图层 2"><g id="图层_6" data-name="图层 6"><path class="cls-1" d="M146.38,852.23l-4.1-2.87,2.88-4.09,4.09,2.87Zm5.74-8.18L148,841.18l2.88-4.09L155,840Zm5.75-8.18L153.78,833l2.87-4.09,4.1,2.88Zm5.75-8.18-4.09-2.88,2.87-4.09,4.09,2.87Zm5.75-8.19-4.09-2.87,2.87-4.09,4.09,2.87Zm5.75-8.18-4.1-2.88,2.88-4.09,4.09,2.88Zm5.74-8.18-4.09-2.88,2.87-4.09,4.1,2.87Zm5.75-8.19-4.09-2.87,2.87-4.09,4.09,2.87Zm5.75-8.18-4.09-2.87,2.87-4.1,4.09,2.88Zm5.75-8.18-4.1-2.88,2.88-4.09L201,774.5Zm5.74-8.19-4.09-2.87,2.88-4.09,4.09,2.87Zm5.75-8.18-4.09-2.87,2.87-4.1,4.1,2.88Zm5.75-8.18-4.09-2.88,2.87-4.09,4.09,2.88Zm5.75-8.19L217,743l2.87-4.09,4.09,2.87Zm5.75-8.18-4.1-2.87,2.88-4.09,4.09,2.87Zm5.74-8.18-4.09-2.88,2.88-4.09,4.09,2.88Zm5.75-8.18-4.09-2.88,2.87-4.09,4.09,2.87Zm5.75-8.19L240,710.25l2.87-4.09L247,709Zm5.75-8.18-4.09-2.88,2.87-4.09,4.09,2.88Zm5.74-8.18-4.09-2.88,2.88-4.09,4.09,2.87Zm5.75-8.19-4.09-2.87,2.87-4.09,4.1,2.87Zm5.75-8.18L263,677.52l2.87-4.1L270,676.3Zm5.75-8.18-4.09-2.88,2.87-4.09,4.09,2.88Zm5.75-8.19-4.1-2.87,2.88-4.09,4.09,2.87Zm5.74-8.18L280.23,653l2.88-4.09,4.09,2.87Zm5.75-8.18L286,644.78l2.87-4.09,4.1,2.88Zm5.75-8.19-4.09-2.87,2.87-4.09,4.09,2.87Zm5.75-8.18-4.09-2.87,2.87-4.09,4.09,2.87Zm5.75-8.18-4.1-2.88,2.88-4.09,4.09,2.88Zm5.74-8.18L309,612.05l2.87-4.09,4.1,2.87Zm5.75-8.19-4.09-2.87,2.87-4.09,4.09,2.87Z"/><circle class="cls-2" cx="419.83" cy="487.29" r="366.08"/><path class="cls-1" d="M420,907.13v-5c1.66,0,3.31,0,5,0l.06,5C423.34,907.12,421.66,907.13,420,907.13Zm-5,0-5-.09.12-5c1.65,0,3.31.07,5,.09ZM430,907l-.12-5c1.65,0,3.31-.09,5-.15l.18,5C433.39,906.92,431.71,907,430,907Zm-25.16-.14c-1.68-.06-3.35-.13-5-.21l.24-5,5,.2Zm35.21-.22-.24-5c1.66-.08,3.31-.16,5-.26l.29,5C443.44,906.48,441.76,906.57,440.09,906.65Zm-45.26-.25c-1.68-.1-3.35-.21-5-.33l.36-5c1.65.12,3.3.23,5,.32Zm55.31-.35-.36-5c1.65-.12,3.31-.24,5-.38l.41,5Zm-65.36-.36-5-.45.47-5c1.65.16,3.3.31,5,.44Zm75.39-.48-.48-5,4.95-.5.53,5C463.51,904.89,461.84,905.06,460.17,905.21Zm-85.41-.47c-1.67-.18-3.33-.37-5-.57l.59-5c1.65.19,3.29.38,4.94.55Zm95.42-.6-.6-5,4.94-.62.65,5C473.51,903.73,471.84,903.94,470.18,904.14Zm-105.41-.59c-1.67-.22-3.33-.45-5-.69l.71-5c1.64.24,3.28.47,4.93.68Zm115.39-.72-.72-5,4.92-.74.77,4.94C483.48,902.34,481.82,902.59,480.16,902.83Zm-125.36-.71c-1.66-.26-3.32-.52-5-.8l.83-4.93c1.63.27,3.27.54,4.91.79Zm135.3-.85-.83-4.93c1.64-.27,3.27-.56,4.9-.85l.89,4.92Zm-145.23-.82c-1.65-.29-3.3-.6-4.95-.92l.95-4.91c1.63.32,3.26.62,4.89.91Zm155.14-1-.95-4.91c1.63-.31,3.26-.64,4.88-1l1,4.89C503.3,898.83,501.66,899.16,500,899.48Zm-165-.93-4.93-1,1.07-4.89c1.61.35,3.24.7,4.86,1Zm174.88-1.1-1.07-4.89c1.62-.35,3.24-.71,4.86-1.09l1.12,4.87Q512.34,896.91,509.87,897.45Zm-184.72-1-4.9-1.16,1.18-4.86c1.61.39,3.23.77,4.84,1.14Zm194.53-1.23-1.19-4.86c1.62-.39,3.22-.79,4.83-1.2l1.24,4.84C522.94,894.38,521.31,894.78,519.68,895.18ZM315.37,894l-4.87-1.28,1.3-4.83q2.4.65,4.81,1.26Zm214.06-1.35-1.3-4.83q2.4-.65,4.79-1.32l1.36,4.81Zm-223.79-1.27c-1.61-.45-3.22-.92-4.83-1.39l1.41-4.8c1.59.47,3.19.93,4.78,1.38Zm233.48-1.47-1.42-4.8q2.38-.71,4.76-1.44l1.48,4.78C542.33,889,540.73,889.46,539.12,889.94ZM296,888.56q-2.42-.73-4.82-1.52l1.53-4.76q2.37.76,4.76,1.5ZM548.74,887l-1.53-4.76c1.57-.51,3.15-1,4.72-1.56l1.59,4.74C551.93,885.93,550.34,886.45,548.74,887Zm-262.38-1.5c-1.59-.54-3.19-1.08-4.78-1.64l1.65-4.72q2.36.82,4.72,1.62Zm271.92-1.71L556.63,879q2.36-.81,4.69-1.67l1.71,4.7Q560.66,882.94,558.28,883.76Zm-281.46-1.62-4.74-1.75,1.76-4.68,4.68,1.73Zm290.93-1.81L566,875.65c1.56-.58,3.1-1.18,4.65-1.78l1.82,4.66Q570.11,879.45,567.75,880.33Zm-300.39-1.75q-2.36-.92-4.69-1.86l1.87-4.64q2.31.95,4.64,1.84Zm309.77-1.91L575.25,872c1.53-.62,3.06-1.24,4.58-1.88l1.93,4.61C580.22,875.41,578.68,876,577.13,876.67ZM258,874.8q-2.34-1-4.65-2l2-4.59,4.59,2Zm328.37-2-2-4.59q2.28-1,4.53-2l2,4.56C589.44,871.46,587.91,872.14,586.37,872.8Zm-337.64-2c-1.54-.69-3.07-1.38-4.6-2.09l2.1-4.54c1.5.7,3,1.39,4.54,2.07Zm346.8-2.08-2.1-4.54,4.49-2.11,2.15,4.52Q597.8,867.66,595.53,868.71Zm-356-2.15c-1.52-.72-3-1.46-4.55-2.2l2.21-4.48,4.49,2.17Zm365-2.17-2.21-4.48q2.24-1.1,4.44-2.21l2.26,4.46C607.59,862.91,606.09,863.66,604.59,864.39ZM230.5,862.11l-4.49-2.3,2.31-4.44c1.48.77,3,1.53,4.44,2.28Zm383-2.24-2.31-4.44c1.47-.76,2.93-1.54,4.38-2.32l2.37,4.41Zm-392-2.42c-1.48-.8-3-1.6-4.43-2.42l2.42-4.37c1.45.8,2.91,1.6,4.38,2.38Zm400.84-2.33L620,850.74c1.45-.8,2.89-1.6,4.33-2.42l2.47,4.35C625.31,853.5,623.85,854.31,622.39,855.12Zm-409.67-2.55q-2.19-1.25-4.37-2.52l2.52-4.32,4.32,2.49Zm418.4-2.4-2.52-4.32,4.27-2.53,2.57,4.29ZM204,847.48c-1.44-.86-2.87-1.74-4.3-2.62l2.62-4.26q2.11,1.32,4.26,2.59ZM639.73,845l-2.62-4.26c1.41-.86,2.81-1.74,4.21-2.62l2.67,4.22C642.58,843.24,641.16,844.12,639.73,845Zm-444.3-2.81q-2.13-1.35-4.24-2.73l2.73-4.19c1.39.91,2.79,1.8,4.19,2.69Zm452.79-2.56-2.72-4.19c1.38-.9,2.77-1.81,4.14-2.73l2.78,4.16ZM187,836.69c-1.4-.93-2.79-1.88-4.17-2.82l2.82-4.13q2.06,1.41,4.13,2.79Zm469.6-2.63-2.82-4.13c1.36-.93,2.72-1.88,4.08-2.83l2.87,4.1Q658.66,832.64,656.58,834.06ZM178.67,831c-1.38-1-2.75-1.94-4.11-2.92l2.93-4.06c1.34,1,2.69,1.94,4,2.89Zm486.14-2.7-2.92-4.06,4-2.93,3,4Q666.85,826.82,664.81,828.29ZM170.49,825.1q-2-1.5-4-3l3-4c1.32,1,2.65,2,4,3Zm502.41-2.78-3-4q2-1.5,3.94-3l3.06,4Q674.9,820.81,672.9,822.32ZM162.46,819l-4-3.11,3.12-3.91c1.3,1,2.6,2.06,3.91,3.07Zm518.38-2.85-3.11-3.92c1.29-1,2.59-2.07,3.87-3.11l3.16,3.87Q682.81,814.59,680.84,816.16Zm-526.26-3.42q-2-1.59-3.88-3.21l3.21-3.84c1.27,1.07,2.55,2.12,3.84,3.17Zm534.06-2.93L685.43,806c1.28-1.07,2.54-2.13,3.8-3.21l3.25,3.8C691.21,807.65,689.92,808.73,688.64,809.81Zm-541.78-3.53q-1.92-1.63-3.81-3.3l3.3-3.76q1.88,1.63,3.76,3.26Zm549.42-3L693,799.51q1.88-1.63,3.72-3.3l3.34,3.72C698.8,801.05,697.54,802.17,696.28,803.27Zm-557-3.63-3.72-3.39,3.38-3.68,3.68,3.35Zm564.48-3.09-3.38-3.68q1.83-1.68,3.64-3.38l3.43,3.64Q705.63,794.86,703.77,796.55Zm-571.89-3.73q-1.83-1.73-3.64-3.48l3.47-3.59q1.78,1.72,3.6,3.43Zm579.22-3.16-3.47-3.6,3.56-3.47,3.51,3.56Zm-586.46-3.83-3.56-3.56,3.56-3.52,3.52,3.52Zm593.62-3.24-3.55-3.52,3.48-3.55,3.59,3.47C720.62,780.2,719.44,781.4,718.26,782.59Zm-600.69-3.93c-1.17-1.2-2.32-2.42-3.47-3.64l3.64-3.43c1.13,1.21,2.28,2.41,3.43,3.6Zm607.69-3.31-3.64-3.43q1.71-1.81,3.39-3.64l3.68,3.39Q727,773.52,725.26,775.35Zm-614.59-4q-1.69-1.86-3.38-3.73l3.72-3.33q1.67,1.85,3.34,3.67ZM732.08,768l-3.72-3.35q1.67-1.85,3.31-3.72l3.75,3.3C734.32,765.44,733.2,766.7,732.08,768ZM104,763.85q-1.65-1.89-3.29-3.8l3.8-3.25q1.62,1.89,3.25,3.76Zm634.77-3.47-3.79-3.25q1.62-1.89,3.21-3.8l3.84,3.21Q740.36,758.48,738.72,760.38ZM97.41,756.21q-1.6-1.94-3.2-3.88l3.88-3.16c1,1.29,2.1,2.56,3.16,3.83Zm647.78-3.55-3.88-3.17q1.58-1.92,3.13-3.87l3.91,3.12Q746.77,750.71,745.19,752.66ZM91.06,748.41c-1-1.31-2.08-2.63-3.1-3.95l4-3.07q1.52,2,3.06,3.91Zm660.4-3.63-3.94-3.07,3-4,4,3C753.52,742.12,752.49,743.45,751.46,744.78ZM84.9,740.47c-1-1.34-2-2.68-3-4l4-3c1,1.34,2,2.66,3,4Zm672.65-3.72-4-3q1.49-2,2.94-4l4,2.92Q759.05,734.72,757.55,736.75ZM78.93,732.38q-1.47-2-2.92-4.09l4.09-2.88L83,729.46Zm684.52-3.8-4.09-2.88q1.42-2,2.84-4.09l4.12,2.83Q764.9,726.53,763.45,728.58Zm-690.3-4.42q-1.41-2.07-2.81-4.16l4.16-2.78c.92,1.38,1.84,2.75,2.78,4.11Zm696-3.89L765,717.49c.92-1.38,1.84-2.77,2.74-4.16l4.19,2.73C771,717.47,770.08,718.87,769.15,720.27ZM67.58,715.8c-.92-1.4-1.82-2.81-2.72-4.23l4.23-2.67c.88,1.4,1.78,2.79,2.68,4.18Zm707.07-4-4.22-2.68q1.34-2.1,2.64-4.22l4.25,2.62Q776,709.69,774.65,711.82ZM62.2,707.31q-1.32-2.13-2.61-4.29l4.29-2.57q1.27,2.13,2.58,4.24ZM780,703.24l-4.29-2.58c.86-1.42,1.7-2.85,2.54-4.28l4.32,2.52Q781.24,701.08,780,703.24ZM57,698.7c-.85-1.44-1.68-2.89-2.51-4.35l4.35-2.47c.81,1.44,1.64,2.87,2.47,4.3Zm728-4.17-4.35-2.47q1.23-2.16,2.44-4.35l4.37,2.42Q786.29,692.34,785,694.53ZM52.08,690q-1.21-2.19-2.41-4.41l4.41-2.36q1.17,2.19,2.37,4.36Zm737.84-4.27-4.41-2.37q1.18-2.19,2.34-4.4l4.43,2.31C791.5,682.74,790.71,684.22,789.92,685.7ZM47.33,681.13c-.77-1.48-1.54-3-2.29-4.46l4.46-2.26c.74,1.47,1.5,2.94,2.26,4.41Zm747.26-4.37-4.46-2.26q1.13-2.22,2.22-4.46l4.49,2.2Q795.73,674.51,794.59,676.76ZM42.8,672.18q-1.11-2.25-2.19-4.52l4.52-2.15q1.07,2.24,2.15,4.46ZM799,667.7l-4.52-2.15q1.08-2.25,2.12-4.52l4.54,2.1C800.48,664.66,799.76,666.18,799,667.7ZM38.48,663.12q-1-2.28-2.07-4.57l4.56-2c.68,1.51,1.36,3,2.05,4.51Zm764.79-4.59-4.56-2q1-2.28,2-4.56l4.58,2Q804.31,656.24,803.27,658.53ZM34.39,654c-.67-1.54-1.32-3.07-2-4.62L37,647.42c.64,1.53,1.29,3,1.94,4.56Zm772.89-4.71-4.61-1.93q1-2.3,1.9-4.61l4.63,1.87C808.57,646.16,807.93,647.71,807.28,649.26ZM30.51,644.72q-.95-2.34-1.86-4.68l4.66-1.82q.91,2.32,1.84,4.62Zm780.56-4.82-4.66-1.82c.61-1.55,1.2-3.1,1.79-4.66l4.68,1.76Q812,637.55,811.07,639.9ZM26.85,635.34c-.59-1.57-1.18-3.14-1.75-4.72l4.7-1.71c.57,1.56,1.14,3.12,1.73,4.67Zm787.78-4.9-4.7-1.7c.57-1.56,1.12-3.13,1.67-4.7l4.72,1.64C815.77,627.27,815.2,628.86,814.63,630.44ZM23.41,625.88q-.82-2.37-1.63-4.76l4.74-1.6q.8,2.37,1.61,4.71Zm794.55-5-4.74-1.59q.79-2.37,1.56-4.74l4.76,1.53C819,617.7,818.49,619.31,818,620.9ZM20.21,616.34q-.78-2.4-1.52-4.8l4.77-1.48L25,614.8Zm800.85-5.06-4.78-1.48q.74-2.37,1.44-4.76l4.79,1.42C822,608.07,821.55,609.68,821.06,611.28ZM17.23,606.72c-.48-1.61-.94-3.22-1.4-4.84l4.81-1.36q.67,2.4,1.38,4.78Zm806.68-5.1-4.81-1.36q.67-2.38,1.32-4.79l4.83,1.3C824.81,598.39,824.37,600,823.91,601.62ZM14.49,597q-.66-2.43-1.29-4.87l4.85-1.24c.41,1.6.83,3.21,1.26,4.81Zm812-5.13-4.84-1.24c.41-1.61.81-3.21,1.2-4.83l4.86,1.19C827.35,588.65,827,590.28,826.53,591.9ZM12,587.28q-.6-2.44-1.16-4.9l4.87-1.13c.37,1.62.75,3.23,1.15,4.84Zm816.93-5.16L824,581c.37-1.61.74-3.23,1.09-4.85l4.89,1.07Q829.48,579.67,828.91,582.12ZM9.71,577.47q-.54-2.46-1.05-4.92l4.9-1c.33,1.62.68,3.24,1,4.86Zm821.35-5.19-4.9-1c.34-1.63.66-3.25,1-4.88l4.91,1C831.73,569,831.4,570.64,831.06,572.28ZM7.67,567.61c-.31-1.64-.62-3.29-.92-5l4.92-.89c.29,1.63.6,3.26.91,4.89ZM833,562.4l-4.92-.89c.29-1.63.58-3.26.85-4.9l4.93.83C833.55,559.1,833.27,560.75,833,562.4ZM5.88,557.71c-.28-1.66-.55-3.31-.81-5L10,552c.26,1.64.52,3.28.8,4.91Zm828.76-5.24-4.94-.77c.25-1.64.5-3.28.73-4.92l5,.71C835.14,549.15,834.9,550.81,834.64,552.47ZM4.32,547.76c-.24-1.66-.47-3.32-.69-5l5-.65c.22,1.65.44,3.29.68,4.93Zm831.75-5.25-5-.66c.22-1.64.42-3.28.62-4.93l5,.59C836.5,539.18,836.29,540.84,836.07,542.51ZM3,537.78c-.19-1.67-.38-3.33-.56-5l5-.54c.17,1.65.36,3.3.56,4.94Zm834.26-5.27-5-.53c.17-1.65.34-3.3.5-5l5,.47Q837.53,530,837.26,532.51ZM1.93,527.77q-.24-2.5-.45-5l5-.42c.14,1.66.29,3.31.44,4.95Zm836.28-5.28-5-.42c.14-1.65.26-3.3.38-5l5,.36C838.48,519.14,838.35,520.82,838.21,522.49ZM1.09,517.74c-.12-1.67-.23-3.35-.33-5l5-.3c.1,1.65.21,3.31.32,5Zm837.84-5.3-5-.29c.1-1.65.19-3.31.27-5l5,.24C839.11,509.1,839,510.77,838.93,512.44ZM.49,507.69c-.08-1.67-.15-3.35-.21-5l5-.18c.06,1.66.13,3.32.21,5Zm838.91-5.3-5-.18c.06-1.65.11-3.31.15-5l5,.12C839.51,499,839.46,500.72,839.4,502.39ZM.13,497.64c0-1.67-.08-3.35-.1-5l5-.07c0,1.66,0,3.32.09,5Zm839.51-5.31-5-.06q0-2.49,0-5v-.57h5v.56C839.67,489,839.66,490.65,839.64,492.33ZM5,487.58H0v-.29q0-2.37,0-4.74l5,.06q0,2.34,0,4.68Zm829.63-5.83c0-1.65,0-3.31-.09-5l5-.13c0,1.67.07,3.35.09,5ZM5.11,477.63l-5-.11c0-1.68.09-3.36.15-5l5,.17C5.2,474.32,5.15,476,5.11,477.63Zm829.27-5.8c-.06-1.66-.13-3.32-.21-5l5-.25q.12,2.52.21,5ZM5.46,467.69l-5-.23c.08-1.68.17-3.36.26-5l5,.29C5.62,464.38,5.53,466,5.46,467.69Zm828.44-5.8c-.1-1.66-.21-3.31-.33-5l5-.36c.12,1.67.23,3.34.33,5ZM6,457.76l-5-.35c.12-1.68.24-3.35.38-5l5,.41C6.28,454.45,6.15,456.1,6,457.76ZM833.18,452c-.13-1.66-.28-3.31-.44-5l5-.48c.17,1.67.32,3.34.46,5ZM6.85,447.85l-5-.48c.16-1.67.33-3.34.51-5l5,.52C7.17,444.54,7,446.19,6.85,447.85Zm825.38-5.78c-.18-1.65-.37-3.3-.57-4.94l5-.6c.2,1.66.39,3.33.57,5ZM7.9,438l-5-.59c.2-1.66.4-3.33.62-5l5,.65C8.3,434.66,8.1,436.3,7.9,438ZM831,432.19c-.22-1.65-.45-3.29-.68-4.93l4.94-.71c.24,1.66.48,3.32.7,5ZM9.19,428.09l-4.95-.71q.36-2.49.75-5l4.94.77C9.67,424.81,9.43,426.45,9.19,428.09Zm820.42-5.74c-.26-1.64-.52-3.28-.8-4.91l4.93-.84c.28,1.65.55,3.31.81,5ZM10.72,418.26l-4.93-.83c.27-1.65.56-3.31.86-5l4.92.89C11.27,415,11,416.62,10.72,418.26ZM828,412.54c-.3-1.63-.6-3.26-.92-4.89l4.91-.95c.32,1.64.63,3.29.93,4.94ZM12.48,408.47l-4.91-.94c.32-1.65.64-3.3,1-4.94l4.9,1C13.12,405.21,12.79,406.84,12.48,408.47Zm813.57-5.69c-.34-1.63-.68-3.25-1-4.87l4.89-1.07q.54,2.46,1.05,4.92Zm-811.57-4-4.89-1.07c.36-1.64.72-3.28,1.1-4.91l4.87,1.12C15.19,395.49,14.83,397.1,14.48,398.73Zm809.44-5.67c-.38-1.62-.76-3.23-1.16-4.84l4.86-1.19q.6,2.45,1.17,4.9ZM16.71,389l-4.86-1.18q.59-2.44,1.22-4.88l4.84,1.24Q17.3,386.61,16.71,389Zm804.84-5.63c-.41-1.61-.84-3.21-1.27-4.81l4.83-1.31q.64,2.43,1.28,4.87Zm-802.38-4-4.83-1.29c.44-1.62.88-3.24,1.34-4.86l4.81,1.36Q19.81,377,19.17,379.39ZM819,373.8q-.68-2.4-1.39-4.78l4.8-1.42q.71,2.41,1.4,4.83Zm-797.08-4-4.8-1.41c.48-1.61,1-3.22,1.46-4.82l4.77,1.47C22.81,366.64,22.34,368.23,21.87,369.82Zm794.25-5.56q-.74-2.37-1.5-4.74l4.76-1.54q.76,2.4,1.52,4.8Zm-791.32-4L20,358.76c.52-1.6,1-3.2,1.58-4.8l4.74,1.59Q25.57,357.92,24.8,360.29Zm788.26-5.49q-.79-2.35-1.62-4.71l4.72-1.65q.83,2.37,1.64,4.76ZM28,350.82l-4.72-1.64c.55-1.59,1.12-3.18,1.69-4.76l4.7,1.7Q28.8,348.46,28,350.82Zm781.8-5.41c-.57-1.56-1.14-3.11-1.73-4.66l4.68-1.77q.88,2.36,1.75,4.72Zm-778.4-4-4.68-1.75c.59-1.58,1.19-3.16,1.8-4.72l4.66,1.81C32.55,338.32,32,339.88,31.37,341.43Zm774.88-5.33q-.9-2.31-1.84-4.62l4.64-1.88q.94,2.34,1.86,4.68ZM35,332.13l-4.63-1.87q.95-2.34,1.91-4.67l4.62,1.93Q35.93,329.82,35,332.13Zm767.53-5.22q-.94-2.3-1.94-4.56l4.59-2q1,2.29,2,4.61Zm-763.68-4-4.59-2c.67-1.54,1.34-3.09,2-4.62l4.56,2C40.17,319.87,39.5,321.4,38.84,322.92Zm759.74-5.1c-.67-1.51-1.36-3-2.05-4.51l4.54-2.1q1,2.28,2.07,4.56Zm-755.68-4-4.54-2.09q1.06-2.3,2.14-4.57L45,309.3C44.3,310.8,43.6,312.3,42.9,313.81Zm751.52-5q-1.06-2.24-2.16-4.46l4.49-2.2q1.1,2.25,2.18,4.51Zm-747.23-4-4.49-2.2q1.11-2.26,2.25-4.52l4.46,2.26C48.66,301.83,47.92,303.31,47.19,304.81ZM790,299.93c-.74-1.47-1.5-2.94-2.26-4.41l4.43-2.31c.77,1.48,1.54,3,2.29,4.46Zm-738.35-4-4.43-2.31c.77-1.49,1.56-3,2.35-4.46L54,291.5C53.23,293,52.46,294.44,51.69,295.91Zm733.76-4.77q-1.17-2.19-2.37-4.35l4.37-2.42q1.21,2.19,2.41,4.4Zm-729.05-4L52,284.71q1.23-2.2,2.47-4.4l4.34,2.47Q57.6,284.94,56.4,287.12Zm724.25-4.66c-.82-1.44-1.64-2.87-2.48-4.3l4.32-2.52q1.26,2.16,2.51,4.35Zm-719.33-4L57,275.94c.85-1.46,1.71-2.9,2.57-4.34l4.29,2.57C63,275.59,62.16,277,61.32,278.46Zm714.32-4.56c-.85-1.42-1.71-2.84-2.58-4.24l4.25-2.63c.88,1.42,1.76,2.85,2.62,4.29Zm-709.19-4-4.26-2.62q1.32-2.15,2.67-4.28l4.23,2.68Q67.76,267.79,66.45,269.91Zm704-4.46q-1.33-2.1-2.68-4.17l4.19-2.73q1.37,2.1,2.71,4.22ZM71.78,261.5l-4.19-2.73c.91-1.41,1.84-2.81,2.77-4.21l4.16,2.78C73.6,258.72,72.68,260.1,71.78,261.5ZM765,257.13c-.92-1.38-1.84-2.75-2.78-4.11l4.12-2.83q1.42,2.07,2.82,4.16Zm-687.7-3.92-4.13-2.82q1.42-2.08,2.87-4.15l4.1,2.88C79.19,250.48,78.25,251.84,77.31,253.21Zm682.09-4.27q-1.42-2-2.88-4l4.05-2.93q1.47,2,2.92,4.09ZM83,245.06,79,242.14l3-4.07,4,3Q84.49,243,83,245.06Zm670.56-4.17q-1.49-2-3-4l4-3,3,4ZM89,237.05l-4-3c1-1.33,2-2.67,3.07-4l4,3.06Q90.45,235.07,89,237.05ZM747.59,233q-1.53-2-3.07-3.9l3.91-3.12q1.56,2,3.11,4ZM95.05,229.19l-3.91-3.11c1-1.32,2.1-2.62,3.16-3.93l3.87,3.17Q96.61,227.24,95.05,229.19Zm646.35-4q-1.57-1.92-3.17-3.83l3.84-3.21q1.6,1.93,3.2,3.88Zm-640.06-3.72-3.83-3.21c1.07-1.29,2.16-2.57,3.25-3.84l3.8,3.25C103.48,218.94,102.41,220.2,101.34,221.48ZM735,217.57c-1.07-1.25-2.16-2.51-3.25-3.75l3.76-3.3q1.65,1.89,3.29,3.8Zm-627.21-3.65-3.76-3.3c1.11-1.26,2.22-2.52,3.35-3.77l3.72,3.35Q109.46,212,107.81,213.92Zm620.66-3.82c-1.11-1.23-2.22-2.45-3.35-3.67L728.8,203c1.14,1.23,2.26,2.47,3.39,3.72Zm-614-3.58-3.68-3.39q1.71-1.84,3.43-3.68l3.64,3.43Q116.14,204.68,114.46,206.52Zm607.27-3.73c-1.13-1.21-2.28-2.41-3.43-3.6l3.6-3.47c1.17,1.2,2.32,2.42,3.47,3.64Zm-600.45-3.52-3.6-3.47,3.52-3.6,3.56,3.52Q123,197.49,121.28,199.27Zm593.55-3.63c-1.17-1.18-2.34-2.36-3.52-3.52l3.51-3.56c1.2,1.18,2.38,2.37,3.56,3.56ZM128.28,192.2l-3.52-3.56c1.19-1.17,2.39-2.35,3.6-3.51l3.47,3.6C130.64,189.88,129.45,191,128.28,192.2Zm579.47-3.55q-1.79-1.72-3.6-3.44l3.43-3.63c1.22,1.15,2.43,2.3,3.64,3.47ZM135.43,185.3,132,181.66c1.22-1.15,2.45-2.3,3.68-3.43l3.39,3.68Q137.24,183.59,135.43,185.3Zm565.08-3.47-3.68-3.35,3.34-3.72q1.88,1.68,3.72,3.39Zm-557.76-3.26-3.34-3.72c1.24-1.12,2.5-2.24,3.76-3.34l3.29,3.76Q144.6,176.91,142.75,178.57Zm550.35-3.39c-1.24-1.09-2.5-2.18-3.76-3.26l3.25-3.79c1.28,1.09,2.55,2.18,3.81,3.29ZM150.22,172l-3.25-3.8q1.91-1.64,3.84-3.24l3.2,3.83Zm535.32-3.3c-1.27-1.06-2.55-2.12-3.84-3.16l3.16-3.88,3.89,3.2Zm-527.69-3.07-3.16-3.87c1.3-1.06,2.6-2.12,3.91-3.16l3.12,3.91C160.42,163.56,159.13,164.59,157.85,165.64Zm520-3.21c-1.3-1-2.61-2.06-3.92-3.08L677,155.4c1.32,1,2.65,2.07,4,3.11Zm-512.21-3-3.07-3.95,4-3.06,3,4Q167.58,157.93,165.62,159.45ZM670,156.32q-2-1.5-4-3l3-4c1.35,1,2.69,2,4,3Zm-496.42-2.87-3-4q2-1.49,4.06-3l2.92,4.06Q175.54,152,173.54,153.45Zm488.41-3c-1.34-1-2.7-1.93-4.06-2.89l2.88-4.09q2.06,1.45,4.1,2.92ZM181.6,147.65l-2.88-4.09c1.37-1,2.75-1.92,4.13-2.87l2.83,4.13C184.31,145.75,183,146.7,181.6,147.65Zm472.2-3q-2.06-1.41-4.13-2.79l2.78-4.16q2.1,1.39,4.17,2.82Zm-464-2.65L187,137.88q2.09-1.4,4.2-2.77l2.72,4.19Q191.84,140.67,189.79,142Zm455.72-2.88-4.19-2.69,2.67-4.22c1.42.9,2.84,1.8,4.25,2.72Zm-447.4-2.54-2.68-4.22c1.42-.9,2.84-1.78,4.26-2.66l2.63,4.25Q200.21,135.3,198.11,136.62Zm439-2.79q-2.12-1.31-4.25-2.58l2.57-4.29c1.44.86,2.88,1.74,4.31,2.62Zm-430.53-2.42L204,127.13q2.16-1.3,4.32-2.56l2.52,4.31C209.4,129.72,208,130.56,206.56,131.41Zm422-2.7c-1.44-.84-2.88-1.66-4.32-2.48l2.47-4.35,4.37,2.51Zm-413.43-2.3-2.47-4.35q2.17-1.25,4.38-2.46l2.42,4.38Q217.28,125.18,215.12,126.41Zm404.76-2.62-4.38-2.38,2.36-4.4q2.22,1.18,4.43,2.41ZM223.8,121.61l-2.36-4.41q2.2-1.19,4.43-2.34l2.31,4.43C226.72,120.05,225.26,120.83,223.8,121.61Zm387.29-2.53-4.43-2.27,2.25-4.46c1.5.76,3,1.52,4.49,2.3ZM232.59,117l-2.26-4.46c1.49-.76,3-1.5,4.49-2.24l2.21,4.49C235.54,115.54,234.07,116.27,232.59,117Zm369.6-2.43c-1.49-.73-3-1.46-4.49-2.17l2.15-4.52,4.54,2.2Zm-360.7-1.94-2.15-4.52c1.5-.72,3-1.43,4.54-2.13l2.09,4.54C244.47,111.23,243,111.94,241.49,112.65Zm351.69-2.34q-2.26-1.05-4.54-2.06l2-4.57,4.6,2.08Zm-342.7-1.82-2-4.57,4.59-2,2,4.59C253.5,107.15,252,107.81,250.48,108.49Zm333.6-2.25q-2.3-1-4.6-1.95l1.93-4.61,4.65,2Zm-324.51-1.69-1.93-4.61c1.54-.65,3.09-1.28,4.64-1.91l1.87,4.63C262.62,103.28,261.1,103.91,259.57,104.55Zm315.29-2.15-4.64-1.84L572,95.9q2.36.91,4.69,1.86Zm-306.09-1.58L267,96.17q2.34-.93,4.7-1.81L273.42,99C271.87,99.62,270.32,100.22,268.77,100.82Zm296.79-2c-1.56-.59-3.12-1.16-4.68-1.73l1.7-4.7c1.58.57,3.17,1.16,4.74,1.75ZM278.08,97.31l-1.71-4.7c1.58-.57,3.16-1.14,4.74-1.69l1.66,4.72C281.2,96.19,279.64,96.74,278.08,97.31Zm278.09-1.93-4.72-1.61L553,89l4.79,1.63ZM287.47,94l-1.59-4.73c1.58-.54,3.18-1.07,4.78-1.58l1.53,4.76Zm259.23-1.8q-2.37-.77-4.76-1.5l1.46-4.78c1.62.5,3.23,1,4.83,1.52ZM296.94,91l-1.48-4.78c1.6-.5,3.2-1,4.81-1.46l1.43,4.79Zm240.23-1.68q-2.38-.71-4.78-1.38l1.36-4.81c1.61.45,3.22.92,4.83,1.39Zm-230.7-1.15-1.36-4.81q2.42-.69,4.85-1.35l1.31,4.83C309.66,87.24,308.07,87.69,306.47,88.14ZM527.6,86.59c-1.6-.43-3.21-.84-4.82-1.26L524,80.49c1.63.42,3.25.84,4.87,1.28Zm-211.53-1-1.24-4.84q2.43-.63,4.88-1.23l1.19,4.86ZM518,84.13c-1.61-.39-3.22-.77-4.84-1.14l1.12-4.87c1.63.37,3.27.76,4.9,1.15Zm-192.22-.95-1.13-4.87q2.44-.57,4.91-1.11l1.07,4.88C329,82.44,327.35,82.8,325.74,83.18Zm182.52-1.27c-1.62-.36-3.24-.7-4.86-1l1-4.9c1.64.34,3.29.68,4.92,1Zm-172.81-.86-1-4.9c1.64-.34,3.29-.67,4.94-1l.95,4.91C338.7,80.39,337.07,80.71,335.45,81.05Zm163.07-1.14L493.63,79l.88-4.92,4.95.92Zm-153.3-.76-.9-4.92c1.65-.3,3.31-.59,5-.87l.84,4.93Zm143.51-1-4.91-.79.76-4.94,5,.8ZM355,77.49l-.78-4.94,5-.75.71,5Zm123.87-.86c-1.64-.23-3.28-.46-4.93-.67l.65-5,5,.68Zm-114-.56-.66-5c1.67-.22,3.33-.43,5-.63l.59,5C368.16,75.64,366.51,75.85,364.87,76.07ZM469,75.35c-1.64-.2-3.29-.38-4.94-.56l.53-5,5,.56Zm-94.28-.47-.54-5q2.49-.27,5-.51l.47,5C378,74.54,376.39,74.7,374.75,74.88Zm84.39-.58c-1.65-.16-3.3-.3-4.95-.44l.4-5c1.68.14,3.35.28,5,.44Zm-74.49-.37-.42-5c1.67-.14,3.34-.27,5-.39l.36,5C388,73.66,386.3,73.79,384.65,73.93Zm64.58-.44c-1.66-.12-3.31-.23-5-.32l.29-5c1.68.09,3.35.2,5,.32Zm-54.66-.27-.3-5c1.67-.1,3.35-.2,5-.28l.24,5C397.88,73,396.22,73.12,394.57,73.22Zm44.72-.31c-1.65-.08-3.3-.14-5-.2l.17-5,5,.2Zm-34.78-.17-.18-5q2.51-.09,5-.15l.12,5Q407,72.65,404.51,72.74Zm24.84-.17c-1.65,0-3.31-.07-5-.09l.05-5q2.52,0,5,.09Zm-14.92-.07-.06-5c1.67,0,3.35,0,5,0v5C417.75,72.46,416.09,72.47,414.43,72.5Z"/><path class="cls-3" d="M419.56,422.37V0A487,487,0,0,0,74.89,142.76L373.78,441.65A65.68,65.68,0,0,1,419.56,422.37Z"/><path class="cls-4" d="M106,676.09a367.33,367.33,0,0,0,187.5,154.74L419.56,487Z"/><circle class="cls-5" cx="419.97" cy="477.67" r="67.93"/><path class="cls-1" d="M417.35,641.49c-1.69,0-3.41-.08-5.1-.16l.24-5c1.64.08,3.3.13,4.93.16Zm5.09,0-.08-5c1.64,0,3.29-.08,4.93-.16l.25,5C425.85,641.41,424.13,641.46,422.44,641.49ZM407.17,641c-1.69-.14-3.4-.3-5.08-.5l.57-5c1.63.18,3.28.35,4.91.48Zm25.46,0-.41-5c1.62-.14,3.28-.3,4.91-.49l.57,5C436,640.68,434.31,640.85,432.63,641ZM397,639.84c-1.68-.25-3.37-.53-5-.83l.9-4.92c1.61.29,3.25.56,4.87.8Zm45.71,0-.73-4.94c1.62-.24,3.25-.52,4.86-.81l.9,4.92C446.12,639.29,444.43,639.57,442.75,639.82ZM387,638c-1.66-.36-3.33-.75-5-1.16l1.22-4.85c1.58.4,3.2.78,4.8,1.13Zm65.78,0-1.06-4.89c1.6-.35,3.21-.73,4.8-1.13l1.23,4.85C456.11,637.23,454.43,637.63,452.78,638Zm-75.66-2.47c-1.62-.46-3.26-1-4.88-1.49l1.54-4.76c1.57.51,3.15,1,4.72,1.45Zm85.55,0-1.39-4.81c1.58-.45,3.17-.94,4.72-1.44l1.55,4.75C465.94,634.51,464.3,635,462.67,635.49Zm-95.27-3.12c-1.61-.58-3.21-1.19-4.78-1.82l1.86-4.64c1.51.61,3.07,1.2,4.62,1.76Zm105,0-1.7-4.7c1.54-.55,3.09-1.15,4.6-1.75l1.86,4.64C475.56,631.15,474,631.76,472.37,632.33Zm-114.46-3.75c-1.56-.69-3.12-1.4-4.65-2.13l2.16-4.51c1.48.7,3,1.4,4.5,2.06Zm123.91,0-2-4.58c1.5-.66,3-1.35,4.47-2.05l2.16,4.51C484.92,627.16,483.37,627.87,481.82,628.55Zm-133.13-4.39c-1.51-.78-3-1.6-4.49-2.43l2.46-4.36c1.42.8,2.88,1.6,4.34,2.36Zm142.3,0-2.31-4.43c1.45-.76,2.9-1.54,4.33-2.35l2.45,4.36C494,622.56,492.49,623.37,491,624.15Zm8.87-5-2.6-4.27c1.39-.85,2.79-1.73,4.16-2.63l2.74,4.19C502.75,617.36,501.3,618.28,499.86,619.15Zm-160.06,0c-1.46-.89-2.91-1.81-4.32-2.73l2.74-4.18c1.36.89,2.76,1.78,4.17,2.63Zm168.58-5.57-2.88-4.09c1.34-.94,2.68-1.91,4-2.9l3,4C511.14,611.6,509.75,612.61,508.38,613.58Zm-177.13,0c-1.39-1-2.78-2-4.12-3l3-4c1.3,1,2.64,2,4,2.9Zm185.26-6.1-3.13-3.89c1.27-1,2.55-2.09,3.79-3.16l3.26,3.79C519.15,605.29,517.83,606.39,516.51,607.45Zm-193.41,0c-1.32-1.07-2.64-2.17-3.91-3.27l3.26-3.79c1.24,1.07,2.51,2.13,3.79,3.16Zm201.14-6.62-3.39-3.67c1.21-1.12,2.41-2.26,3.57-3.4l3.51,3.56C526.73,598.47,525.48,599.65,524.24,600.8Zm-208.86,0c-1.24-1.14-2.48-2.33-3.69-3.52l3.5-3.56c1.18,1.15,2.38,2.3,3.58,3.4Zm216.13-7.1-3.62-3.45c1.13-1.2,2.26-2.42,3.34-3.63l3.73,3.33C533.84,591.16,532.68,592.42,531.51,593.66Zm-223.4,0c-1.17-1.24-2.34-2.5-3.45-3.75l3.73-3.33c1.08,1.21,2.2,2.43,3.34,3.63Zm230.18-7.56-3.83-3.21c1-1.25,2.08-2.54,3.1-3.84l3.94,3.08C540.45,583.42,539.37,584.75,538.29,586.05Zm-237,0c-1.08-1.3-2.16-2.64-3.2-4l3.95-3.07c1,1.29,2,2.58,3.09,3.84Zm243.24-8-4-2.94c1-1.32,1.91-2.68,2.84-4l4.13,2.81C546.55,575.24,545.56,576.64,544.57,578Zm-249.5,0c-1-1.37-2-2.78-2.93-4.16l4.14-2.81c.91,1.34,1.86,2.7,2.83,4Zm255.23-8.4-4.22-2.67c.88-1.4,1.74-2.82,2.56-4.22L553,565.2C552.11,566.65,551.21,568.12,550.3,569.56Zm-260.95,0c-.91-1.44-1.8-2.9-2.65-4.35l4.32-2.53c.82,1.41,1.68,2.82,2.56,4.21Zm-5.15-8.78c-.81-1.49-1.6-3-2.35-4.51l4.47-2.24c.73,1.46,1.5,2.93,2.28,4.36Zm271.27,0-4.4-2.38c.79-1.44,1.55-2.92,2.29-4.39l4.47,2.24C557.07,557.74,556.28,559.26,555.47,560.75Zm-275.82-9.09c-.71-1.54-1.4-3.11-2-4.65l4.61-1.94c.63,1.5,1.29,3,2,4.5Zm280.39,0-4.54-2.08c.69-1.5,1.36-3,2-4.53l4.61,1.94C561.45,548.49,560.75,550.06,560,551.61Zm-284.33-9.32c-.61-1.59-1.19-3.2-1.74-4.79l4.73-1.63c.53,1.54,1.09,3.1,1.68,4.64Zm288.29-.1-4.67-1.78c.58-1.55,1.15-3.11,1.68-4.65l4.73,1.62C565.19,539,564.61,540.59,564,542.19Zm-291.61-9.54c-.5-1.62-1-3.27-1.42-4.9l4.83-1.31c.43,1.58.89,3.17,1.37,4.74Zm294.93-.14-4.78-1.46c.47-1.56.93-3.15,1.36-4.74l4.83,1.3C568.29,529.25,567.81,530.9,567.32,532.51Zm-297.6-9.7c-.38-1.63-.75-3.31-1.09-5l4.91-1c.32,1.62.68,3.24,1,4.82ZM570,522.67l-4.87-1.14c.37-1.6.73-3.22,1-4.82l4.9,1C570.73,519.34,570.36,521,570,522.67Zm-302.27-9.86c-.27-1.65-.52-3.35-.75-5l5-.66c.21,1.64.46,3.28.73,4.88ZM572,512.67l-4.93-.82c.27-1.61.51-3.25.73-4.88l5,.66C572.5,509.31,572.25,511,572,512.67Zm-305.6-10c-.16-1.66-.3-3.37-.42-5.08l5-.33c.11,1.65.25,3.31.41,4.92Zm306.94-.14-5-.49c.16-1.64.3-3.3.4-4.91l5,.32C573.61,499.15,573.47,500.86,573.31,502.56Zm-307.61-10c-.06-1.66-.09-3.38-.09-5.09h5c0,1.66,0,3.32.09,4.93ZM574,492.39l-5-.16c.06-1.63.08-3.29.08-4.94V487h5v.25C574.05,489,574,490.71,574,492.39ZM270.69,482.5l-5-.16c.05-1.71.14-3.42.25-5.1l5,.33C270.82,479.19,270.74,480.84,270.69,482.5ZM569,482.09c-.06-1.63-.14-3.29-.25-4.93l5-.33c.12,1.69.2,3.4.26,5.09Zm-297.65-9.44-5-.48c.16-1.69.35-3.4.57-5.07l5,.65C271.67,469.37,271.48,471,271.32,472.65Zm297-.4c-.16-1.63-.35-3.28-.57-4.9l5-.67c.22,1.68.42,3.39.59,5.07Zm-295.7-9.38-4.93-.81c.28-1.69.58-3.38.91-5l4.9,1C273.17,459.61,272.87,461.24,272.6,462.87Zm294.4-.4c-.27-1.62-.57-3.25-.9-4.85l4.9-1c.34,1.66.65,3.35.93,5Zm-292.47-9.28-4.87-1.14c.38-1.64.8-3.3,1.24-4.94l4.83,1.3C275.3,450,274.9,451.61,274.53,453.19Zm290.52-.39c-.38-1.61-.79-3.22-1.22-4.78l4.83-1.32c.44,1.62.86,3.28,1.25,4.94Zm-288-9.13-4.78-1.46c.49-1.62,1-3.26,1.57-4.87l4.73,1.62C278.08,440.52,277.57,442.1,277.09,443.67Zm285.37-.39c-.48-1.56-1-3.14-1.53-4.69l4.72-1.63c.56,1.6,1.09,3.24,1.59,4.85Zm-282.17-9-4.67-1.78c.6-1.57,1.23-3.17,1.89-4.75l4.62,1.93C281.49,431.24,280.87,432.78,280.29,434.31Zm279-.36c-.58-1.51-1.2-3-1.83-4.56l4.6-1.94c.66,1.57,1.3,3.16,1.9,4.72Zm-275.13-8.77-4.54-2.08c.7-1.54,1.45-3.09,2.2-4.61l4.48,2.23C285.51,422.19,284.8,423.69,284.11,425.18Zm271.31-.29c-.68-1.47-1.4-3-2.13-4.43l4.46-2.24c.77,1.52,1.51,3.06,2.21,4.58Zm-266.89-8.55-4.4-2.38c.8-1.48,1.64-3,2.51-4.45L291,412C290.12,413.46,289.3,414.91,288.53,416.34ZM551,416.1c-.78-1.44-1.59-2.88-2.42-4.29l4.31-2.53c.86,1.45,1.7,2.94,2.51,4.43Zm-257.48-8.29-4.23-2.66c.91-1.44,1.85-2.88,2.79-4.28l4.14,2.81C295.31,405,294.4,406.42,293.52,407.81Zm252.5-.2c-.88-1.39-1.79-2.77-2.71-4.12l4.14-2.82c.95,1.4,1.89,2.83,2.79,4.26Zm-247-8L295,396.7c1-1.36,2-2.73,3.07-4.08l3.95,3.07C301,397,300,398.32,299.06,399.64Zm241.42-.18c-1-1.32-2-2.64-3-3.94l3.94-3.07c1,1.33,2.07,2.7,3.07,4.06Zm-235.35-7.61-3.85-3.2c1.08-1.3,2.2-2.6,3.33-3.87l3.74,3.33C307.25,389.33,306.17,390.59,305.13,391.85Zm229.28-.16c-1-1.25-2.13-2.51-3.23-3.73l3.74-3.33c1.13,1.26,2.25,2.56,3.33,3.85Zm-222.72-7.21L308.07,381c1.17-1.23,2.37-2.45,3.57-3.64l3.51,3.57C314,382.1,312.82,383.28,311.69,384.48Zm216.15-.15c-1.13-1.18-2.29-2.36-3.46-3.51l3.5-3.57c1.21,1.19,2.41,2.41,3.58,3.63Zm-209.12-6.78-3.39-3.67c1.25-1.15,2.53-2.3,3.8-3.39l3.27,3.78C321.17,375.33,319.93,376.44,318.72,377.55Zm202.08-.13c-1.2-1.1-2.44-2.21-3.69-3.28l3.26-3.79c1.29,1.11,2.58,2.25,3.81,3.39Zm-194.62-6.31L323,367.22c1.31-1.06,2.67-2.11,4-3.13l3,4C328.76,369.07,327.45,370.09,326.18,371.11ZM513.32,371c-1.28-1-2.59-2-3.9-3l3-4c1.35,1,2.71,2.08,4,3.14Zm-179.27-5.8-2.87-4.09c1.37-1,2.78-1.93,4.21-2.86l2.74,4.18C336.75,363.31,335.38,364.24,334.05,365.18Zm171.38-.13c-1.35-.95-2.72-1.88-4.09-2.77l2.73-4.19c1.42.93,2.84,1.89,4.23,2.86Zm-163.14-5.27-2.6-4.27c1.45-.88,2.92-1.75,4.39-2.58l2.46,4.35C345.12,358.09,343.69,358.92,342.29,359.78Zm154.87-.14c-1.41-.85-2.84-1.69-4.27-2.49l2.45-4.36c1.48.83,3,1.7,4.41,2.58Zm-146.29-4.71-2.32-4.43c1.5-.78,3-1.55,4.55-2.28l2.17,4.51C353.79,353.43,352.31,354.18,350.87,354.93Zm137.67-.13c-1.45-.76-2.94-1.5-4.42-2.21l2.16-4.51c1.53.73,3.06,1.5,4.57,2.28Zm-128.81-4.13-2-4.58c1.55-.68,3.12-1.34,4.68-2l1.87,4.64C362.76,349.37,361.23,350,359.73,350.67Zm119.9-.13c-1.51-.66-3-1.31-4.57-1.91l1.86-4.65c1.57.63,3.16,1.29,4.71,2ZM368.88,347l-1.71-4.7c1.59-.58,3.22-1.14,4.82-1.66l1.55,4.75C372,345.9,370.42,346.44,368.88,347Zm101.56-.13c-1.55-.56-3.12-1.09-4.68-1.6l1.53-4.76c1.62.53,3.25,1.08,4.84,1.66Zm-92.19-2.93-1.39-4.8c1.64-.47,3.29-.92,4.93-1.34l1.22,4.85C381.44,343.05,379.83,343.48,378.25,343.94Zm82.79-.11c-1.57-.45-3.18-.88-4.77-1.28l1.22-4.85c1.64.42,3.3.86,4.93,1.33Zm-73.23-2.31-1.06-4.89c1.65-.36,3.33-.7,5-1l.9,4.91C391,340.84,389.41,341.17,387.81,341.52Zm63.66-.09c-1.59-.34-3.22-.66-4.84-1l.9-4.92c1.67.31,3.35.64,5,1Zm-54-1.7-.74-4.94c1.68-.26,3.38-.48,5.06-.68l.58,5C400.78,339.27,399.13,339.49,397.51,339.73Zm44.26-.06c-1.62-.23-3.27-.45-4.9-.63l.57-5c1.68.19,3.38.41,5.05.66Zm-34.46-1.08-.41-5c1.69-.14,3.4-.26,5.09-.34l.25,5C410.61,338.35,409,338.46,407.31,338.59Zm24.65,0c-1.63-.13-3.29-.24-4.92-.32l.24-5c1.68.08,3.39.19,5.08.32Zm-14.79-.46-.09-5c1.7,0,3.41,0,5.1,0l-.07,5C420.47,338.07,418.82,338.07,417.17,338.1Z"/><path class="cls-1" d="M642,464.58v-.05H627.87v-2.15h16.51v2.24l-11.62,23.13h-2.53Z"/><path class="cls-1" d="M651.28,486.55a10,10,0,0,1-3.15-4.52,19.78,19.78,0,0,1-1.1-6.94v0a19.84,19.84,0,0,1,1.1-7,10,10,0,0,1,3.15-4.52,8.39,8.39,0,0,1,9.83,0,10,10,0,0,1,3.16,4.53,19.83,19.83,0,0,1,1.09,6.94v0a19.91,19.91,0,0,1-1.09,7,10,10,0,0,1-3.16,4.51,7.8,7.8,0,0,1-4.92,1.59A7.7,7.7,0,0,1,651.28,486.55Zm8.56-1.84a8.47,8.47,0,0,0,2.33-3.8,19,19,0,0,0,.8-5.82v0a19,19,0,0,0-.8-5.83,8.45,8.45,0,0,0-2.33-3.78,5.63,5.63,0,0,0-7.29,0,8.32,8.32,0,0,0-2.31,3.79,19,19,0,0,0-.8,5.82v0a19,19,0,0,0,.8,5.82,8.36,8.36,0,0,0,2.31,3.8,5.66,5.66,0,0,0,7.29,0Z"/><path class="cls-1" d="M669.79,472.89a7.11,7.11,0,0,1-1.3-4.51v0a7.11,7.11,0,0,1,1.3-4.52,4.63,4.63,0,0,1,7.09,0,7.23,7.23,0,0,1,1.28,4.52v0a7.24,7.24,0,0,1-1.28,4.51,4.62,4.62,0,0,1-7.09,0Zm5.72-1.17a6.23,6.23,0,0,0,.77-3.34v0a6.18,6.18,0,0,0-.77-3.34,2.59,2.59,0,0,0-4.36,0,6.08,6.08,0,0,0-.78,3.33v0a6.14,6.14,0,0,0,.78,3.34,2.57,2.57,0,0,0,4.36,0Zm-3.85,16,16.26-25.37h2.18l-16.25,25.37Zm13.2-1.48a7.19,7.19,0,0,1-1.28-4.51v0a7.12,7.12,0,0,1,1.28-4.5,4.62,4.62,0,0,1,7.08,0,7.12,7.12,0,0,1,1.29,4.5v0a7.19,7.19,0,0,1-1.29,4.52,4.22,4.22,0,0,1-3.55,1.66A4.18,4.18,0,0,1,684.86,486.27Zm5.72-1.17a6.08,6.08,0,0,0,.78-3.33v0a6.08,6.08,0,0,0-.78-3.33,2.56,2.56,0,0,0-4.36,0,6.06,6.06,0,0,0-.78,3.32v0a6.08,6.08,0,0,0,.78,3.33,2.57,2.57,0,0,0,4.36,0Z"/><path class="cls-1" d="M627.74,507.75h-8.39v-2.17h19.16v2.17h-8.38V531h-2.39Z"/><path class="cls-1" d="M638.74,530.61a5.18,5.18,0,0,1-2.13-1.9,5.23,5.23,0,0,1-.77-2.82v0a4.48,4.48,0,0,1,1.71-3.7,8.44,8.44,0,0,1,4.85-1.55l6.85-.44V522l-6.57.44a6.12,6.12,0,0,0-3.31,1,2.85,2.85,0,0,0-1.17,2.4v0a2.92,2.92,0,0,0,1.16,2.43,4.63,4.63,0,0,0,3,.92,6.18,6.18,0,0,0,2.91-.67,5.36,5.36,0,0,0,2.06-1.86,4.7,4.7,0,0,0,.76-2.63v-5.43a4.09,4.09,0,0,0-1.18-3.12,4.64,4.64,0,0,0-3.33-1.12,5.46,5.46,0,0,0-3.25.9,3.77,3.77,0,0,0-1.55,2.46l0,.17h-2.23l0-.21a5.63,5.63,0,0,1,1.07-2.79A6.05,6.05,0,0,1,640,513a8.63,8.63,0,0,1,3.58-.7,8,8,0,0,1,3.61.75,5.59,5.59,0,0,1,2.36,2.12,6,6,0,0,1,.84,3.23V531h-2.33v-3.36H648a5.63,5.63,0,0,1-1.42,1.94,7,7,0,0,1-2.15,1.29,7.61,7.61,0,0,1-5.73-.21Z"/><path class="cls-1" d="M654.57,508.92a1.5,1.5,0,0,1-.45-1.1,1.46,1.46,0,0,1,.45-1.08,1.55,1.55,0,0,1,2.18,0,1.46,1.46,0,0,1,.45,1.08,1.55,1.55,0,0,1-2.63,1.1Zm-.08,3.75h2.32V531h-2.32Z"/><path class="cls-1" d="M664,530.11a7.68,7.68,0,0,1-2.89-3.29,11.52,11.52,0,0,1-1-5v0a11.3,11.3,0,0,1,1-5,7.79,7.79,0,0,1,2.9-3.28,8.13,8.13,0,0,1,4.35-1.16,8,8,0,0,1,3.74.83,7.11,7.11,0,0,1,2.55,2.16,6.8,6.8,0,0,1,1.2,2.92l0,.16H673.6l0-.16a5,5,0,0,0-1.72-2.72,5.25,5.25,0,0,0-3.49-1.11,5.38,5.38,0,0,0-3.1.9,6,6,0,0,0-2.07,2.57,9.67,9.67,0,0,0-.73,3.93v0a9.67,9.67,0,0,0,.73,3.95,5.81,5.81,0,0,0,2.09,2.54,5.52,5.52,0,0,0,3.12.89,5.37,5.37,0,0,0,3.4-1.06,5.06,5.06,0,0,0,1.77-2.77l0-.16h2.29l0,.14a6.7,6.7,0,0,1-1.27,3,7.19,7.19,0,0,1-2.6,2.11,8,8,0,0,1-3.58.77A8.16,8.16,0,0,1,664,530.11Z"/><path class="cls-1" d="M678.94,505.58h2.32V516h.06a5.77,5.77,0,0,1,2.25-2.66,6.67,6.67,0,0,1,3.72-1,6.46,6.46,0,0,1,3.47.91,6.09,6.09,0,0,1,2.31,2.55,8.78,8.78,0,0,1,.82,3.89V531h-2.31V520.07a6,6,0,0,0-1.34-4.18,4.74,4.74,0,0,0-3.7-1.48,5.09,5.09,0,0,0-2.76.74,5,5,0,0,0-1.86,2,6.49,6.49,0,0,0-.66,3V531h-2.32Z"/><path class="cls-1" d="M698.06,508.92a1.5,1.5,0,0,1-.45-1.1,1.46,1.46,0,0,1,.45-1.08,1.55,1.55,0,0,1,2.18,0,1.46,1.46,0,0,1,.45,1.08,1.55,1.55,0,0,1-2.63,1.1Zm-.08,3.75h2.32V531H698Z"/><path class="cls-1" d="M50.66,830a8.07,8.07,0,0,1-3-2.44,7,7,0,0,1-1.33-3.5l0-.18h2.36V824a5,5,0,0,0,1,2.42,6,6,0,0,0,2.18,1.71,7.19,7.19,0,0,0,6.32-.19,6,6,0,0,0,2.3-2.27,6.52,6.52,0,0,0,.82-3.3v0a6.46,6.46,0,0,0-.82-3.27,6,6,0,0,0-2.27-2.26A6.46,6.46,0,0,0,55,816a7.35,7.35,0,0,0-2.8.53A6.32,6.32,0,0,0,49.92,818l-.51.6a4.92,4.92,0,0,0-.47.69H46.78l1.37-14.22H62.21v2.14H50.14l-1,9.55h.07a6.21,6.21,0,0,1,2.58-2.15,9,9,0,0,1,7.89.34,7.87,7.87,0,0,1,3,3,8.55,8.55,0,0,1,1.08,4.32v0a8.57,8.57,0,0,1-1.14,4.43,8.2,8.2,0,0,1-3.15,3,9.51,9.51,0,0,1-4.6,1.1A9.39,9.39,0,0,1,50.66,830Z"/><path class="cls-1" d="M67.9,815.59a7.17,7.17,0,0,1-1.29-4.51v0a7.14,7.14,0,0,1,1.29-4.51,4.62,4.62,0,0,1,7.09,0,7.13,7.13,0,0,1,1.28,4.51v0A7.17,7.17,0,0,1,75,815.59a4.62,4.62,0,0,1-7.09,0Zm5.72-1.17a6.14,6.14,0,0,0,.77-3.34v0a6.09,6.09,0,0,0-.77-3.34,2.59,2.59,0,0,0-4.36,0,6.19,6.19,0,0,0-.77,3.33v0a6.23,6.23,0,0,0,.77,3.34,2.57,2.57,0,0,0,4.36,0Zm-3.85,16L86,805.09h2.18L72,830.45ZM83,829a7.29,7.29,0,0,1-1.28-4.52v0a7.18,7.18,0,0,1,1.28-4.5,4.63,4.63,0,0,1,7.09,0,7.18,7.18,0,0,1,1.28,4.5v0A7.23,7.23,0,0,1,90.06,829,4.6,4.6,0,0,1,83,829Zm5.72-1.17a6,6,0,0,0,.79-3.33v0a6,6,0,0,0-.79-3.33,2.56,2.56,0,0,0-4.36,0,6.09,6.09,0,0,0-.78,3.32v0a6.12,6.12,0,0,0,.78,3.33,2.58,2.58,0,0,0,4.36,0Z"/><path class="cls-1" d="M33,872.83a7.46,7.46,0,0,1-2.87-3.27,11.53,11.53,0,0,1-1-5h0a11.7,11.7,0,0,1,1-5,7.48,7.48,0,0,1,7.11-4.5,7.68,7.68,0,0,1,4.23,1.13,7.49,7.49,0,0,1,2.76,3.19,11.09,11.09,0,0,1,1,4.8v.91H30.3v-1.84H44.1l-1.18,1.67V864a8.77,8.77,0,0,0-.73-3.79,5.18,5.18,0,0,0-4.95-3.12,5.52,5.52,0,0,0-3,.81,5.6,5.6,0,0,0-2.05,2.36,8.72,8.72,0,0,0-.74,3.74v.88a8.83,8.83,0,0,0,.74,3.79,5.51,5.51,0,0,0,2.11,2.4,6,6,0,0,0,3.18.82,6.65,6.65,0,0,0,2.39-.41,4.85,4.85,0,0,0,1.76-1.17,4.46,4.46,0,0,0,1-1.76l.05-.16H45l0,.18a6.25,6.25,0,0,1-.89,2.15,6.82,6.82,0,0,1-1.62,1.73,7.65,7.65,0,0,1-2.25,1.12,9.32,9.32,0,0,1-2.75.4A8.26,8.26,0,0,1,33,872.83Z"/><path class="cls-1" d="M48.59,851.62a1.5,1.5,0,0,1-.45-1.1A1.54,1.54,0,0,1,49.67,849a1.5,1.5,0,0,1,1.1.45,1.47,1.47,0,0,1,.45,1.08,1.54,1.54,0,0,1-1.55,1.55A1.47,1.47,0,0,1,48.59,851.62Zm-.08,3.75h2.32v18.28H48.51Z"/><path class="cls-1" d="M58.85,879.51a7,7,0,0,1-2.6-1.67,5.34,5.34,0,0,1-1.31-2.36l0-.14h2.34l.07.16a3.7,3.7,0,0,0,1.82,1.83,7.2,7.2,0,0,0,3.45.73,5.73,5.73,0,0,0,4.09-1.37A4.82,4.82,0,0,0,68.15,873v-3.23h-.07a6.33,6.33,0,0,1-1.39,2.14,6.58,6.58,0,0,1-4.84,2,7.13,7.13,0,0,1-4.05-1.17,7.69,7.69,0,0,1-2.72-3.28,11.66,11.66,0,0,1-1-5v0a11.55,11.55,0,0,1,1-4.94,7.84,7.84,0,0,1,2.74-3.27A7.14,7.14,0,0,1,61.89,855a6.41,6.41,0,0,1,2.69.55,6.76,6.76,0,0,1,2.11,1.5,7.18,7.18,0,0,1,1.39,2.17h.07v-3.89h2.3v17.82a6.94,6.94,0,0,1-1,3.67,6.39,6.39,0,0,1-2.71,2.42,9.45,9.45,0,0,1-4.18.86A10.21,10.21,0,0,1,58.85,879.51Zm6.5-8.64a6.12,6.12,0,0,0,2.06-2.58,9.38,9.38,0,0,0,.74-3.85v0a9.36,9.36,0,0,0-.74-3.84A6.06,6.06,0,0,0,65.35,858a5.6,5.6,0,0,0-6.12,0,5.83,5.83,0,0,0-2,2.54,9.6,9.6,0,0,0-.72,3.86v0a9.71,9.71,0,0,0,.72,3.89,5.8,5.8,0,0,0,2,2.55,5.28,5.28,0,0,0,3.08.91A5.2,5.2,0,0,0,65.35,870.87Z"/><path class="cls-1" d="M74.61,848.29h2.32v10.42H77a5.77,5.77,0,0,1,2.25-2.66,6.75,6.75,0,0,1,3.72-1,6.55,6.55,0,0,1,3.47.91,6.11,6.11,0,0,1,2.31,2.56,8.7,8.7,0,0,1,.82,3.88v11.25H87.25V862.77a6,6,0,0,0-1.34-4.18,4.74,4.74,0,0,0-3.7-1.48,5.18,5.18,0,0,0-2.76.74,5,5,0,0,0-1.86,2,6.5,6.5,0,0,0-.66,3v10.77H74.61Z"/><path class="cls-1" d="M95.56,872.87a4.76,4.76,0,0,1-1.12-3.51v-12H91.75v-2h2.69v-4.94h2.39v4.94h3.61v2H96.83v12a2.84,2.84,0,0,0,.64,2.11,2.74,2.74,0,0,0,1.93.59,5.24,5.24,0,0,0,.57,0l.47,0v1.89l-.68.09a7.73,7.73,0,0,1-.84,0A4.57,4.57,0,0,1,95.56,872.87Z"/><path class="cls-1" d="M9,916.07a4.8,4.8,0,0,1-1.12-3.51v-12H5.15v-1.95H7.84v-4.94h2.39v4.94h3.61v1.95H10.23v12a2.8,2.8,0,0,0,.65,2.11,2.69,2.69,0,0,0,1.92.59,5.24,5.24,0,0,0,.57,0l.47-.05v1.89l-.68.09a7.55,7.55,0,0,1-.83.05A4.6,4.6,0,0,1,9,916.07Z"/><path class="cls-1" d="M17.09,898.57h2.2v3.2h.05a5,5,0,0,1,1.7-2.58,4.57,4.57,0,0,1,2.92-1,4.5,4.5,0,0,1,.85.07,3.44,3.44,0,0,1,.59.14v2.27a2.74,2.74,0,0,0-.68-.19,6.68,6.68,0,0,0-1.07-.08,4,4,0,0,0-2.24.63,4.16,4.16,0,0,0-1.48,1.75,6.06,6.06,0,0,0-.52,2.6v11.42H17.09Z"/><path class="cls-1" d="M28.16,894.82a1.5,1.5,0,0,1-.45-1.1,1.47,1.47,0,0,1,.45-1.08,1.44,1.44,0,0,1,1.08-.45,1.54,1.54,0,0,1,1.54,1.53,1.5,1.5,0,0,1-.45,1.1,1.46,1.46,0,0,1-1.09.45A1.44,1.44,0,0,1,28.16,894.82Zm-.08,3.75H30.4v18.28H28.08Z"/><path class="cls-1" d="M38.41,922.71A6.87,6.87,0,0,1,35.82,921a5.24,5.24,0,0,1-1.31-2.36l0-.14h2.34l.07.16a3.75,3.75,0,0,0,1.82,1.83,7.24,7.24,0,0,0,3.46.73,5.72,5.72,0,0,0,4.08-1.37,4.82,4.82,0,0,0,1.47-3.71V913h-.07a6.45,6.45,0,0,1-1.38,2.14,6.63,6.63,0,0,1-4.84,2,7.09,7.09,0,0,1-4.05-1.17,7.71,7.71,0,0,1-2.73-3.28,11.82,11.82,0,0,1-1-5v0a11.55,11.55,0,0,1,1-4.94,7.9,7.9,0,0,1,2.74-3.27,7.13,7.13,0,0,1,4.05-1.17,6.37,6.37,0,0,1,2.69.55,6.76,6.76,0,0,1,2.11,1.5,7,7,0,0,1,1.39,2.17h.07v-3.89H50V916.4a6.84,6.84,0,0,1-.95,3.66,6.36,6.36,0,0,1-2.7,2.42,9.52,9.52,0,0,1-4.19.86A10.25,10.25,0,0,1,38.41,922.71Zm6.51-8.64a6.18,6.18,0,0,0,2-2.58,9.38,9.38,0,0,0,.74-3.85v0a9.36,9.36,0,0,0-.74-3.84,6,6,0,0,0-2-2.55,5.57,5.57,0,0,0-6.12,0,5.8,5.8,0,0,0-2,2.55,9.51,9.51,0,0,0-.72,3.85v0a9.71,9.71,0,0,0,.72,3.89,5.8,5.8,0,0,0,2,2.55,5.57,5.57,0,0,0,6.12,0Z"/><path class="cls-1" d="M54,898.57h2.2v3.2h.05A5,5,0,0,1,58,899.19a5,5,0,0,1,3.76-.88,3.22,3.22,0,0,1,.59.14v2.27a2.74,2.74,0,0,0-.68-.19,6.68,6.68,0,0,0-1.07-.08,4,4,0,0,0-2.24.63,4.23,4.23,0,0,0-1.48,1.75,6.06,6.06,0,0,0-.52,2.6v11.42H54Z"/><path class="cls-1" d="M66.5,916.51a5.11,5.11,0,0,1-2.13-1.9,5.18,5.18,0,0,1-.77-2.82v0a4.49,4.49,0,0,1,1.71-3.7,8.51,8.51,0,0,1,4.85-1.55l6.85-.44v1.81l-6.57.44a6.12,6.12,0,0,0-3.31,1,2.88,2.88,0,0,0-1.17,2.4v0a2.92,2.92,0,0,0,1.16,2.43,4.64,4.64,0,0,0,3,.93,6.18,6.18,0,0,0,2.91-.68,5.42,5.42,0,0,0,2.06-1.85,4.76,4.76,0,0,0,.76-2.64v-5.43a4.07,4.07,0,0,0-1.18-3.11,4.67,4.67,0,0,0-3.34-1.13,5.44,5.44,0,0,0-3.24.9,3.78,3.78,0,0,0-1.55,2.46l0,.17H64.27l0-.21a5.58,5.58,0,0,1,1.07-2.79,6,6,0,0,1,2.42-1.91,8.68,8.68,0,0,1,3.59-.69A8.22,8.22,0,0,1,75,899a5.59,5.59,0,0,1,2.36,2.12,6.08,6.08,0,0,1,.83,3.24v12.51H75.85v-3.36h0a5.63,5.63,0,0,1-1.42,1.94,7.38,7.38,0,0,1-7.88,1.08Z"/><path class="cls-1" d="M82.08,898.57H84.4v3.16h0a5.28,5.28,0,0,1,1.91-2.5,5.48,5.48,0,0,1,3.27-1,5.81,5.81,0,0,1,2.42.49,5,5,0,0,1,1.8,1.35,5.42,5.42,0,0,1,1.07,2H95a6.13,6.13,0,0,1,1.25-2,5.75,5.75,0,0,1,2-1.36,6.31,6.31,0,0,1,2.53-.5,6.21,6.21,0,0,1,3.12.76,5.22,5.22,0,0,1,2.07,2.12,6.69,6.69,0,0,1,.74,3.22v12.5h-2.32v-12a4.76,4.76,0,0,0-1.12-3.35,4,4,0,0,0-3.12-1.22,4.33,4.33,0,0,0-4,2.42,5.7,5.7,0,0,0-.58,2.61v11.51H93.2V904.67A4.31,4.31,0,0,0,92,901.5a4,4,0,0,0-3-1.19,4.29,4.29,0,0,0-2.39.68A4.68,4.68,0,0,0,85,902.86a6.12,6.12,0,0,0-.59,2.78v11.21H82.08Z"/><path class="cls-1" d="M113.23,916.49a6.19,6.19,0,0,1-2.45-1.91,5.74,5.74,0,0,1-1.09-2.84l0-.16H112l0,.16a4,4,0,0,0,1.53,2.54,5.38,5.38,0,0,0,3.3.94,6.71,6.71,0,0,0,2.42-.39,3.44,3.44,0,0,0,1.57-1.12,2.66,2.66,0,0,0,.55-1.67v0a2.51,2.51,0,0,0-.74-1.9,5.66,5.66,0,0,0-2.58-1.14l-2.76-.65a8.29,8.29,0,0,1-3.84-1.81,4,4,0,0,1-1.26-3.06v0a4.51,4.51,0,0,1,.84-2.7,5.59,5.59,0,0,1,2.3-1.84,8.12,8.12,0,0,1,3.36-.66,7.89,7.89,0,0,1,3.41.69,5.78,5.78,0,0,1,2.3,1.92,5.5,5.5,0,0,1,1,2.8l0,.19h-2.21l0-.12a3.82,3.82,0,0,0-1.38-2.56,4.71,4.71,0,0,0-3.09-.95,5.66,5.66,0,0,0-2.18.39,3.25,3.25,0,0,0-1.44,1.11,2.73,2.73,0,0,0-.51,1.64v0a2.36,2.36,0,0,0,.79,1.81,6,6,0,0,0,2.61,1.16l2.74.65a8.11,8.11,0,0,1,3.89,1.8,4.14,4.14,0,0,1,1.15,3.07v0a4.53,4.53,0,0,1-.89,2.76,6.05,6.05,0,0,1-2.45,1.87,8.91,8.91,0,0,1-3.57.68A8.77,8.77,0,0,1,113.23,916.49Z"/><path class="cls-1" d="M22.69,959.25a6.76,6.76,0,0,1-2.44-3.07h-.06v3.87H17.87V934.69h2.32V945.6h.06a6.69,6.69,0,0,1,2.45-3,6.56,6.56,0,0,1,3.82-1.13,7,7,0,0,1,4,1.17,7.91,7.91,0,0,1,2.7,3.3,11.8,11.8,0,0,1,1,5v0a11.86,11.86,0,0,1-1,5,7.71,7.71,0,0,1-2.7,3.32,7.12,7.12,0,0,1-4.06,1.18A6.46,6.46,0,0,1,22.69,959.25Zm6.44-1.84a5.85,5.85,0,0,0,2-2.58,9.84,9.84,0,0,0,.71-3.92v0a9.78,9.78,0,0,0-.71-3.91,5.74,5.74,0,0,0-2-2.56,5.56,5.56,0,0,0-6.11,0,6.25,6.25,0,0,0-2.08,2.6,9.17,9.17,0,0,0-.77,3.86v0a9.42,9.42,0,0,0,.76,3.88,6.17,6.17,0,0,0,2.08,2.6,5.6,5.6,0,0,0,6.12,0Z"/><path class="cls-1" d="M40.39,959.22a7.8,7.8,0,0,1-2.93-3.28,11.27,11.27,0,0,1-1-5v0a11.16,11.16,0,0,1,1-5,7.72,7.72,0,0,1,2.93-3.27,8.82,8.82,0,0,1,8.71,0A7.81,7.81,0,0,1,52,945.85a11.15,11.15,0,0,1,1,5v0a11.25,11.25,0,0,1-1,5,7.74,7.74,0,0,1-7.28,4.44A8.45,8.45,0,0,1,40.39,959.22Zm7.51-1.79A5.64,5.64,0,0,0,50,954.88a9.77,9.77,0,0,0,.74-4v0a9.75,9.75,0,0,0-.74-4,5.43,5.43,0,0,0-5.24-3.39,5.5,5.5,0,0,0-3.11.88,5.76,5.76,0,0,0-2.08,2.53,9.52,9.52,0,0,0-.75,4v0a9.6,9.6,0,0,0,.75,4,5.66,5.66,0,0,0,2.08,2.55,6,6,0,0,0,6.28,0Z"/><path class="cls-1" d="M59.92,950.86l-6.36-9.09h2.61l5,7.35h0l5-7.35h2.62l-6.4,9,6.34,9.28h-2.6l-5-7.5h0l-5,7.5h-2.6Z"/><path class="cls-1" d="M71.51,938a1.5,1.5,0,0,1-.45-1.1,1.54,1.54,0,0,1,3.08,0,1.5,1.5,0,0,1-.45,1.1,1.55,1.55,0,0,1-2.18,0Zm-.08,3.75h2.32v18.28H71.43Z"/><path class="cls-1" d="M77.94,941.77h2.32v3.13h0a5.94,5.94,0,0,1,2.21-2.47,6.72,6.72,0,0,1,3.71-1A6.18,6.18,0,0,1,91,943.28a7.12,7.12,0,0,1,1.7,5.06v11.71H90.36V948.73a5.53,5.53,0,0,0-1.23-3.88,4.61,4.61,0,0,0-3.56-1.34,5.33,5.33,0,0,0-2.8.72,4.83,4.83,0,0,0-1.85,2,6.4,6.4,0,0,0-.66,3v10.83H77.94Z"/><path class="cls-1" d="M100.42,965.91a6.77,6.77,0,0,1-2.59-1.68,5.07,5.07,0,0,1-1.31-2.35l0-.14h2.34l.07.16a3.7,3.7,0,0,0,1.82,1.83,7.23,7.23,0,0,0,3.45.73,5.73,5.73,0,0,0,4.09-1.37,4.82,4.82,0,0,0,1.47-3.71v-3.23h-.07a6.31,6.31,0,0,1-1.38,2.13,6.69,6.69,0,0,1-4.85,2,7.13,7.13,0,0,1-4-1.17,7.76,7.76,0,0,1-2.72-3.28,11.82,11.82,0,0,1-1-5v0a11.41,11.41,0,0,1,1-4.94,7.86,7.86,0,0,1,2.74-3.28,7.16,7.16,0,0,1,4-1.16,6.41,6.41,0,0,1,2.69.55,6.76,6.76,0,0,1,2.11,1.5,7.07,7.07,0,0,1,1.39,2.16h.07v-3.88H112v17.82a6.94,6.94,0,0,1-1,3.67,6.33,6.33,0,0,1-2.71,2.42,9.45,9.45,0,0,1-4.18.86A10.25,10.25,0,0,1,100.42,965.91Zm6.5-8.64a6.12,6.12,0,0,0,2.06-2.58,9.38,9.38,0,0,0,.74-3.85v0A9.36,9.36,0,0,0,109,947a6.06,6.06,0,0,0-2.06-2.56,5.58,5.58,0,0,0-6.11,0,5.83,5.83,0,0,0-2,2.54,9.6,9.6,0,0,0-.72,3.86v0a9.71,9.71,0,0,0,.72,3.89,5.8,5.8,0,0,0,2,2.55,5.56,5.56,0,0,0,6.11,0Z"/><path class="cls-1" d="M273.23,161.35h-.07l-6.8,4.56v-2.43l6.84-4.69h2.33v25.36h-2.3Z"/><path class="cls-1" d="M285.69,183a10,10,0,0,1-3.15-4.53,19.76,19.76,0,0,1-1.1-6.93v-.06a19.84,19.84,0,0,1,1.1-6.95,9.92,9.92,0,0,1,3.15-4.51,8.35,8.35,0,0,1,9.83,0,10,10,0,0,1,3.16,4.52,19.87,19.87,0,0,1,1.09,6.94v.06a19.85,19.85,0,0,1-1.09,6.95,10,10,0,0,1-3.16,4.52,8.37,8.37,0,0,1-9.83,0Zm8.56-1.85a8.43,8.43,0,0,0,2.33-3.79,19,19,0,0,0,.8-5.82v-.06a18.9,18.9,0,0,0-.8-5.82,8.43,8.43,0,0,0-2.33-3.79,5.63,5.63,0,0,0-7.29,0,8.36,8.36,0,0,0-2.31,3.8,19,19,0,0,0-.8,5.81v.06a19,19,0,0,0,.8,5.82,8.32,8.32,0,0,0,2.31,3.79,5.63,5.63,0,0,0,7.29,0Z"/><path class="cls-1" d="M304.2,169.29a7.11,7.11,0,0,1-1.3-4.51h0a7.09,7.09,0,0,1,1.3-4.52,4.63,4.63,0,0,1,7.09,0,7.21,7.21,0,0,1,1.28,4.52h0a7.24,7.24,0,0,1-1.28,4.51,4.62,4.62,0,0,1-7.09,0Zm5.72-1.17a6.23,6.23,0,0,0,.77-3.34h0a6.16,6.16,0,0,0-.77-3.34,2.58,2.58,0,0,0-4.36,0,6.14,6.14,0,0,0-.78,3.34h0a6.14,6.14,0,0,0,.78,3.34,2.56,2.56,0,0,0,4.36,0Zm-3.85,16,16.26-25.36h2.18l-16.25,25.36Zm13.2-1.47a7.22,7.22,0,0,1-1.28-4.52v0a7.12,7.12,0,0,1,1.28-4.5,4.62,4.62,0,0,1,7.08,0,7.12,7.12,0,0,1,1.29,4.5v0a7.22,7.22,0,0,1-1.29,4.53,4.25,4.25,0,0,1-3.55,1.66A4.21,4.21,0,0,1,319.27,182.68Zm5.72-1.17a6.08,6.08,0,0,0,.78-3.33v0a6.08,6.08,0,0,0-.78-3.33,2.57,2.57,0,0,0-4.36,0,6.11,6.11,0,0,0-.78,3.32v0a6.08,6.08,0,0,0,.78,3.33,2.58,2.58,0,0,0,4.36,0Z"/><path class="cls-1" d="M238.49,202h8.95a9.42,9.42,0,0,1,4.29.91,6.72,6.72,0,0,1,2.82,2.58,7.55,7.55,0,0,1,1,3.93v0a7.28,7.28,0,0,1-1.45,4.57,7.13,7.13,0,0,1-4,2.57l6.15,10.77h-2.79L247.63,217l-.26,0h-6.49v10.38h-2.39Zm8.75,12.85a6.14,6.14,0,0,0,4.3-1.41,5.06,5.06,0,0,0,1.54-3.94v0a5,5,0,0,0-1.58-3.92,6.33,6.33,0,0,0-4.36-1.41h-6.26v10.71Z"/><path class="cls-1" d="M262,226.84a5.54,5.54,0,0,1-2.22-2.37,8.24,8.24,0,0,1-.77-3.69V209.07h2.32v11.32a5.51,5.51,0,0,0,1.24,3.89,4.6,4.6,0,0,0,3.56,1.33,5.32,5.32,0,0,0,2.79-.72,5,5,0,0,0,1.87-2,6.46,6.46,0,0,0,.66-3V209.07h2.31v18.28h-2.31v-3.12h-.07a5.73,5.73,0,0,1-2.19,2.46,6.62,6.62,0,0,1-3.73,1A6.74,6.74,0,0,1,262,226.84Z"/><path class="cls-1" d="M277.72,209.07H280v3.13h.06a5.93,5.93,0,0,1,2.21-2.47,6.72,6.72,0,0,1,3.71-1,6.21,6.21,0,0,1,4.75,1.82,7.18,7.18,0,0,1,1.7,5.07v11.7h-2.32V216a5.53,5.53,0,0,0-1.23-3.88,4.62,4.62,0,0,0-3.57-1.34,5.29,5.29,0,0,0-2.79.72,4.92,4.92,0,0,0-1.86,2,6.44,6.44,0,0,0-.66,3v10.82h-2.32Z"/><path class="cls-1" d="M296.37,209.07h2.32v3.13h.06a5.93,5.93,0,0,1,2.21-2.47,6.72,6.72,0,0,1,3.71-1,6.21,6.21,0,0,1,4.75,1.82,7.18,7.18,0,0,1,1.7,5.07v11.7H308.8V216a5.53,5.53,0,0,0-1.23-3.88,4.62,4.62,0,0,0-3.57-1.34,5.29,5.29,0,0,0-2.79.72,4.92,4.92,0,0,0-1.86,2,6.44,6.44,0,0,0-.66,3v10.82h-2.32Z"/><path class="cls-1" d="M315.28,205.32a1.5,1.5,0,0,1-.45-1.1,1.54,1.54,0,0,1,1.53-1.53,1.5,1.5,0,0,1,1.1.45,1.47,1.47,0,0,1,.45,1.08,1.54,1.54,0,0,1-1.55,1.55A1.47,1.47,0,0,1,315.28,205.32Zm-.08,3.75h2.32v18.28H315.2Z"/><path class="cls-1" d="M321.7,209.07H324v3.13h.06a5.93,5.93,0,0,1,2.21-2.47,6.72,6.72,0,0,1,3.71-1,6.21,6.21,0,0,1,4.75,1.82,7.18,7.18,0,0,1,1.7,5.07v11.7h-2.32V216a5.53,5.53,0,0,0-1.23-3.88,4.62,4.62,0,0,0-3.57-1.34,5.29,5.29,0,0,0-2.79.72,4.92,4.92,0,0,0-1.86,2,6.44,6.44,0,0,0-.66,3v10.82H321.7Z"/><path class="cls-1" d="M344.19,233.22a7,7,0,0,1-2.6-1.68,5.34,5.34,0,0,1-1.31-2.36l0-.14h2.34l.07.16a3.76,3.76,0,0,0,1.82,1.84,7.32,7.32,0,0,0,3.45.73A5.78,5.78,0,0,0,352,230.4a4.85,4.85,0,0,0,1.47-3.71v-3.24h-.07a6.33,6.33,0,0,1-1.39,2.14A6.6,6.6,0,0,1,349.9,227a6.82,6.82,0,0,1-2.71.52,7.12,7.12,0,0,1-4.05-1.16,7.72,7.72,0,0,1-2.72-3.29,11.63,11.63,0,0,1-1-5h0a11.49,11.49,0,0,1,1-4.94,7.87,7.87,0,0,1,2.74-3.28,7.14,7.14,0,0,1,4.06-1.17,6.41,6.41,0,0,1,2.69.55A6.63,6.63,0,0,1,352,210.8a7,7,0,0,1,1.39,2.16h.07v-3.89h2.3V226.9a6.93,6.93,0,0,1-1,3.66,6.39,6.39,0,0,1-2.71,2.42,9.45,9.45,0,0,1-4.18.86A10.43,10.43,0,0,1,344.19,233.22Zm6.5-8.65a6.2,6.2,0,0,0,2.06-2.58,9.38,9.38,0,0,0,.74-3.85h0a9.38,9.38,0,0,0-.74-3.85,6.1,6.1,0,0,0-2.06-2.55,5.2,5.2,0,0,0-3-.92,5.28,5.28,0,0,0-3.08.91,5.8,5.8,0,0,0-2,2.55,9.53,9.53,0,0,0-.72,3.86h0a9.68,9.68,0,0,0,.72,3.89,5.89,5.89,0,0,0,2,2.56,5.34,5.34,0,0,0,3.08.9A5.2,5.2,0,0,0,350.69,224.57Z"/><path class="cls-1" d="M134,437.65h-.07l-6.81,4.56v-2.43l6.84-4.69h2.34v25.36H134Z"/><path class="cls-1" d="M147.1,460a8,8,0,0,1-3-2.44,7,7,0,0,1-1.33-3.5l0-.18h2.35l0,.14a5,5,0,0,0,1,2.42,5.9,5.9,0,0,0,2.18,1.71,7.19,7.19,0,0,0,6.32-.19,6,6,0,0,0,2.29-2.27,6.42,6.42,0,0,0,.83-3.3v0a6.36,6.36,0,0,0-.83-3.27,6,6,0,0,0-2.26-2.26,6.46,6.46,0,0,0-3.27-.83,7.4,7.4,0,0,0-2.81.53,6.29,6.29,0,0,0-2.24,1.54c-.17.19-.35.39-.52.6a4.87,4.87,0,0,0-.46.69h-2.16l1.37-14.22h14.06v2.14H146.57l-1,9.55h.07a6.3,6.3,0,0,1,2.59-2.15,9,9,0,0,1,7.89.34,7.87,7.87,0,0,1,3,3,8.55,8.55,0,0,1,1.08,4.32v0a8.57,8.57,0,0,1-1.14,4.43,8.22,8.22,0,0,1-3.16,3,10.12,10.12,0,0,1-8.76.2Z"/><path class="cls-1" d="M164.33,445.59a7.17,7.17,0,0,1-1.29-4.51v0a7.14,7.14,0,0,1,1.29-4.51,4.63,4.63,0,0,1,7.1,0,7.2,7.2,0,0,1,1.28,4.51v0a7.24,7.24,0,0,1-1.28,4.51,4.63,4.63,0,0,1-7.1,0Zm5.73-1.17a6.23,6.23,0,0,0,.77-3.34v0a6.18,6.18,0,0,0-.77-3.34,2.59,2.59,0,0,0-4.36,0,6.1,6.1,0,0,0-.78,3.33v0a6.14,6.14,0,0,0,.78,3.34,2.57,2.57,0,0,0,4.36,0Zm-3.85,16,16.26-25.36h2.18l-16.24,25.36Zm13.2-1.47a7.22,7.22,0,0,1-1.28-4.52v0a7.12,7.12,0,0,1,1.28-4.5,4.62,4.62,0,0,1,7.08,0,7.12,7.12,0,0,1,1.29,4.5v0a7.17,7.17,0,0,1-1.29,4.52,4.59,4.59,0,0,1-7.08,0Zm5.72-1.17a6.12,6.12,0,0,0,.78-3.33v0a6.08,6.08,0,0,0-.78-3.33,2.56,2.56,0,0,0-4.36,0,6.09,6.09,0,0,0-.78,3.32v0a6.12,6.12,0,0,0,.78,3.33,2.58,2.58,0,0,0,4.36,0Z"/><path class="cls-1" d="M138.69,480.45H130.3v-2.16h19.16v2.16h-8.38v23.2h-2.39Z"/><path class="cls-1" d="M148.32,485.37h2.2v3.2h0a5,5,0,0,1,1.71-2.58,5,5,0,0,1,3.76-.88,3.36,3.36,0,0,1,.6.14v2.27a2.55,2.55,0,0,0-.69-.19,6.58,6.58,0,0,0-1.07-.08,4,4,0,0,0-2.24.63,4.23,4.23,0,0,0-1.48,1.75,6.22,6.22,0,0,0-.52,2.6v11.42h-2.32Z"/><path class="cls-1" d="M161.15,502.82a7.72,7.72,0,0,1-2.92-3.28,11.27,11.27,0,0,1-1-5v0a11.16,11.16,0,0,1,1-5,7.75,7.75,0,0,1,2.92-3.27,8.82,8.82,0,0,1,8.71,0,7.81,7.81,0,0,1,2.93,3.26,11.15,11.15,0,0,1,1.05,5v0a11.22,11.22,0,0,1-1.05,5,8,8,0,0,1-2.92,3.28,8.09,8.09,0,0,1-4.36,1.16A8.47,8.47,0,0,1,161.15,502.82Zm7.51-1.79a5.64,5.64,0,0,0,2.07-2.55,9.6,9.6,0,0,0,.74-4v0a9.59,9.59,0,0,0-.74-4,5.61,5.61,0,0,0-2.08-2.52,5.69,5.69,0,0,0-3.15-.87,5.51,5.51,0,0,0-3.12.88,5.83,5.83,0,0,0-2.08,2.53,9.52,9.52,0,0,0-.75,4v0a9.6,9.6,0,0,0,.75,4,5.72,5.72,0,0,0,2.08,2.55,6,6,0,0,0,6.28,0Z"/><path class="cls-1" d="M179,502.87a4.8,4.8,0,0,1-1.11-3.51v-12h-2.69v-1.95h2.69v-4.94h2.39v4.94h3.6v1.95h-3.6v12a2.8,2.8,0,0,0,.64,2.11,2.73,2.73,0,0,0,1.92.59,5.24,5.24,0,0,0,.57,0l.47-.05v1.89l-.68.09a7.55,7.55,0,0,1-.83.05A4.61,4.61,0,0,1,179,502.87Z"/></g></g></svg>