<svg xmlns="http://www.w3.org/2000/svg" xmlns:xlink="http://www.w3.org/1999/xlink" viewBox="0 0 943 571.9"><defs><style>.cls-1{fill:#fe7467;}.cls-2{fill:#bccccb;}.cls-3{fill:#063f36;}.cls-4{fill:#fff;}.cls-5{opacity:0.5;fill:url(#未命名的渐变_34);}</style><linearGradient id="未命名的渐变_34" x1="824.67" y1="5" x2="824.67" y2="515" gradientUnits="userSpaceOnUse"><stop offset="0" stop-color="#fff"/><stop offset="0"/><stop offset="0" stop-color="#020101"/><stop offset="0" stop-color="#090404"/><stop offset="0" stop-color="#140908"/><stop offset="0" stop-color="#25110f"/><stop offset="0" stop-color="#3b1b18"/><stop offset="0" stop-color="#572823"/><stop offset="0" stop-color="#773630"/><stop offset="0" stop-color="#9d4840"/><stop offset="0" stop-color="#c85b51"/><stop offset="0" stop-color="#f67064"/><stop offset="0" stop-color="#fe7467"/><stop offset="1" stop-color="#fff" stop-opacity="0"/></linearGradient></defs><title>资源 38</title><g id="图层_2" data-name="图层 2"><g id="图层_7" data-name="图层 7"><rect class="cls-1" x="746.67" width="155" height="10" rx="5"/><path class="cls-2" d="M943,125.06h-3v-5h3Zm-18,0h-5v-5h5Zm-20,0h-5v-5h5Zm-20,0h-5v-5h5Zm-20,0h-5v-5h5Zm-20,0h-5v-5h5Zm-20,0h-5v-5h5Zm-20,0h-5v-5h5Zm-20,0h-5v-5h5Zm-20,0h-5v-5h5Zm-20,0h-5v-5h5Zm-20,0h-5v-5h5Zm-20,0h-5v-5h5Zm-20,0h-5v-5h5Zm-20,0h-5v-5h5Zm-20,0h-5v-5h5Zm-20,0h-5v-5h5Zm-20,0h-5v-5h5Zm-20,0h-5v-5h5Zm-20,0h-5v-5h5Zm-20,0h-5v-5h5Zm-20,0h-5v-5h5Zm-20,0h-5v-5h5Zm-20,0h-5v-5h5Zm-20,0h-5v-5h5Zm-20,0h-5v-5h5Zm-20,0h-5v-5h5Zm-20,0h-5v-5h5Zm-20,0h-5v-5h5Zm-20,0h-5v-5h5Zm-20,0h-5v-5h5Zm-20,0h-5v-5h5Zm-20,0h-5v-5h5Zm-20,0h-5v-5h5Zm-20,0h-5v-5h5Zm-20,0h-5v-5h5Zm-20,0h-5v-5h5Zm-20,0h-5v-5h5Zm-20,0h-5v-5h5Zm-20,0h-5v-5h5Zm-20,0h-5v-5h5Zm-20,0h-5v-5h5Zm-20,0h-5v-5h5Zm-20,0H80v-5h5Zm-20,0H60v-5h5Zm-20,0H40v-5h5Zm-20,0H20v-5h5Zm-20,0H0v-5H5Z" transform="translate(0 -1.56)"/><path class="cls-2" d="M943,237.16h-3v-5h3Zm-18,0h-5v-5h5Zm-20,0h-5v-5h5Zm-20,0h-5v-5h5Zm-20,0h-5v-5h5Zm-20,0h-5v-5h5Zm-20,0h-5v-5h5Zm-20,0h-5v-5h5Zm-20,0h-5v-5h5Zm-20,0h-5v-5h5Zm-20,0h-5v-5h5Zm-20,0h-5v-5h5Zm-20,0h-5v-5h5Zm-20,0h-5v-5h5Zm-20,0h-5v-5h5Zm-20,0h-5v-5h5Zm-20,0h-5v-5h5Zm-20,0h-5v-5h5Zm-20,0h-5v-5h5Zm-20,0h-5v-5h5Zm-20,0h-5v-5h5Zm-20,0h-5v-5h5Zm-20,0h-5v-5h5Zm-20,0h-5v-5h5Zm-20,0h-5v-5h5Zm-20,0h-5v-5h5Zm-20,0h-5v-5h5Zm-20,0h-5v-5h5Zm-20,0h-5v-5h5Zm-20,0h-5v-5h5Zm-20,0h-5v-5h5Zm-20,0h-5v-5h5Zm-20,0h-5v-5h5Zm-20,0h-5v-5h5Zm-20,0h-5v-5h5Zm-20,0h-5v-5h5Zm-20,0h-5v-5h5Zm-20,0h-5v-5h5Zm-20,0h-5v-5h5Zm-20,0h-5v-5h5Zm-20,0h-5v-5h5Zm-20,0h-5v-5h5Zm-20,0h-5v-5h5Zm-20,0H80v-5h5Zm-20,0H60v-5h5Zm-20,0H40v-5h5Zm-20,0H20v-5h5Zm-20,0H0v-5H5Z" transform="translate(0 -1.56)"/><rect class="cls-1" y="344.2" width="943" height="2"/><path class="cls-2" d="M943,461.36h-3v-5h3Zm-18,0h-5v-5h5Zm-20,0h-5v-5h5Zm-20,0h-5v-5h5Zm-20,0h-5v-5h5Zm-20,0h-5v-5h5Zm-20,0h-5v-5h5Zm-20,0h-5v-5h5Zm-20,0h-5v-5h5Zm-20,0h-5v-5h5Zm-20,0h-5v-5h5Zm-20,0h-5v-5h5Zm-20,0h-5v-5h5Zm-20,0h-5v-5h5Zm-20,0h-5v-5h5Zm-20,0h-5v-5h5Zm-20,0h-5v-5h5Zm-20,0h-5v-5h5Zm-20,0h-5v-5h5Zm-20,0h-5v-5h5Zm-20,0h-5v-5h5Zm-20,0h-5v-5h5Zm-20,0h-5v-5h5Zm-20,0h-5v-5h5Zm-20,0h-5v-5h5Zm-20,0h-5v-5h5Zm-20,0h-5v-5h5Zm-20,0h-5v-5h5Zm-20,0h-5v-5h5Zm-20,0h-5v-5h5Zm-20,0h-5v-5h5Zm-20,0h-5v-5h5Zm-20,0h-5v-5h5Zm-20,0h-5v-5h5Zm-20,0h-5v-5h5Zm-20,0h-5v-5h5Zm-20,0h-5v-5h5Zm-20,0h-5v-5h5Zm-20,0h-5v-5h5Zm-20,0h-5v-5h5Zm-20,0h-5v-5h5Zm-20,0h-5v-5h5Zm-20,0h-5v-5h5Zm-20,0H80v-5h5Zm-20,0H60v-5h5Zm-20,0H40v-5h5Zm-20,0H20v-5h5Zm-20,0H0v-5H5Z" transform="translate(0 -1.56)"/><path class="cls-2" d="M943,573.46h-3v-5h3Zm-18,0h-5v-5h5Zm-20,0h-5v-5h5Zm-20,0h-5v-5h5Zm-20,0h-5v-5h5Zm-20,0h-5v-5h5Zm-20,0h-5v-5h5Zm-20,0h-5v-5h5Zm-20,0h-5v-5h5Zm-20,0h-5v-5h5Zm-20,0h-5v-5h5Zm-20,0h-5v-5h5Zm-20,0h-5v-5h5Zm-20,0h-5v-5h5Zm-20,0h-5v-5h5Zm-20,0h-5v-5h5Zm-20,0h-5v-5h5Zm-20,0h-5v-5h5Zm-20,0h-5v-5h5Zm-20,0h-5v-5h5Zm-20,0h-5v-5h5Zm-20,0h-5v-5h5Zm-20,0h-5v-5h5Zm-20,0h-5v-5h5Zm-20,0h-5v-5h5Zm-20,0h-5v-5h5Zm-20,0h-5v-5h5Zm-20,0h-5v-5h5Zm-20,0h-5v-5h5Zm-20,0h-5v-5h5Zm-20,0h-5v-5h5Zm-20,0h-5v-5h5Zm-20,0h-5v-5h5Zm-20,0h-5v-5h5Zm-20,0h-5v-5h5Zm-20,0h-5v-5h5Zm-20,0h-5v-5h5Zm-20,0h-5v-5h5Zm-20,0h-5v-5h5Zm-20,0h-5v-5h5Zm-20,0h-5v-5h5Zm-20,0h-5v-5h5Zm-20,0h-5v-5h5Zm-20,0H80v-5h5Zm-20,0H60v-5h5Zm-20,0H40v-5h5Zm-20,0H20v-5h5Zm-20,0H0v-5H5Z" transform="translate(0 -1.56)"/><path class="cls-3" d="M2.66,101.83l5.24-5.5a24.43,24.43,0,0,0,1.63-1.84,5.38,5.38,0,0,0,.79-1.32,3.62,3.62,0,0,0,.22-1.23v0a2.81,2.81,0,0,0-.41-1.5,2.9,2.9,0,0,0-1.11-1A3.39,3.39,0,0,0,7.41,89a3.78,3.78,0,0,0-1.77.4,3.19,3.19,0,0,0-1.22,1.11,2.91,2.91,0,0,0-.48,1.57v.08H2.59v-.1a4,4,0,0,1,.66-2.2A4.47,4.47,0,0,1,5,88.34a5.19,5.19,0,0,1,2.41-.56,5,5,0,0,1,2.35.54,4.24,4.24,0,0,1,1.61,1.47,3.68,3.68,0,0,1,.59,2.07v0a4.1,4.1,0,0,1-.3,1.54,6.91,6.91,0,0,1-1,1.68c-.49.62-1.17,1.38-2,2.29L4.15,102l.45-1v1l-.45-.43h8.16v1.25H2.66Z" transform="translate(0 -1.56)"/><path class="cls-3" d="M16.61,102.11a5.83,5.83,0,0,1-1.83-2.64,11.38,11.38,0,0,1-.64-4v0a11.5,11.5,0,0,1,.64-4.06,5.8,5.8,0,0,1,1.83-2.63,4.53,4.53,0,0,1,2.87-.93,4.55,4.55,0,0,1,2.87.93,5.84,5.84,0,0,1,1.84,2.64,11.48,11.48,0,0,1,.64,4.05v0a11.44,11.44,0,0,1-.64,4,5.84,5.84,0,0,1-1.84,2.64,4.55,4.55,0,0,1-2.87.93A4.48,4.48,0,0,1,16.61,102.11Zm5-1.07A4.88,4.88,0,0,0,23,98.82a10.7,10.7,0,0,0,.48-3.39v0A10.68,10.68,0,0,0,23,92a4.84,4.84,0,0,0-1.35-2.21A3.13,3.13,0,0,0,19.48,89a3.07,3.07,0,0,0-2.12.78A4.9,4.9,0,0,0,16,92a11.08,11.08,0,0,0-.47,3.4v0A11,11,0,0,0,16,98.82,4.88,4.88,0,0,0,17.36,101a3.07,3.07,0,0,0,2.12.78A3.13,3.13,0,0,0,21.61,101Z" transform="translate(0 -1.56)"/><path class="cls-3" d="M29.13,102.11a5.83,5.83,0,0,1-1.83-2.64,11.38,11.38,0,0,1-.64-4v0a11.5,11.5,0,0,1,.64-4.06,5.8,5.8,0,0,1,1.83-2.63,4.89,4.89,0,0,1,5.74,0,5.84,5.84,0,0,1,1.84,2.64,11.48,11.48,0,0,1,.64,4.05v0a11.44,11.44,0,0,1-.64,4,5.84,5.84,0,0,1-1.84,2.64,4.55,4.55,0,0,1-2.87.93A4.48,4.48,0,0,1,29.13,102.11Zm5-1.07a4.88,4.88,0,0,0,1.35-2.22A10.7,10.7,0,0,0,36,95.43v0a10.68,10.68,0,0,0-.48-3.4,4.84,4.84,0,0,0-1.35-2.21A3.13,3.13,0,0,0,32,89a3.07,3.07,0,0,0-2.12.78A4.9,4.9,0,0,0,28.53,92a11.08,11.08,0,0,0-.47,3.4v0a11,11,0,0,0,.47,3.39A4.88,4.88,0,0,0,29.88,101a3.07,3.07,0,0,0,2.12.78A3.13,3.13,0,0,0,34.13,101Z" transform="translate(0 -1.56)"/><path class="cls-3" d="M7.92,203.53h0l-4,2.66v-1.42l4-2.73H9.26v14.79H7.92Z" transform="translate(0 -1.56)"/><path class="cls-3" d="M15.27,216.52A4.52,4.52,0,0,1,13.4,215a3.72,3.72,0,0,1-.67-2.2v0a3.55,3.55,0,0,1,.42-1.71,3.9,3.9,0,0,1,1.16-1.33A4.56,4.56,0,0,1,16,209v0a3.92,3.92,0,0,1-2-1.23,3,3,0,0,1-.76-2.07v0a3.35,3.35,0,0,1,.61-2,4.24,4.24,0,0,1,1.68-1.37,5.8,5.8,0,0,1,2.45-.5,5.76,5.76,0,0,1,2.45.5,4.1,4.1,0,0,1,1.68,1.37,3.36,3.36,0,0,1,.62,2v0a3.07,3.07,0,0,1-.76,2.07A3.92,3.92,0,0,1,20,209v0a4.42,4.42,0,0,1,1.71.75,3.9,3.9,0,0,1,1.16,1.33,3.55,3.55,0,0,1,.42,1.71v0a3.79,3.79,0,0,1-.67,2.2,4.49,4.49,0,0,1-1.86,1.5,6.46,6.46,0,0,1-2.75.55A6.37,6.37,0,0,1,15.27,216.52ZM20,215.44a3.32,3.32,0,0,0,1.36-1.1,2.68,2.68,0,0,0,.49-1.6v0a2.59,2.59,0,0,0-.49-1.57A3.36,3.36,0,0,0,20,210.07a5.48,5.48,0,0,0-4,0,3.39,3.39,0,0,0-1.37,1.08,2.66,2.66,0,0,0-.49,1.57v0a2.75,2.75,0,0,0,.49,1.6,3.35,3.35,0,0,0,1.37,1.1,5.23,5.23,0,0,0,4,0Zm-.26-7.33a2.86,2.86,0,0,0,1.18-1,2.28,2.28,0,0,0,.43-1.37v0a2.39,2.39,0,0,0-.43-1.42,2.87,2.87,0,0,0-1.18-1,4.43,4.43,0,0,0-3.5,0,2.94,2.94,0,0,0-1.18,1,2.46,2.46,0,0,0-.43,1.42v0a2.29,2.29,0,0,0,.44,1.37,2.8,2.8,0,0,0,1.18,1,4.29,4.29,0,0,0,1.74.33A4.37,4.37,0,0,0,19.75,208.11Z" transform="translate(0 -1.56)"/><path class="cls-3" d="M27.6,216.14a5.93,5.93,0,0,1-1.84-2.65,11.61,11.61,0,0,1-.64-4v0a11.73,11.73,0,0,1,.64-4.06,5.87,5.87,0,0,1,1.84-2.63,4.89,4.89,0,0,1,5.74,0,5.84,5.84,0,0,1,1.84,2.64,11.71,11.71,0,0,1,.64,4v0a11.73,11.73,0,0,1-.64,4.06,5.87,5.87,0,0,1-1.84,2.63,4.89,4.89,0,0,1-5.74,0Zm5-1.08A4.89,4.89,0,0,0,34,212.84a10.68,10.68,0,0,0,.47-3.39v0A10.74,10.74,0,0,0,34,206a4.91,4.91,0,0,0-1.36-2.21,3.28,3.28,0,0,0-4.25,0A4.88,4.88,0,0,0,27,206a10.78,10.78,0,0,0-.47,3.4v0a10.68,10.68,0,0,0,.47,3.39,4.87,4.87,0,0,0,1.34,2.22,3.28,3.28,0,0,0,4.25,0Z" transform="translate(0 -1.56)"/><path class="cls-3" d="M7.81,317.56h0l-4,2.65V318.8l4-2.74H9.15v14.79H7.81Z" transform="translate(0 -1.56)"/><path class="cls-3" d="M16.07,330.68a4.83,4.83,0,0,1-1.77-1.28,6.11,6.11,0,0,1-1.23-2.23,10.61,10.61,0,0,1-.45-3.3v0a12.33,12.33,0,0,1,.67-4.32,5.92,5.92,0,0,1,1.93-2.75,4.86,4.86,0,0,1,3-1,5.32,5.32,0,0,1,2.23.45,4.37,4.37,0,0,1,2.51,3.1l0,.13H21.59l0-.11a3.24,3.24,0,0,0-.67-1.22,3.09,3.09,0,0,0-1.14-.82,3.94,3.94,0,0,0-1.53-.29,3.37,3.37,0,0,0-2.39.88,5.31,5.31,0,0,0-1.38,2.35,11.7,11.7,0,0,0-.48,3.23c0,.08,0,.17,0,.25V324l.4,2a4,4,0,0,0,.49,1.95,3.75,3.75,0,0,0,1.35,1.39,3.58,3.58,0,0,0,1.93.52,3.67,3.67,0,0,0,1.88-.5,3.7,3.7,0,0,0,1.84-3.24v0a3.69,3.69,0,0,0-.48-1.89A3.63,3.63,0,0,0,20,322.88a3.75,3.75,0,0,0-1.9-.48,3.84,3.84,0,0,0-1.91.48,3.67,3.67,0,0,0-1.37,1.28,3.4,3.4,0,0,0-.5,1.81h-.55v-2H14a4,4,0,0,1,.91-1.41,4.75,4.75,0,0,1,1.5-1,5.18,5.18,0,0,1,4.46.27,4.64,4.64,0,0,1,1.75,1.74,4.86,4.86,0,0,1,.64,2.51v0a4.89,4.89,0,0,1-2.49,4.35,5.21,5.21,0,0,1-2.63.66A5.42,5.42,0,0,1,16.07,330.68Z" transform="translate(0 -1.56)"/><path class="cls-3" d="M27.71,330.16a6,6,0,0,1-1.84-2.64,11.48,11.48,0,0,1-.64-4v0a11.44,11.44,0,0,1,.64-4.05,5.84,5.84,0,0,1,1.84-2.64,4.88,4.88,0,0,1,5.73,0,5.78,5.78,0,0,1,1.85,2.64,11.71,11.71,0,0,1,.64,4.05v0a11.73,11.73,0,0,1-.64,4.06,5.81,5.81,0,0,1-1.85,2.63,4.88,4.88,0,0,1-5.73,0Zm5-1.08a4.91,4.91,0,0,0,1.36-2.21,11.08,11.08,0,0,0,.47-3.4v0a11,11,0,0,0-.47-3.4,4.91,4.91,0,0,0-1.36-2.21,3.28,3.28,0,0,0-4.25,0,4.88,4.88,0,0,0-1.35,2.22,11,11,0,0,0-.46,3.39v0a11.1,11.1,0,0,0,.46,3.4,4.9,4.9,0,0,0,1.35,2.21,3.28,3.28,0,0,0,4.25,0Z" transform="translate(0 -1.56)"/><path class="cls-3" d="M7.91,431.58h0l-4,2.65v-1.41l4-2.74H9.25v14.8H7.91Z" transform="translate(0 -1.56)"/><path class="cls-3" d="M20.06,441.52H12.55v-1.26l1.36-2,1.37-2,1.36-2,1.37-2,1.36-2h2v10.21h2.21v1.23H21.41v3.36H20.06Zm0-1.23v-9h0l-1.21,1.79c-.41.59-.81,1.18-1.21,1.78s-.81,1.19-1.21,1.78l-1.21,1.79c-.41.59-.81,1.19-1.21,1.79v0Z" transform="translate(0 -1.56)"/><path class="cls-3" d="M27.61,444.18a5.84,5.84,0,0,1-1.84-2.64,11.71,11.71,0,0,1-.64-4.05v0a11.67,11.67,0,0,1,.64-4,5.84,5.84,0,0,1,1.84-2.64,4.89,4.89,0,0,1,5.74,0,5.84,5.84,0,0,1,1.84,2.64,11.71,11.71,0,0,1,.64,4v0a11.73,11.73,0,0,1-.64,4.06,5.81,5.81,0,0,1-1.84,2.63,4.89,4.89,0,0,1-5.74,0Zm5-1.08A4.91,4.91,0,0,0,34,440.89a10.78,10.78,0,0,0,.47-3.4v0a10.78,10.78,0,0,0-.47-3.4,4.91,4.91,0,0,0-1.36-2.21,3.28,3.28,0,0,0-4.25,0A5,5,0,0,0,27,434.07a11,11,0,0,0-.46,3.39v0a11.1,11.1,0,0,0,.46,3.4,5,5,0,0,0,1.35,2.21,3.28,3.28,0,0,0,4.25,0Z" transform="translate(0 -1.56)"/><path class="cls-3" d="M8.22,545.6h0l-4,2.65v-1.41l4-2.74H9.56v14.8H8.22Z" transform="translate(0 -1.56)"/><path class="cls-3" d="M13.35,557.91l5.23-5.49c.71-.74,1.25-1.36,1.63-1.84a5.38,5.38,0,0,0,.79-1.32,3.39,3.39,0,0,0,.22-1.23v0a2.81,2.81,0,0,0-.4-1.5,2.86,2.86,0,0,0-1.12-1,3.27,3.27,0,0,0-1.61-.38,3.71,3.71,0,0,0-1.76.4,3.2,3.2,0,0,0-1.23,1.1,3,3,0,0,0-.47,1.57v.08H13.27v-.09a4.08,4.08,0,0,1,.67-2.21,4.53,4.53,0,0,1,1.71-1.53,5.19,5.19,0,0,1,2.41-.56,5,5,0,0,1,2.35.55A4.32,4.32,0,0,1,22,545.87a3.82,3.82,0,0,1,.59,2.08v0a4,4,0,0,1-.3,1.53,7.22,7.22,0,0,1-1,1.69,27.65,27.65,0,0,1-2,2.28l-4.42,4.61.45-1v1l-.45-.43H23v1.25H13.35Z" transform="translate(0 -1.56)"/><path class="cls-3" d="M27.3,558.2a5.84,5.84,0,0,1-1.84-2.64,11.48,11.48,0,0,1-.64-4v0a11.48,11.48,0,0,1,.64-4.05,5.84,5.84,0,0,1,1.84-2.64,4.88,4.88,0,0,1,5.73,0,5.77,5.77,0,0,1,1.84,2.64,11.48,11.48,0,0,1,.64,4.05v0a11.5,11.5,0,0,1-.64,4.06A5.68,5.68,0,0,1,33,558.2a4.88,4.88,0,0,1-5.73,0Zm5-1.08a4.94,4.94,0,0,0,1.36-2.21,11.08,11.08,0,0,0,.47-3.4v0a11.08,11.08,0,0,0-.47-3.4,5,5,0,0,0-1.36-2.21,3.32,3.32,0,0,0-4.25,0,4.88,4.88,0,0,0-1.35,2.22,11.08,11.08,0,0,0-.46,3.39v0a11.1,11.1,0,0,0,.46,3.4A4.84,4.84,0,0,0,28,557.12a3.28,3.28,0,0,0,4.25,0Z" transform="translate(0 -1.56)"/><path class="cls-3" d="M862.56,526.51a2.45,2.45,0,0,1-1.22-.32c-1.48-.83-3-1.71-4.4-2.61a2.5,2.5,0,1,1,2.65-4.24c1.38.86,2.79,1.7,4.2,2.49a2.5,2.5,0,0,1-1.23,4.68Zm-16.49-11.28a2.52,2.52,0,0,1-1.58-.57c-1.31-1.07-2.62-2.19-3.88-3.31a2.5,2.5,0,0,1,3.33-3.73c1.21,1.08,2.46,2.14,3.72,3.18a2.5,2.5,0,0,1-1.59,4.43ZM831.76,501.3a2.51,2.51,0,0,1-1.89-.87c-1.1-1.28-2.2-2.6-3.25-3.93a2.5,2.5,0,1,1,3.91-3.11c1,1.28,2.06,2.55,3.12,3.77a2.5,2.5,0,0,1-1.89,4.14Zm-11.92-16.06a2.48,2.48,0,0,1-2.07-1.1c-.79-1.17-1.72-2.58-2.78-4.21a2.5,2.5,0,0,1,4.2-2.72q1.56,2.42,2.73,4.14a2.51,2.51,0,0,1-.68,3.47A2.47,2.47,0,0,1,819.84,485.24Zm-322.51-5a2.52,2.52,0,0,1-2.52-2.5,2.48,2.48,0,0,1,2.48-2.5h0c1.55,0,3.14-.07,4.73-.21a2.5,2.5,0,1,1,.44,5C500.76,480.2,499,480.28,497.33,480.28Zm-14.83-2.17a2.64,2.64,0,0,1-.73-.11c-1.66-.51-3.32-1.12-4.93-1.79a2.5,2.5,0,1,1,1.94-4.61,47.26,47.26,0,0,0,4.45,1.61,2.51,2.51,0,0,1-.73,4.9ZM516.94,477a2.5,2.5,0,0,1-.77-4.88c1.51-.49,3-1,4.57-1.63a2.5,2.5,0,0,1,1.82,4.65c-1.62.63-3.25,1.22-4.86,1.74A2.51,2.51,0,0,1,516.94,477Zm18.17-8.3a2.5,2.5,0,0,1-1.28-4.65c1.4-.83,2.8-1.7,4.14-2.59a2.5,2.5,0,1,1,2.76,4.17c-1.42.94-2.88,1.85-4.35,2.72A2.46,2.46,0,0,1,535.11,468.72Zm-70.11,0a2.5,2.5,0,0,1-1.56-.55c-1.32-1.06-2.64-2.21-3.92-3.41a2.5,2.5,0,0,1,3.43-3.64c1.18,1.11,2.4,2.17,3.62,3.15a2.5,2.5,0,0,1-1.57,4.45Zm344.19-.38a2.47,2.47,0,0,1-2.15-1.22q-1.24-2.07-2.55-4.33a2.5,2.5,0,0,1,4.32-2.52q1.31,2.25,2.52,4.29a2.5,2.5,0,0,1-.87,3.43A2.46,2.46,0,0,1,809.19,468.31Zm-258-11.42a2.5,2.5,0,0,1-1.71-4.33c1.11-1,2.25-2.19,3.38-3.42a2.5,2.5,0,0,1,3.68,3.38c-1.21,1.32-2.44,2.56-3.64,3.69A2.48,2.48,0,0,1,551.23,456.89Zm-99.8-2.78a2.49,2.49,0,0,1-2-1c-1-1.36-1.95-2.79-2.89-4.24a2.5,2.5,0,0,1,4.21-2.71c.89,1.38,1.81,2.73,2.74,4a2.51,2.51,0,0,1-2,4Zm347.88-3.19a2.49,2.49,0,0,1-2.2-1.31c-.78-1.43-1.57-2.91-2.38-4.42a2.5,2.5,0,0,1,4.41-2.35q1.2,2.25,2.36,4.38a2.5,2.5,0,0,1-1,3.39A2.46,2.46,0,0,1,799.31,450.92ZM563.9,441.45a2.43,2.43,0,0,1-1.38-.42,2.5,2.5,0,0,1-.7-3.46c.88-1.33,1.77-2.72,2.65-4.14a2.5,2.5,0,1,1,4.26,2.61c-.91,1.48-1.83,2.92-2.75,4.3A2.49,2.49,0,0,1,563.9,441.45Zm-122.58-4.56a2.49,2.49,0,0,1-2.25-1.42c-.34-.71-.69-1.43-1-2.16s-.75-1.66-1.1-2.49a2.5,2.5,0,1,1,4.6-1.95c.34.78.68,1.56,1,2.33l1,2.1a2.5,2.5,0,0,1-2.25,3.59Zm348.74-3.71a2.49,2.49,0,0,1-2.24-1.38q-1.11-2.21-2.23-4.5a2.5,2.5,0,0,1,4.49-2.2q1.11,2.26,2.21,4.46a2.49,2.49,0,0,1-2.23,3.62ZM573.88,424.1a2.41,2.41,0,0,1-1.13-.27,2.49,2.49,0,0,1-1.1-3.35c.75-1.49,1.47-3,2.18-4.45a2.5,2.5,0,1,1,4.51,2.15q-1.08,2.26-2.23,4.55A2.5,2.5,0,0,1,573.88,424.1ZM434.1,418.23a2.5,2.5,0,0,1-2.36-1.67c-.52-1.46-1.07-3-1.67-4.72a2.5,2.5,0,1,1,4.71-1.67l1.68,4.73a2.51,2.51,0,0,1-1.53,3.19A2.45,2.45,0,0,1,434.1,418.23Zm347.28-3.07a2.51,2.51,0,0,1-2.27-1.45q-1-2.25-2.09-4.56a2.5,2.5,0,1,1,4.55-2.07q1,2.3,2.08,4.53a2.51,2.51,0,0,1-1.22,3.32A2.62,2.62,0,0,1,781.38,415.16Zm-199.24-9.3a2.43,2.43,0,0,1-.94-.19,2.5,2.5,0,0,1-1.37-3.26c.65-1.6,1.27-3.14,1.84-4.61a2.5,2.5,0,1,1,4.66,1.81c-.58,1.5-1.21,3.07-1.87,4.7A2.52,2.52,0,0,1,582.14,405.86Zm-154.8-6.51a2.51,2.51,0,0,1-2.35-1.64q-.83-2.29-1.71-4.71a2.5,2.5,0,0,1,4.7-1.71q.87,2.41,1.71,4.71a2.5,2.5,0,0,1-1.5,3.2A2.31,2.31,0,0,1,427.34,399.35Zm345.91-2.46a2.5,2.5,0,0,1-2.3-1.52q-1-2.28-2-4.62a2.5,2.5,0,0,1,4.61-1.94c.65,1.55,1.29,3.08,1.94,4.59a2.51,2.51,0,0,1-2.29,3.49ZM589.07,387a2.25,2.25,0,0,1-.77-.12,2.5,2.5,0,0,1-1.61-3.15c.34-1,.51-1.61.52-1.62.36-1.11.71-2.16,1.07-3.18A2.5,2.5,0,0,1,593,380.6c-.35,1-.7,2-1,3,0,0-.18.61-.52,1.66A2.5,2.5,0,0,1,589.07,387Zm-168.64-6.49a2.51,2.51,0,0,1-2.35-1.63c-.57-1.54-1.16-3.11-1.75-4.68a2.5,2.5,0,1,1,4.68-1.76l1.76,4.7a2.5,2.5,0,0,1-1.47,3.21A2.43,2.43,0,0,1,420.43,380.55Zm345.2-2.16a2.49,2.49,0,0,1-2.33-1.58c-.61-1.54-1.22-3.09-1.83-4.67a2.5,2.5,0,0,1,4.66-1.81q.9,2.34,1.82,4.64a2.49,2.49,0,0,1-2.32,3.42ZM596.15,368.34a2.62,2.62,0,0,1-1-.21,2.51,2.51,0,0,1-1.26-3.31c.7-1.56,1.42-3.11,2.15-4.6a2.5,2.5,0,1,1,4.49,2.19c-.7,1.44-1.4,2.94-2.08,4.46A2.49,2.49,0,0,1,596.15,368.34Zm-182.82-6.52a2.5,2.5,0,0,1-2.33-1.6c-.6-1.55-1.2-3.11-1.81-4.66a2.5,2.5,0,0,1,4.66-1.82q.91,2.34,1.81,4.68a2.49,2.49,0,0,1-1.43,3.23A2.61,2.61,0,0,1,413.33,361.82Zm343.8-1.49a2.52,2.52,0,0,1-2.12-1.17c-.86-1.36-1.77-2.73-2.7-4.08a2.5,2.5,0,1,1,4.1-2.85c1,1.4,1.93,2.84,2.83,4.26a2.5,2.5,0,0,1-.78,3.45A2.53,2.53,0,0,1,757.13,360.33Zm-151.57-9.6a2.5,2.5,0,0,1-2.11-3.85c.93-1.44,1.88-2.87,2.84-4.24a2.5,2.5,0,1,1,4.1,2.86c-.92,1.32-1.84,2.68-2.72,4.07A2.48,2.48,0,0,1,605.56,350.73ZM745,344.41a2.48,2.48,0,0,1-1.86-.83c-1.09-1.21-2.22-2.41-3.35-3.57a2.5,2.5,0,1,1,3.57-3.5c1.18,1.21,2.36,2.46,3.49,3.73a2.49,2.49,0,0,1-1.85,4.17Zm-339-1.23a2.49,2.49,0,0,1-2.32-1.57c-.62-1.55-1.25-3.1-1.87-4.63a2.5,2.5,0,0,1,4.63-1.89c.63,1.55,1.25,3.1,1.88,4.66a2.5,2.5,0,0,1-2.32,3.43Zm211.77-8.25a2.46,2.46,0,0,1-1.71-.68,2.49,2.49,0,0,1-.1-3.53c1.18-1.25,2.4-2.48,3.62-3.64a2.5,2.5,0,1,1,3.44,3.63c-1.16,1.1-2.31,2.26-3.43,3.44A2.48,2.48,0,0,1,617.77,334.93Zm112.72-4.22a2.48,2.48,0,0,1-1.56-.55c-1.26-1-2.57-2-3.89-3a2.5,2.5,0,0,1,3-4c1.37,1,2.74,2.05,4.06,3.1a2.5,2.5,0,0,1,.4,3.51A2.52,2.52,0,0,1,730.49,330.71Zm-332.14-6a2.51,2.51,0,0,1-2.3-1.52q-1-2.32-2-4.59a2.5,2.5,0,1,1,4.59-2c.65,1.52,1.32,3.06,2,4.62a2.5,2.5,0,0,1-1.32,3.28A2.6,2.6,0,0,1,398.35,324.67ZM633,322.09a2.5,2.5,0,0,1-1.37-4.59c1.44-.94,2.92-1.84,4.41-2.69a2.5,2.5,0,0,1,2.46,4.35c-1.39.8-2.78,1.64-4.13,2.52A2.46,2.46,0,0,1,633,322.09Zm80.84-2.46a2.56,2.56,0,0,1-1.19-.3c-1.42-.77-2.88-1.5-4.34-2.18a2.5,2.5,0,0,1,2.12-4.53c1.54.72,3.09,1.49,4.6,2.31a2.5,2.5,0,0,1-1.19,4.7ZM651,313.41a2.5,2.5,0,0,1-.79-4.87c1.59-.53,3.22-1,4.84-1.44l.14,0a2.5,2.5,0,0,1,1.21,4.85c-1.6.42-3.13.88-4.61,1.37A2.42,2.42,0,0,1,651,313.41Zm44.35-1.15a2.35,2.35,0,0,1-.64-.09c-1.56-.41-3.15-.78-4.72-1.1a2.5,2.5,0,1,1,1-4.9c1.67.34,3.35.73,5,1.17a2.5,2.5,0,0,1-.64,4.92Zm-24.76-2.59a2.5,2.5,0,0,1-.14-5c1.46-.08,2.94-.12,4.41-.12h.75a2.5,2.5,0,0,1,0,5h-.73c-1.38,0-2.77,0-4.13.11Zm-280.37-3.3a2.49,2.49,0,0,1-2.26-1.44q-1.08-2.31-2.15-4.49a2.5,2.5,0,0,1,4.5-2.19c.71,1.47,1.44,3,2.17,4.55a2.5,2.5,0,0,1-1.19,3.33A2.56,2.56,0,0,1,390.2,306.37ZM381,288.56a2.51,2.51,0,0,1-2.16-1.23c-.9-1.53-1.77-2.91-2.58-4.12a2.5,2.5,0,1,1,4.14-2.8c.87,1.29,1.8,2.77,2.75,4.38a2.5,2.5,0,0,1-.89,3.42A2.43,2.43,0,0,1,381,288.56Zm-12.26-15.75a2.48,2.48,0,0,1-1.67-.64c-1.14-1-2.39-2-3.69-3a2.5,2.5,0,0,1,3-4c1.43,1.06,2.79,2.17,4.05,3.3a2.5,2.5,0,0,1-1.67,4.36Zm-16.84-10.63a2.64,2.64,0,0,1-1-.22c-1.44-.65-2.95-1.28-4.49-1.86a2.5,2.5,0,1,1,1.79-4.67c1.62.62,3.22,1.28,4.75,2a2.51,2.51,0,0,1-1,4.79ZM333,256a2.57,2.57,0,0,1-.55-.06c-1.56-.36-3.18-.69-4.8-1a2.5,2.5,0,1,1,.91-4.91c1.69.31,3.37.65,5,1A2.5,2.5,0,0,1,333,256Zm-19.76-2.93H313c-1.56-.11-3.21-.19-4.9-.25a2.5,2.5,0,0,1,.08-5h.09c1.76.06,3.47.15,5.09.27a2.5,2.5,0,0,1-.18,5Zm-20-1.12-.33,0c-1.67-.22-3.37-.49-5.06-.79a2.5,2.5,0,1,1,.89-4.92c1.61.29,3.23.54,4.82.75a2.5,2.5,0,0,1-.32,5Zm-19.49-4.42a2.51,2.51,0,0,1-.76-.12c-1.6-.52-3.23-1.08-4.83-1.66a2.5,2.5,0,0,1,1.72-4.7c1.54.57,3.1,1.1,4.63,1.59a2.5,2.5,0,0,1-.76,4.89Zm-18.47-7.63a2.54,2.54,0,0,1-1.13-.27c-1.51-.77-3-1.58-4.5-2.4a2.5,2.5,0,0,1,2.44-4.37c1.42.79,2.87,1.57,4.33,2.31a2.5,2.5,0,0,1-1.14,4.73Zm-17.08-10.36a2.52,2.52,0,0,1-1.45-.46c-1.36-1-2.74-2-4.09-3a2.5,2.5,0,0,1,3-4c1.31,1,2.64,2,4,2.91a2.5,2.5,0,0,1-1.45,4.54Zm-15.48-12.64a2.47,2.47,0,0,1-1.7-.67c-1.22-1.15-2.46-2.33-3.66-3.52a2.5,2.5,0,0,1,3.52-3.55c1.17,1.16,2.36,2.3,3.55,3.41a2.5,2.5,0,0,1-1.71,4.33Zm-14.65-13.61a2.46,2.46,0,0,1-1.6-.58c-1.18-1-2.45-2-3.83-3.14a2.5,2.5,0,1,1,3.12-3.9q2.12,1.69,3.92,3.2a2.5,2.5,0,0,1-1.61,4.42Zm-15.85-12.19a2.46,2.46,0,0,1-1.45-.47c-1.3-.92-2.66-1.87-4.06-2.83a2.5,2.5,0,0,1,2.82-4.13c1.43,1,2.81,1.95,4.14,2.89a2.5,2.5,0,0,1-1.45,4.54ZM175.54,180a2.46,2.46,0,0,1-1.32-.38c-1.37-.85-2.79-1.71-4.23-2.57a2.5,2.5,0,0,1,2.56-4.3c1.47.88,2.91,1.76,4.31,2.62a2.5,2.5,0,0,1-1.32,4.63ZM158,170.42a2.44,2.44,0,0,1-1-.19c-1.45-.6-3-1.18-4.55-1.73a2.5,2.5,0,1,1,1.65-4.72c1.65.58,3.27,1.2,4.8,1.82a2.5,2.5,0,0,1-.95,4.82Zm-83.35-2.18a2.5,2.5,0,0,1-.74-4.89c1.62-.51,3.27-1,4.88-1.42a2.5,2.5,0,1,1,1.31,4.82c-1.56.43-3.14.89-4.71,1.37A2.43,2.43,0,0,1,74.67,168.24Zm64.22-3.57a2.94,2.94,0,0,1-.51,0c-1.58-.33-3.2-.63-4.82-.89a2.5,2.5,0,1,1,.81-4.93c1.68.27,3.37.58,5,.92a2.5,2.5,0,0,1-.5,4.95Zm-44.76-1a2.5,2.5,0,0,1-.38-5c1.67-.26,3.37-.49,5-.69a2.5,2.5,0,1,1,.58,5c-1.6.19-3.24.41-4.86.66Zm24.92-1.45H119c-1.62-.07-3.27-.1-4.9-.1a2.5,2.5,0,1,1,0-5h0c1.69,0,3.41,0,5.1.1a2.5,2.5,0,0,1-.1,5Z" transform="translate(0 -1.56)"/><path class="cls-4" d="M856.76,542.13a18.8,18.8,0,1,0-10.08-24.6A18.8,18.8,0,0,0,856.76,542.13Z" transform="translate(0 -1.56)"/><path class="cls-3" d="M855.8,544.44A21.3,21.3,0,1,1,883.67,533a21.33,21.33,0,0,1-27.87,11.43Zm14.51-34.69a16.3,16.3,0,1,0,8.74,21.33,16.32,16.32,0,0,0-8.74-21.33Z" transform="translate(0 -1.56)"/><rect class="cls-5" x="751.67" y="5" width="146" height="510"/><path class="cls-3" d="M72,7.09H92.41V10H75.18V22.16H91.54V25H75.18V38H92.41v2.88H72Z" transform="translate(0 -1.56)"/><path class="cls-3" d="M103.8,28.65,95.32,16.54h3.49l6.7,9.79h.07l6.66-9.79h3.49l-8.53,12,8.46,12.37h-3.47l-6.7-10h-.07l-6.73,10H95.22Z" transform="translate(0 -1.56)"/><path class="cls-3" d="M122.27,39.82a10,10,0,0,1-3.83-4.36,15.3,15.3,0,0,1-1.35-6.67v0a15.5,15.5,0,0,1,1.35-6.68,10,10,0,0,1,9.48-6,10.23,10.23,0,0,1,5.63,1.51,9.91,9.91,0,0,1,3.68,4.26,14.7,14.7,0,0,1,1.3,6.39v1.22H118.64V27H137l-1.57,2.23V28.07a11.69,11.69,0,0,0-1-5.05,7.14,7.14,0,0,0-2.67-3.11,7.87,7.87,0,0,0-7.89,0,7.4,7.4,0,0,0-2.73,3.16,11.46,11.46,0,0,0-1,5v1.17a11.74,11.74,0,0,0,1,5.06,7.41,7.41,0,0,0,2.8,3.19,8.05,8.05,0,0,0,4.25,1.1,8.59,8.59,0,0,0,3.18-.55,6.37,6.37,0,0,0,2.35-1.56,5.81,5.81,0,0,0,1.33-2.34l.07-.21h3l0,.23A8.5,8.5,0,0,1,137,37a8.77,8.77,0,0,1-2.17,2.3,9.82,9.82,0,0,1-3,1.5,12.21,12.21,0,0,1-3.66.53A11,11,0,0,1,122.27,39.82Z" transform="translate(0 -1.56)"/><path class="cls-3" d="M142.68,16.54h2.93V20.8h.07A6.68,6.68,0,0,1,148,17.36a6.06,6.06,0,0,1,3.89-1.27,6.52,6.52,0,0,1,1.12.09,8.11,8.11,0,0,1,.8.19v3a4.08,4.08,0,0,0-.92-.24,8.4,8.4,0,0,0-1.43-.11,5.21,5.21,0,0,0-3,.85,5.43,5.43,0,0,0-2,2.33,8.12,8.12,0,0,0-.69,3.46V40.91h-3.1Z" transform="translate(0 -1.56)"/><path class="cls-3" d="M159.71,39.8a10.36,10.36,0,0,1-3.86-4.4,15.43,15.43,0,0,1-1.35-6.7v0A15,15,0,0,1,155.87,22a10.28,10.28,0,0,1,3.86-4.37,10.82,10.82,0,0,1,5.8-1.55,10.69,10.69,0,0,1,5,1.1,9.52,9.52,0,0,1,3.4,2.88A9,9,0,0,1,175.52,24l0,.22h-3l-.05-.22a6.7,6.7,0,0,0-2.28-3.62,7,7,0,0,0-4.66-1.48,7.19,7.19,0,0,0-4.13,1.2,8,8,0,0,0-2.76,3.42,13,13,0,0,0-1,5.24v0a13,13,0,0,0,1,5.27,7.77,7.77,0,0,0,2.78,3.39,7.37,7.37,0,0,0,4.16,1.18,7.08,7.08,0,0,0,4.54-1.42,6.55,6.55,0,0,0,2.35-3.69l.05-.21h3l0,.19a8.92,8.92,0,0,1-1.7,4,9.36,9.36,0,0,1-3.46,2.81,10.69,10.69,0,0,1-4.78,1A10.83,10.83,0,0,1,159.71,39.8Z" transform="translate(0 -1.56)"/><path class="cls-3" d="M179.77,11.53a2,2,0,0,1-.6-1.46,1.93,1.93,0,0,1,.6-1.44,2,2,0,0,1,1.44-.6,2,2,0,0,1,1.47.6,1.93,1.93,0,0,1,.6,1.44,2,2,0,0,1-2.07,2.06A2,2,0,0,1,179.77,11.53Zm-.1,5h3.09V40.91h-3.09Z" transform="translate(0 -1.56)"/><path class="cls-3" d="M191.89,40.43a8.23,8.23,0,0,1-3.27-2.55,7.54,7.54,0,0,1-1.45-3.79l0-.21h3.07l0,.21a5.23,5.23,0,0,0,2,3.39,7.19,7.19,0,0,0,4.41,1.25,8.87,8.87,0,0,0,3.22-.52A4.51,4.51,0,0,0,202,36.73a3.57,3.57,0,0,0,.74-2.24v0a3.36,3.36,0,0,0-1-2.53,7.74,7.74,0,0,0-3.45-1.52l-3.68-.87a11.07,11.07,0,0,1-5.12-2.4,5.39,5.39,0,0,1-1.67-4.09v0a6.05,6.05,0,0,1,1.11-3.6A7.46,7.46,0,0,1,192,17a10.77,10.77,0,0,1,4.49-.89,10.35,10.35,0,0,1,4.53.93,7.56,7.56,0,0,1,3.07,2.55,7.31,7.31,0,0,1,1.3,3.74l0,.26H202.5l0-.17A5.1,5.1,0,0,0,200.63,20a6.29,6.29,0,0,0-4.11-1.28,7.45,7.45,0,0,0-2.91.53,4.4,4.4,0,0,0-1.92,1.48,3.67,3.67,0,0,0-.68,2.19v0a3.12,3.12,0,0,0,1.06,2.42,7.94,7.94,0,0,0,3.46,1.54l3.66.87a10.91,10.91,0,0,1,5.19,2.4,5.52,5.52,0,0,1,1.54,4.09v0a6,6,0,0,1-1.2,3.68,8,8,0,0,1-3.27,2.49,11.79,11.79,0,0,1-4.74.91A11.58,11.58,0,0,1,191.89,40.43Z" transform="translate(0 -1.56)"/><path class="cls-3" d="M214,39.82a10.09,10.09,0,0,1-3.84-4.36,15.44,15.44,0,0,1-1.34-6.67v0a15.65,15.65,0,0,1,1.34-6.68A10.38,10.38,0,0,1,214,17.66a11.19,11.19,0,0,1,11.33-.06A10,10,0,0,1,229,21.86a14.7,14.7,0,0,1,1.3,6.39v1.22h-19.9V27h18.4l-1.57,2.23V28.07a11.69,11.69,0,0,0-1-5.05,7.14,7.14,0,0,0-2.67-3.11A7.34,7.34,0,0,0,213,23.09a11.46,11.46,0,0,0-1,5v1.17a11.73,11.73,0,0,0,1,5.06,7.35,7.35,0,0,0,2.8,3.19,8,8,0,0,0,4.24,1.1,8.64,8.64,0,0,0,3.19-.55,6.25,6.25,0,0,0,2.34-1.56,5.83,5.83,0,0,0,1.34-2.34l.07-.21H230l-.05.23A8.5,8.5,0,0,1,228.76,37a8.93,8.93,0,0,1-2.17,2.3,10,10,0,0,1-3,1.5,12.26,12.26,0,0,1-3.66.53A11,11,0,0,1,214,39.82Z" transform="translate(0 -1.56)"/><path class="cls-3" d="M247,39.87a6.4,6.4,0,0,1-1.49-4.68v-16H242v-2.6h3.59V10h3.19v6.59h4.8v2.6h-4.8v16a3.76,3.76,0,0,0,.85,2.82,3.66,3.66,0,0,0,2.57.79c.26,0,.52,0,.76,0l.62-.06v2.51c-.23,0-.53.09-.9.13a10.32,10.32,0,0,1-1.11.06A6.11,6.11,0,0,1,247,39.87Z" transform="translate(0 -1.56)"/><path class="cls-3" d="M258.22,11.53a2,2,0,0,1-.6-1.46,1.93,1.93,0,0,1,.6-1.44,2.05,2.05,0,0,1,2.9,0,1.93,1.93,0,0,1,.6,1.44,2,2,0,0,1-.6,1.46,2.05,2.05,0,0,1-2.9,0Zm-.11,5h3.1V40.91h-3.1Z" transform="translate(0 -1.56)"/><path class="cls-3" d="M266.78,16.54h3.1v4.21H270a7.05,7.05,0,0,1,2.55-3.34,7.33,7.33,0,0,1,4.36-1.3,7.65,7.65,0,0,1,3.22.65,6.85,6.85,0,0,1,2.41,1.8,7.42,7.42,0,0,1,1.43,2.71H284a8,8,0,0,1,1.68-2.68,7.57,7.57,0,0,1,2.61-1.82,8.41,8.41,0,0,1,3.37-.66,8.24,8.24,0,0,1,4.16,1A7,7,0,0,1,298.59,20a8.84,8.84,0,0,1,1,4.3V40.91h-3.09V25A6.4,6.4,0,0,0,295,20.48a5.36,5.36,0,0,0-4.16-1.62,6,6,0,0,0-3.19.85,5.81,5.81,0,0,0-2.15,2.37,7.5,7.5,0,0,0-.78,3.48V40.91h-3.09V24.67a5.78,5.78,0,0,0-1.55-4.23,5.36,5.36,0,0,0-4-1.58,5.75,5.75,0,0,0-3.19.9,6.31,6.31,0,0,0-2.18,2.49,8.24,8.24,0,0,0-.79,3.71V40.91h-3.1Z" transform="translate(0 -1.56)"/><path class="cls-3" d="M308.74,39.82a10,10,0,0,1-3.83-4.36,15.3,15.3,0,0,1-1.35-6.67v0a15.5,15.5,0,0,1,1.35-6.68,10,10,0,0,1,9.48-6A10.23,10.23,0,0,1,320,17.6a10,10,0,0,1,3.68,4.26,14.7,14.7,0,0,1,1.3,6.39v1.22H305.1V27h18.4l-1.57,2.23V28.07A11.69,11.69,0,0,0,321,23a7.14,7.14,0,0,0-2.67-3.11,7.34,7.34,0,0,0-10.62,3.18,11.46,11.46,0,0,0-1,5v1.17a11.73,11.73,0,0,0,1,5.06,7.35,7.35,0,0,0,2.8,3.19,8,8,0,0,0,4.24,1.1A8.64,8.64,0,0,0,317.9,38a6.37,6.37,0,0,0,2.35-1.56,5.81,5.81,0,0,0,1.33-2.34l.07-.21h3.05l-.05.23A8.5,8.5,0,0,1,323.47,37a8.93,8.93,0,0,1-2.17,2.3,10,10,0,0,1-3,1.5,12.26,12.26,0,0,1-3.66.53A11,11,0,0,1,308.74,39.82Z" transform="translate(0 -1.56)"/></g></g></svg>