<svg xmlns="http://www.w3.org/2000/svg" viewBox="0 0 1125 257"><defs><style>.cls-1{fill:#d5edf1;}.cls-2{fill:#063f36;}</style></defs><title>资源 27</title><g id="图层_2" data-name="图层 2"><g id="图层_18" data-name="图层 18"><rect class="cls-1" width="1125" height="257"/><path class="cls-2" d="M96.29,179.36l23.11-23.11a2,2,0,0,0-2.89-2.9L91.94,177.91a2.07,2.07,0,0,0,0,2.9l24.57,24.56a2,2,0,0,0,2.89-2.89Z"/><path class="cls-2" d="M177.13,205a18.71,18.71,0,0,1-8-5.83,16.33,16.33,0,0,1-3.32-9.07l0-.62h9.09l.08.54a8.69,8.69,0,0,0,2.31,4.75,12,12,0,0,0,5,3.09,21.18,21.18,0,0,0,7.05,1.08,19.14,19.14,0,0,0,6.93-1.12,10.1,10.1,0,0,0,4.51-3.19,7.78,7.78,0,0,0,1.6-4.86v0a7.07,7.07,0,0,0-2.6-5.75c-1.73-1.42-4.58-2.56-8.57-3.42l-6.52-1.37q-8.79-1.87-13.11-6a14.21,14.21,0,0,1-4.32-10.77v0a15.26,15.26,0,0,1,2.83-9,18.48,18.48,0,0,1,7.67-6.06,27.5,27.5,0,0,1,11.25-2.18,26.92,26.92,0,0,1,11,2.12,18.25,18.25,0,0,1,7.55,5.92,16.5,16.5,0,0,1,3.12,8.86l0,.66h-9.09l-.08-.54a9.13,9.13,0,0,0-2.06-4.81,10.65,10.65,0,0,0-4.38-3,17,17,0,0,0-6.26-1.06,17.29,17.29,0,0,0-6.44,1.1,9.72,9.72,0,0,0-4.23,3.05,7.33,7.33,0,0,0-1.5,4.61v0a6.71,6.71,0,0,0,2.66,5.48c1.77,1.41,4.52,2.51,8.26,3.32l6.52,1.41q9.28,2,13.51,6t4.21,10.94v0A16.29,16.29,0,0,1,209,198.7a17.66,17.66,0,0,1-7.89,6.19,35.16,35.16,0,0,1-24,.14Z"/><path class="cls-2" d="M220.15,154.17a5.15,5.15,0,0,1,0-7.33,5.35,5.35,0,0,1,7.41,0,5.18,5.18,0,0,1,0,7.33,5.28,5.28,0,0,1-7.41,0Zm-.83,8.24h9.05v43.66h-9.05Z"/><path class="cls-2" d="M243.29,204q-3.18-2.93-3.17-9.49v-25h-6.27v-7.14h6.27V151h9.21v11.37h8.18v7.14h-8.18V194c0,2.22.48,3.73,1.45,4.55a6.55,6.55,0,0,0,4.32,1.22c.47,0,.9,0,1.31-.06l1.1-.1v6.93c-.53.08-1.19.16-2,.25s-1.66.12-2.57.12Q246.46,206.94,243.29,204Z"/><path class="cls-2" d="M270.6,204q-3.18-2.93-3.17-9.49v-25h-6.27v-7.14h6.27V151h9.21v11.37h8.18v7.14h-8.18V194c0,2.22.48,3.73,1.45,4.55a6.55,6.55,0,0,0,4.32,1.22c.47,0,.9,0,1.31-.06l1.1-.1v6.93c-.53.08-1.19.16-2,.25s-1.66.12-2.57.12Q273.77,206.94,270.6,204Z"/><path class="cls-2" d="M293.37,154.17a5.13,5.13,0,0,1,0-7.33,5.34,5.34,0,0,1,7.4,0,5.18,5.18,0,0,1,0,7.33,5.26,5.26,0,0,1-7.4,0Zm-.83,8.24h9v43.66h-9Z"/><path class="cls-2" d="M310.75,162.41h9.05V169H320a13.64,13.64,0,0,1,5.1-5.38,15.64,15.64,0,0,1,8.3-2q7.19,0,11.13,4.34t3.94,11.89v28.26h-9V179.55c0-3.29-.76-5.82-2.3-7.6s-3.85-2.65-6.95-2.65a10.47,10.47,0,0,0-5.5,1.41,9.37,9.37,0,0,0-3.61,3.94,13.15,13.15,0,0,0-1.27,6v25.44h-9.05Z"/><path class="cls-2" d="M366.52,219.89a17.42,17.42,0,0,1-6.71-4.27,12.17,12.17,0,0,1-3.19-6l-.09-.37h9l.12.33a7.07,7.07,0,0,0,3.68,3.38,16.23,16.23,0,0,0,6.95,1.31c3.54,0,6.27-.89,8.17-2.68a9.38,9.38,0,0,0,2.87-7.2v-6h-.21a14,14,0,0,1-3.26,4.11,14.7,14.7,0,0,1-4.67,2.7,17.19,17.19,0,0,1-5.81,1,16.87,16.87,0,0,1-9.58-2.72,17.54,17.54,0,0,1-6.35-7.7,28.39,28.39,0,0,1-2.25-11.78v0A28.18,28.18,0,0,1,357.45,172a17.79,17.79,0,0,1,6.41-7.72,17.16,17.16,0,0,1,9.65-2.72,15.11,15.11,0,0,1,5.71,1,14.8,14.8,0,0,1,4.58,2.88,15.67,15.67,0,0,1,3.28,4.34h.21v-7.43h9v42.46a15.6,15.6,0,0,1-2.42,8.71,16,16,0,0,1-6.93,5.81,25.2,25.2,0,0,1-10.65,2.08A27.57,27.57,0,0,1,366.52,219.89ZM381.87,197a12.05,12.05,0,0,0,4-5.14,19.72,19.72,0,0,0,1.43-7.81v0a19.5,19.5,0,0,0-1.43-7.78,11.84,11.84,0,0,0-4-5.11,10.18,10.18,0,0,0-6-1.8,10.53,10.53,0,0,0-6.12,1.78,11.44,11.44,0,0,0-4,5.09,19.69,19.69,0,0,0-1.41,7.78v0a20.08,20.08,0,0,0,1.41,7.91,11.52,11.52,0,0,0,4,5.1,10.4,10.4,0,0,0,6.12,1.81A10,10,0,0,0,381.87,197Z"/><path class="cls-2" d="M422.28,162.41h9v7.47h.21a15.31,15.31,0,0,1,3.3-4.44,14.19,14.19,0,0,1,4.63-2.87,16,16,0,0,1,5.73-1,17,17,0,0,1,9.67,2.76,17.84,17.84,0,0,1,6.35,7.84,29.81,29.81,0,0,1,2.24,12.06v0a29.5,29.5,0,0,1-2.26,12,18.26,18.26,0,0,1-6.33,7.84,17.57,17.57,0,0,1-15.3,1.79,14.46,14.46,0,0,1-4.71-2.85,15.68,15.68,0,0,1-3.36-4.38h-.17V220.6h-9Zm26.64,35a11.41,11.41,0,0,0,3.95-5.17,21,21,0,0,0,1.36-7.93v0a21.24,21.24,0,0,0-1.36-8,11.25,11.25,0,0,0-3.95-5.15,10.42,10.42,0,0,0-6.1-1.78,10.13,10.13,0,0,0-6,1.85,12.29,12.29,0,0,0-4.09,5.18,19.56,19.56,0,0,0-1.47,7.91v0a19.09,19.09,0,0,0,1.5,7.87,12.35,12.35,0,0,0,4.08,5.18,10,10,0,0,0,6,1.85A10.36,10.36,0,0,0,448.92,197.38Z"/><path class="cls-2" d="M478.24,204.18a18.7,18.7,0,0,1-7.24-7.84,26.57,26.57,0,0,1-2.57-12.1v-.08a26.11,26.11,0,0,1,2.59-12,18.66,18.66,0,0,1,7.27-7.8,21,21,0,0,1,10.85-2.74A21.26,21.26,0,0,1,500,164.3a18.49,18.49,0,0,1,7.27,7.78,26.2,26.2,0,0,1,2.59,12.08v.08a26.31,26.31,0,0,1-2.59,12.12,18.92,18.92,0,0,1-7.25,7.82,20.89,20.89,0,0,1-10.87,2.76A21.12,21.12,0,0,1,478.24,204.18Zm17-6.58a11.43,11.43,0,0,0,4-5.16,21.32,21.32,0,0,0,1.41-8.2v-.08a21.22,21.22,0,0,0-1.41-8.16,11.2,11.2,0,0,0-4-5.14,10.62,10.62,0,0,0-6.1-1.77,10.39,10.39,0,0,0-6,1.79,11.66,11.66,0,0,0-4.05,5.14,20.47,20.47,0,0,0-1.45,8.14v.08a21.12,21.12,0,0,0,1.43,8.2,11.53,11.53,0,0,0,4.05,5.16,10.62,10.62,0,0,0,6.14,1.79A10.34,10.34,0,0,0,495.28,197.6Z"/><path class="cls-2" d="M523.82,205.26a14.69,14.69,0,0,1-6.17-4.69,14.27,14.27,0,0,1-2.7-7l0-.38h8.88l.09.42a7.62,7.62,0,0,0,2.94,4.67,10.66,10.66,0,0,0,6.4,1.68,13.71,13.71,0,0,0,4.64-.69,6.38,6.38,0,0,0,2.95-2,4.73,4.73,0,0,0,1-3.07v0a4.46,4.46,0,0,0-1.37-3.4,11.26,11.26,0,0,0-4.9-2.16L528.44,187q-6.23-1.41-9.32-4.46a10.46,10.46,0,0,1-3.09-7.78v0a11.63,11.63,0,0,1,2.12-6.92,13.77,13.77,0,0,1,5.93-4.6,22.36,22.36,0,0,1,8.85-1.64,20.87,20.87,0,0,1,8.88,1.74,14.31,14.31,0,0,1,5.83,4.75,12.76,12.76,0,0,1,2.3,6.71v.5h-8.42l0-.3a6.94,6.94,0,0,0-2.57-4.66,9.11,9.11,0,0,0-6-1.81,11.4,11.4,0,0,0-4.2.71,6.05,6.05,0,0,0-2.74,2,5.07,5.07,0,0,0-1,3.05v0a4.52,4.52,0,0,0,1.49,3.4,10.73,10.73,0,0,0,5,2.2l7.14,1.66q6.69,1.54,9.49,4.34a10.21,10.21,0,0,1,2.8,7.53v.05a11.35,11.35,0,0,1-2.28,7,15,15,0,0,1-6.29,4.73,23.11,23.11,0,0,1-9.15,1.7A23.75,23.75,0,0,1,523.82,205.26Z"/><path class="cls-2" d="M563.62,204q-3.18-2.93-3.18-9.49v-25h-6.26v-7.14h6.26V151h9.22v11.37h8.17v7.14h-8.17V194c0,2.22.48,3.73,1.45,4.55a6.55,6.55,0,0,0,4.32,1.22c.47,0,.9,0,1.3-.06l1.1-.1v6.93c-.52.08-1.19.16-2,.25s-1.66.12-2.57.12Q566.79,206.94,563.62,204Z"/><path class="cls-2" d="M591.92,205a12.9,12.9,0,0,1-5.16-5.62,19.6,19.6,0,0,1-1.79-8.68V162.41h9V189q0,4.93,2.3,7.58c1.54,1.75,3.85,2.63,6.95,2.63a10.44,10.44,0,0,0,5.5-1.41,9.3,9.3,0,0,0,3.61-4,13.09,13.09,0,0,0,1.27-5.92V162.41h9v43.66h-9v-6.56h-.21a13.35,13.35,0,0,1-5,5.38,15.62,15.62,0,0,1-8.32,2.05A16,16,0,0,1,591.92,205Z"/><path class="cls-2" d="M631.5,162.41h8.71v7.22h.17a11,11,0,0,1,3.8-5.89,10.4,10.4,0,0,1,6.62-2.16,14.13,14.13,0,0,1,1.8.1,12.61,12.61,0,0,1,1.31.23v8.34a7.78,7.78,0,0,0-1.62-.35,17.68,17.68,0,0,0-2.41-.14,9.73,9.73,0,0,0-5,1.22,8.06,8.06,0,0,0-3.23,3.46,11.84,11.84,0,0,0-1.13,5.36v26.27h-9Z"/><path class="cls-2" d="M665.26,204.18a18.15,18.15,0,0,1-7.1-7.84,27.23,27.23,0,0,1-2.47-12v0a27,27,0,0,1,2.49-11.93,18.94,18.94,0,0,1,7-8,19.58,19.58,0,0,1,10.62-2.84,19.81,19.81,0,0,1,10.57,2.72,18,18,0,0,1,6.82,7.68,26,26,0,0,1,2.41,11.51v3H660.14v-6.35h31.12l-4.44,5.94v-3.49a18.47,18.47,0,0,0-1.39-7.66,10,10,0,0,0-3.86-4.54,10.75,10.75,0,0,0-5.7-1.5,10.36,10.36,0,0,0-9.72,6.21,17.31,17.31,0,0,0-1.45,7.49v3.49a16.81,16.81,0,0,0,1.43,7.24,10.52,10.52,0,0,0,4.09,4.61,12,12,0,0,0,6.27,1.59,12.84,12.84,0,0,0,4.69-.8,9.92,9.92,0,0,0,3.38-2.16,7.5,7.5,0,0,0,1.89-3l.12-.33h8.55l-.08.45a15.07,15.07,0,0,1-2,4.94,17.1,17.1,0,0,1-3.88,4.26,18.38,18.38,0,0,1-5.63,3,22.71,22.71,0,0,1-7.22,1.08A21.14,21.14,0,0,1,665.26,204.18Z"/></g></g></svg>