<svg xmlns="http://www.w3.org/2000/svg" viewBox="0 0 1125 257"><defs><style>.cls-1{fill:#d5edf1;}.cls-2{fill:#063f36;}</style></defs><title>资源 22</title><g id="图层_2" data-name="图层 2"><g id="图层_18" data-name="图层 18"><rect class="cls-1" width="1125" height="257"/><path class="cls-2" d="M96.29,179.36l23.11-23.11a2,2,0,0,0-2.89-2.9L91.94,177.91a2.07,2.07,0,0,0,0,2.9l24.57,24.56a2,2,0,0,0,2.89-2.89Z"/><path class="cls-2" d="M186.55,141.54h7.55v9.91h-2.61l-16.94,50h-9.79ZM178,177.77H205.1l2.7,7.47H175.34Zm13.66-26.32v-9.91h4.93l21.75,59.89h-9.79Z"/><path class="cls-2" d="M229.42,199.52a18,18,0,0,1-6.35-7.87,29.81,29.81,0,0,1-2.24-12.06v0a29.41,29.41,0,0,1,2.26-12,18.08,18.08,0,0,1,6.35-7.83,16.71,16.71,0,0,1,9.57-2.76,15.46,15.46,0,0,1,8.2,2.2,15.12,15.12,0,0,1,5.58,6.06H253V141.54h9v59.89h-9V194h-.17a14.82,14.82,0,0,1-13.7,8.26A16.88,16.88,0,0,1,229.42,199.52Zm18-6.83a12.21,12.21,0,0,0,4.06-5.21,19.39,19.39,0,0,0,1.48-7.89v0a19.07,19.07,0,0,0-1.5-7.86,12.44,12.44,0,0,0-4.06-5.19,10,10,0,0,0-6-1.85,10.3,10.3,0,0,0-6.1,1.81,11.48,11.48,0,0,0-4,5.14,20.78,20.78,0,0,0-1.39,8v0a21,21,0,0,0,1.39,8,11.3,11.3,0,0,0,4,5.17,10.43,10.43,0,0,0,6.1,1.79A10.09,10.09,0,0,0,247.46,192.69Z"/><path class="cls-2" d="M277.78,199.52a18.06,18.06,0,0,1-6.36-7.87,29.81,29.81,0,0,1-2.24-12.06v0a29.25,29.25,0,0,1,2.27-12,17.94,17.94,0,0,1,6.35-7.83,16.66,16.66,0,0,1,9.56-2.76,15.43,15.43,0,0,1,8.2,2.2,15.12,15.12,0,0,1,5.58,6.06h.17V141.54h9.05v59.89h-9.05V194h-.17a14.82,14.82,0,0,1-13.69,8.26A16.84,16.84,0,0,1,277.78,199.52Zm18-6.83a12.3,12.3,0,0,0,4.07-5.21,19.56,19.56,0,0,0,1.47-7.89v0a19.24,19.24,0,0,0-1.49-7.86,12.53,12.53,0,0,0-4.07-5.19,10,10,0,0,0-6-1.85,10.3,10.3,0,0,0-6.1,1.81,11.39,11.39,0,0,0-4,5.14,20.59,20.59,0,0,0-1.39,8v0a20.84,20.84,0,0,0,1.39,8,11.22,11.22,0,0,0,4,5.17,10.43,10.43,0,0,0,6.1,1.79A10.09,10.09,0,0,0,295.81,192.69Z"/><path class="cls-2" d="M341.86,200.55a12.36,12.36,0,0,1-5.11-4.64,12.94,12.94,0,0,1-1.82-6.89v-.09a10.91,10.91,0,0,1,4.25-9.07q4.26-3.33,12-3.79l16.52-1v6.31l-15.31,1a11.21,11.21,0,0,0-6.21,1.93,5.37,5.37,0,0,0-2.18,4.47v.08a5.37,5.37,0,0,0,2.18,4.52,9.32,9.32,0,0,0,5.79,1.66,12.38,12.38,0,0,0,5.67-1.28,10.09,10.09,0,0,0,4-3.55,9.22,9.22,0,0,0,1.45-5.09v-13a7.27,7.27,0,0,0-2.24-5.66,9.18,9.18,0,0,0-6.43-2.06,10.56,10.56,0,0,0-6.2,1.66,7,7,0,0,0-2.93,4.28l-.08.37h-8.47l0-.46a13.31,13.31,0,0,1,2.53-6.78,14.84,14.84,0,0,1,6.1-4.75,22.44,22.44,0,0,1,9.26-1.75,22.06,22.06,0,0,1,9.25,1.79,14.09,14.09,0,0,1,6.06,5,13.36,13.36,0,0,1,2.16,7.59v30.1H363v-6.89h-.16a14.28,14.28,0,0,1-3.32,4.08,15,15,0,0,1-4.59,2.66,15.81,15.81,0,0,1-5.46.93A16.62,16.62,0,0,1,341.86,200.55Z"/><path class="cls-2" d="M405.67,199.52a18.44,18.44,0,0,1-7.18-7.89A27.14,27.14,0,0,1,396,179.55v0a26.34,26.34,0,0,1,2.55-12,18.58,18.58,0,0,1,7.2-7.83,22.91,22.91,0,0,1,20.57-.62,16.85,16.85,0,0,1,6.41,5.67,16.36,16.36,0,0,1,2.7,7.63l0,.33h-8.59l-.09-.37a10.57,10.57,0,0,0-3.21-5.54,9.75,9.75,0,0,0-6.91-2.34,10.14,10.14,0,0,0-6,1.84,12,12,0,0,0-4,5.25,20.79,20.79,0,0,0-1.43,8.05v0a20.55,20.55,0,0,0,1.45,8.15,11.64,11.64,0,0,0,4,5.17,10.47,10.47,0,0,0,6.08,1.78,9.91,9.91,0,0,0,6.7-2.18,10.45,10.45,0,0,0,3.39-5.7l0-.33h8.63v.29a16.69,16.69,0,0,1-3,7.86,17.47,17.47,0,0,1-6.51,5.56,20.33,20.33,0,0,1-9.32,2.06A21.18,21.18,0,0,1,405.67,199.52Z"/><path class="cls-2" d="M449.75,199.54a18.68,18.68,0,0,1-7.25-7.85,26.57,26.57,0,0,1-2.57-12.1v-.08a26,26,0,0,1,2.59-12,18.69,18.69,0,0,1,7.27-7.81,21.1,21.1,0,0,1,10.85-2.74,21.32,21.32,0,0,1,10.9,2.72,18.59,18.59,0,0,1,7.26,7.78,26.22,26.22,0,0,1,2.59,12.08v.08a26.25,26.25,0,0,1-2.59,12.12,18.86,18.86,0,0,1-7.24,7.83,22.92,22.92,0,0,1-21.81,0Zm17-6.58a11.4,11.4,0,0,0,4-5.17,21.29,21.29,0,0,0,1.41-8.2v-.08a21.13,21.13,0,0,0-1.41-8.15,11.16,11.16,0,0,0-4-5.15,10.59,10.59,0,0,0-6.1-1.76,10.38,10.38,0,0,0-6,1.78,11.61,11.61,0,0,0-4,5.15,20.41,20.41,0,0,0-1.46,8.13v.08a20.89,20.89,0,0,0,1.44,8.2,11.42,11.42,0,0,0,4,5.17,10.64,10.64,0,0,0,6.14,1.78A10.34,10.34,0,0,0,466.78,193Z"/><path class="cls-2" d="M488.28,157.76h9.05v6.6h.17a13.68,13.68,0,0,1,5.1-5.37,15.65,15.65,0,0,1,8.3-2.06q7.19,0,11.13,4.34T526,173.16v28.27h-9V174.9q0-4.93-2.3-7.59t-6.95-2.66a10.44,10.44,0,0,0-5.5,1.41A9.33,9.33,0,0,0,498.6,170a13.1,13.1,0,0,0-1.27,6v25.45h-9.05Z"/><path class="cls-2" d="M540.35,199.37q-3.18-2.93-3.18-9.48v-25h-6.26v-7.14h6.26V146.39h9.22v11.37h8.17v7.14h-8.17v24.49c0,2.21.48,3.73,1.45,4.54a6.55,6.55,0,0,0,4.32,1.23c.47,0,.9,0,1.3-.06l1.1-.11v6.93c-.52.09-1.19.17-2,.25a23.12,23.12,0,0,1-2.57.13Q543.52,202.3,540.35,199.37Z"/><path class="cls-2" d="M566.48,200.55a12.36,12.36,0,0,1-5.11-4.64,13,13,0,0,1-1.83-6.89v-.09a10.92,10.92,0,0,1,4.26-9.07q4.26-3.33,12-3.79l16.52-1v6.31l-15.31,1a11.18,11.18,0,0,0-6.21,1.93,5.37,5.37,0,0,0-2.18,4.47v.08a5.37,5.37,0,0,0,2.18,4.52,9.28,9.28,0,0,0,5.79,1.66,12.38,12.38,0,0,0,5.67-1.28,10.09,10.09,0,0,0,4-3.55,9.22,9.22,0,0,0,1.45-5.09v-13a7.27,7.27,0,0,0-2.24-5.66,9.18,9.18,0,0,0-6.43-2.06,10.61,10.61,0,0,0-6.21,1.66,7,7,0,0,0-2.92,4.28l-.08.37h-8.47l0-.46a13.22,13.22,0,0,1,2.53-6.78,14.84,14.84,0,0,1,6.1-4.75,22.44,22.44,0,0,1,9.26-1.75,22.06,22.06,0,0,1,9.25,1.79,14.15,14.15,0,0,1,6.06,5,13.36,13.36,0,0,1,2.16,7.59v30.1h-9.05v-6.89h-.16a14.28,14.28,0,0,1-3.32,4.08,15,15,0,0,1-4.59,2.66,15.81,15.81,0,0,1-5.46.93A16.62,16.62,0,0,1,566.48,200.55Z"/><path class="cls-2" d="M613.11,199.52a18.46,18.46,0,0,1-7.19-7.89,27.14,27.14,0,0,1-2.51-12.08v0a26.21,26.21,0,0,1,2.56-12,18.58,18.58,0,0,1,7.2-7.83A20.89,20.89,0,0,1,624,156.93a20.68,20.68,0,0,1,9.69,2.14,16.78,16.78,0,0,1,6.41,5.67,16.36,16.36,0,0,1,2.7,7.63l0,.33h-8.59l-.08-.37a10.52,10.52,0,0,0-3.22-5.54,9.72,9.72,0,0,0-6.91-2.34,10.17,10.17,0,0,0-6,1.84,11.86,11.86,0,0,0-4,5.25,20.6,20.6,0,0,0-1.43,8.05v0a20.55,20.55,0,0,0,1.45,8.15,11.64,11.64,0,0,0,4.05,5.17,10.42,10.42,0,0,0,6.08,1.78,9.93,9.93,0,0,0,6.7-2.18,10.37,10.37,0,0,0,3.38-5.7l0-.33h8.64v.29a16.91,16.91,0,0,1-3,7.86,17.51,17.51,0,0,1-6.52,5.56,20.29,20.29,0,0,1-9.31,2.06A21.15,21.15,0,0,1,613.11,199.52Z"/><path class="cls-2" d="M655,199.37q-3.16-2.93-3.17-9.48v-25h-6.27v-7.14h6.27V146.39h9.21v11.37h8.18v7.14h-8.18v24.49c0,2.21.49,3.73,1.46,4.54a6.5,6.5,0,0,0,4.31,1.23c.47,0,.91,0,1.31-.06l1.1-.11v6.93c-.53.09-1.19.17-2,.25a23.31,23.31,0,0,1-2.58.13Q658.21,202.3,655,199.37Z"/></g></g></svg>