<svg xmlns="http://www.w3.org/2000/svg" viewBox="0 0 1126 1109.13"><defs><style>.cls-1{fill:#d5edf1;}.cls-2{fill:#1989f9;}.cls-3{fill:none;stroke:#bccccb;stroke-miterlimit:10;stroke-width:2px;}.cls-4{fill:#bccccb;}.cls-5{fill:#cef9f2;}.cls-6{fill:#063f36;}</style></defs><title>资源 25</title><g id="图层_2" data-name="图层 2"><g id="图层_18" data-name="图层 18"><rect class="cls-1" y="481.13" width="1125" height="176"/><rect class="cls-1" x="1" y="785.13" width="1125" height="174"/><path class="cls-2" d="M457.05,7.09h2.37V11h-.82L447.68,40.91H444.3Zm-6.14,20.7h15.42l1.06,2.74H449.86ZM458.67,11V7.09h1.55l12.7,33.82h-3.35Z" transform="translate(0 -7.09)"/><path class="cls-2" d="M479.25,39.79a10.34,10.34,0,0,1-3.62-4.42,15.85,15.85,0,0,1-1.3-6.65v0a15.6,15.6,0,0,1,1.31-6.65,10.52,10.52,0,0,1,3.62-4.39,9.26,9.26,0,0,1,5.35-1.57A8.81,8.81,0,0,1,493,21.64h.09V7.09h3.07V40.91h-3.07V35.82h-.12a8.94,8.94,0,0,1-3.22,4,8.67,8.67,0,0,1-5.07,1.5A9.41,9.41,0,0,1,479.25,39.79Zm10-2.43a8.19,8.19,0,0,0,2.77-3.47,12.65,12.65,0,0,0,1-5.17v0a12.31,12.31,0,0,0-1-5.16,8.25,8.25,0,0,0-2.76-3.45,6.91,6.91,0,0,0-4.06-1.23,7.06,7.06,0,0,0-4.09,1.2,7.8,7.8,0,0,0-2.69,3.42,13.25,13.25,0,0,0-.95,5.22v0a13.34,13.34,0,0,0,.95,5.23,7.72,7.72,0,0,0,2.69,3.43,7.43,7.43,0,0,0,8.16,0Z" transform="translate(0 -7.09)"/><path class="cls-2" d="M505.4,39.79a10.48,10.48,0,0,1-3.62-4.42,16,16,0,0,1-1.3-6.65v0a15.75,15.75,0,0,1,1.31-6.65,10.61,10.61,0,0,1,3.63-4.39,9.23,9.23,0,0,1,5.35-1.57,8.78,8.78,0,0,1,8.34,5.55h.1V7.09h3.07V40.91h-3.07V35.82h-.12a9,9,0,0,1-3.22,4,8.72,8.72,0,0,1-5.08,1.5A9.46,9.46,0,0,1,505.4,39.79Zm10.05-2.43a8.1,8.1,0,0,0,2.76-3.47,12.49,12.49,0,0,0,1-5.17v0a12.47,12.47,0,0,0-1-5.16,8.19,8.19,0,0,0-2.77-3.45,6.88,6.88,0,0,0-4-1.23,7,7,0,0,0-4.09,1.2,7.89,7.89,0,0,0-2.7,3.42,13.26,13.26,0,0,0-.94,5.22v0a13.35,13.35,0,0,0,.94,5.23,7.81,7.81,0,0,0,2.7,3.43,7.43,7.43,0,0,0,8.16,0Z" transform="translate(0 -7.09)"/><path class="cls-2" d="M540.68,40.45a6.81,6.81,0,0,1-2.85-2.53,6.92,6.92,0,0,1-1-3.76v0a6,6,0,0,1,2.27-4.93,11.29,11.29,0,0,1,6.47-2.07l9.14-.59v2.41l-8.76.59a8.29,8.29,0,0,0-4.42,1.39,3.81,3.81,0,0,0-1.56,3.2v0a4,4,0,0,0,1.55,3.25,6.22,6.22,0,0,0,4,1.23,8.11,8.11,0,0,0,3.88-.91,7.14,7.14,0,0,0,2.75-2.47,6.32,6.32,0,0,0,1-3.51V24.5a5.42,5.42,0,0,0-1.59-4.14,6.18,6.18,0,0,0-4.44-1.5,7.26,7.26,0,0,0-4.32,1.19,5.06,5.06,0,0,0-2.08,3.28l0,.24h-3l0-.28a7.66,7.66,0,0,1,1.43-3.73A8,8,0,0,1,542.39,17a11.42,11.42,0,0,1,4.78-.93,10.77,10.77,0,0,1,4.82,1,7.41,7.41,0,0,1,3.14,2.82,8.16,8.16,0,0,1,1.11,4.31V40.91h-3.09V36.43h-.07a7.52,7.52,0,0,1-1.9,2.58,9.1,9.1,0,0,1-2.86,1.72,9.94,9.94,0,0,1-7.64-.28Z" transform="translate(0 -7.09)"/><path class="cls-2" d="M571.26,16.54h3.1v5.17h.07a9.3,9.3,0,0,1,1.87-2.92,8.52,8.52,0,0,1,2.84-2,9,9,0,0,1,3.58-.71,9.41,9.41,0,0,1,5.42,1.57,10.51,10.51,0,0,1,3.62,4.41,15.78,15.78,0,0,1,1.3,6.65v0a15.7,15.7,0,0,1-1.3,6.64,10.53,10.53,0,0,1-3.61,4.4,9.38,9.38,0,0,1-5.38,1.57,9.07,9.07,0,0,1-3.6-.71,8.75,8.75,0,0,1-2.86-1.95,9.35,9.35,0,0,1-1.88-2.9h-.07V49.11h-3.1Zm15,20.83a7.92,7.92,0,0,0,2.7-3.43,13,13,0,0,0,1-5.19v0a13.14,13.14,0,0,0-1-5.24,7.89,7.89,0,0,0-2.7-3.42,7.42,7.42,0,0,0-8.14,0,8.18,8.18,0,0,0-2.78,3.44,12.48,12.48,0,0,0-1,5.19v0a12.39,12.39,0,0,0,1,5.15,8.18,8.18,0,0,0,2.78,3.46,7.37,7.37,0,0,0,8.14,0Z" transform="translate(0 -7.09)"/><path class="cls-2" d="M597.4,7.09h3.09V21h.07a7.57,7.57,0,0,1,3-3.55,8.93,8.93,0,0,1,5-1.33,8.78,8.78,0,0,1,4.63,1.21,8.14,8.14,0,0,1,3.07,3.41,11.66,11.66,0,0,1,1.09,5.18v15h-3.07V26.4a8,8,0,0,0-1.8-5.58,6.33,6.33,0,0,0-4.93-2,6.82,6.82,0,0,0-3.68,1,6.67,6.67,0,0,0-2.47,2.71,8.62,8.62,0,0,0-.88,4V40.91H597.4Z" transform="translate(0 -7.09)"/><path class="cls-2" d="M626.62,39.8a10.37,10.37,0,0,1-3.9-4.37,15.05,15.05,0,0,1-1.39-6.71v0a15,15,0,0,1,1.39-6.7,10.32,10.32,0,0,1,3.9-4.35,11.73,11.73,0,0,1,11.62,0,10.49,10.49,0,0,1,3.9,4.34,14.83,14.83,0,0,1,1.4,6.71v0a14.9,14.9,0,0,1-1.4,6.72,10.62,10.62,0,0,1-3.89,4.37,10.81,10.81,0,0,1-5.82,1.55A11.13,11.13,0,0,1,626.62,39.8Zm10-2.38A7.67,7.67,0,0,0,639.4,34a13.13,13.13,0,0,0,1-5.3v0a13,13,0,0,0-1-5.3,7.26,7.26,0,0,0-7-4.52A7.39,7.39,0,0,0,628.26,20a7.7,7.7,0,0,0-2.77,3.37,12.66,12.66,0,0,0-1,5.28v0a12.79,12.79,0,0,0,1,5.3,7.73,7.73,0,0,0,2.77,3.4,8.07,8.07,0,0,0,8.37,0Z" transform="translate(0 -7.09)"/><path class="cls-2" d="M650.45,39.87c-1-1-1.49-2.55-1.49-4.68v-16h-3.59v-2.6H649V10h3.19v6.59H657v2.6h-4.8v16A3.76,3.76,0,0,0,653,38a3.66,3.66,0,0,0,2.57.79c.26,0,.52,0,.76,0l.62-.06v2.51c-.23,0-.53.09-.9.13a10.37,10.37,0,0,1-1.12.06A6.08,6.08,0,0,1,650.45,39.87Z" transform="translate(0 -7.09)"/><path class="cls-2" d="M664.52,39.8a10.37,10.37,0,0,1-3.9-4.37,15.05,15.05,0,0,1-1.4-6.71v0a15,15,0,0,1,1.4-6.7,10.32,10.32,0,0,1,3.9-4.35,11.71,11.71,0,0,1,11.61,0A10.44,10.44,0,0,1,680,22a15,15,0,0,1,1.4,6.71v0a15,15,0,0,1-1.4,6.72,10.62,10.62,0,0,1-3.89,4.37,10.81,10.81,0,0,1-5.82,1.55A11.13,11.13,0,0,1,664.52,39.8Zm10-2.38a7.58,7.58,0,0,0,2.76-3.4,13,13,0,0,0,1-5.3v0a12.86,12.86,0,0,0-1-5.3,7.23,7.23,0,0,0-7-4.52A7.39,7.39,0,0,0,666.16,20a7.72,7.72,0,0,0-2.78,3.37,12.82,12.82,0,0,0-1,5.28v0a13,13,0,0,0,1,5.3,7.75,7.75,0,0,0,2.78,3.4,8.07,8.07,0,0,0,8.37,0Z" transform="translate(0 -7.09)"/><line class="cls-3" x1="1" y1="106.13" x2="1126" y2="106.13"/><line class="cls-3" x1="36" y1="230.46" x2="1091" y2="230.46"/><line class="cls-3" x1="36" y1="354.8" x2="1091" y2="354.8"/><line class="cls-3" x1="1" y1="479.13" x2="1126" y2="479.13"/><line class="cls-3" y1="657.13" x2="1125" y2="657.13"/><line class="cls-3" y1="783.13" x2="1125" y2="783.13"/><line class="cls-3" y1="959.13" x2="1125" y2="959.13"/><line class="cls-3" x1="1" y1="1108.13" x2="1126" y2="1108.13"/><path class="cls-4" d="M81.65,157.31h3.19v30.94h16.92v2.88H81.65Z" transform="translate(0 -7.09)"/><path class="cls-4" d="M108.37,190.68a6.88,6.88,0,0,1-2.85-2.53,7,7,0,0,1-1-3.77v0a6,6,0,0,1,2.28-4.94,11.27,11.27,0,0,1,6.47-2.07l9.14-.59v2.42l-8.77.58a8.23,8.23,0,0,0-4.42,1.4,3.82,3.82,0,0,0-1.55,3.2v0a3.94,3.94,0,0,0,1.54,3.25,6.25,6.25,0,0,0,4,1.23,8.25,8.25,0,0,0,3.88-.9,7.19,7.19,0,0,0,2.74-2.47,6.33,6.33,0,0,0,1-3.52v-7.24a5.46,5.46,0,0,0-1.58-4.15,6.22,6.22,0,0,0-4.44-1.5,7.27,7.27,0,0,0-4.33,1.2,5,5,0,0,0-2.07,3.28l0,.23h-3l0-.28a7.56,7.56,0,0,1,1.43-3.73,8.17,8.17,0,0,1,3.23-2.54,11.45,11.45,0,0,1,4.78-.93,10.88,10.88,0,0,1,4.82,1,7.42,7.42,0,0,1,3.14,2.82,8.17,8.17,0,0,1,1.11,4.32v16.68h-3.09v-4.47h-.07a7.58,7.58,0,0,1-1.9,2.58,9.87,9.87,0,0,1-10.5,1.44Z" transform="translate(0 -7.09)"/><path class="cls-4" d="M132.69,190.65a8.06,8.06,0,0,1-3.27-2.55,7.54,7.54,0,0,1-1.45-3.79l0-.21H131l.05.21a5.18,5.18,0,0,0,2,3.39,7.11,7.11,0,0,0,4.4,1.26,9.15,9.15,0,0,0,3.23-.52,4.53,4.53,0,0,0,2.08-1.49,3.55,3.55,0,0,0,.74-2.24v0a3.34,3.34,0,0,0-1-2.53,7.74,7.74,0,0,0-3.45-1.53l-3.68-.86a11.27,11.27,0,0,1-5.12-2.4,5.37,5.37,0,0,1-1.67-4.09v0a6.05,6.05,0,0,1,1.11-3.6,7.46,7.46,0,0,1,3.07-2.44,10.62,10.62,0,0,1,4.49-.9,10.35,10.35,0,0,1,4.53.93,7.72,7.72,0,0,1,3.07,2.55,7.43,7.43,0,0,1,1.3,3.74l0,.26h-3l0-.16a5.1,5.1,0,0,0-1.84-3.41,6.29,6.29,0,0,0-4.11-1.28,7.45,7.45,0,0,0-2.91.53,4.38,4.38,0,0,0-1.92,1.47,3.72,3.72,0,0,0-.68,2.19v0a3.12,3.12,0,0,0,1.05,2.41,8,8,0,0,0,3.47,1.55L140,178a10.82,10.82,0,0,1,5.19,2.4,5.54,5.54,0,0,1,1.54,4.09v0a6,6,0,0,1-1.2,3.68,8,8,0,0,1-3.27,2.5,11.8,11.8,0,0,1-4.75.9A11.56,11.56,0,0,1,132.69,190.65Z" transform="translate(0 -7.09)"/><path class="cls-4" d="M153.64,190.09a6.39,6.39,0,0,1-1.49-4.67V169.36h-3.58v-2.6h3.58v-6.59h3.19v6.59h4.81v2.6h-4.81v16a3.75,3.75,0,0,0,.86,2.81,3.64,3.64,0,0,0,2.56.8,6.12,6.12,0,0,0,.76,0l.63-.06v2.51c-.24.05-.54.09-.91.13a10.18,10.18,0,0,1-1.11.06A6.11,6.11,0,0,1,153.64,190.09Z" transform="translate(0 -7.09)"/><path class="cls-4" d="M174.3,166.76h3.1v4.17h.07a7.87,7.87,0,0,1,2.95-3.29,8.89,8.89,0,0,1,4.94-1.3,8.2,8.2,0,0,1,6.33,2.44,9.48,9.48,0,0,1,2.28,6.75v15.6h-3.1V176a7.37,7.37,0,0,0-1.64-5.18,6.13,6.13,0,0,0-4.76-1.78,7.06,7.06,0,0,0-3.72,1,6.56,6.56,0,0,0-2.48,2.66,8.67,8.67,0,0,0-.87,4v14.43h-3.1Z" transform="translate(0 -7.09)"/><path class="cls-4" d="M202.17,190.68a6.88,6.88,0,0,1-2.85-2.53,7,7,0,0,1-1-3.77v0a6,6,0,0,1,2.28-4.94,11.26,11.26,0,0,1,6.46-2.07l9.14-.59v2.42l-8.76.58a8.2,8.2,0,0,0-4.42,1.4,3.8,3.8,0,0,0-1.56,3.2v0a4,4,0,0,0,1.55,3.25,6.25,6.25,0,0,0,4,1.23,8.28,8.28,0,0,0,3.88-.9,7.26,7.26,0,0,0,2.74-2.47,6.33,6.33,0,0,0,1-3.52v-7.24a5.46,5.46,0,0,0-1.58-4.15,6.22,6.22,0,0,0-4.45-1.5,7.26,7.26,0,0,0-4.32,1.2,5,5,0,0,0-2.07,3.28l-.05.23h-3l0-.28a7.47,7.47,0,0,1,1.43-3.73,8.1,8.1,0,0,1,3.23-2.54,11.42,11.42,0,0,1,4.78-.93,10.88,10.88,0,0,1,4.82,1,7.42,7.42,0,0,1,3.14,2.82,8.17,8.17,0,0,1,1.11,4.32v16.68h-3.09v-4.47h-.07a7.58,7.58,0,0,1-1.9,2.58,9.87,9.87,0,0,1-10.5,1.44Z" transform="translate(0 -7.09)"/><path class="cls-4" d="M222.93,166.76H226V171h.07a7.05,7.05,0,0,1,2.55-3.34,7.26,7.26,0,0,1,4.36-1.3,7.73,7.73,0,0,1,3.23.64,6.81,6.81,0,0,1,2.4,1.81,7.3,7.3,0,0,1,1.43,2.7h.09a8.1,8.1,0,0,1,1.68-2.68,7.71,7.71,0,0,1,2.61-1.82,8.59,8.59,0,0,1,3.38-.65,8.19,8.19,0,0,1,4.16,1,7,7,0,0,1,2.75,2.82,8.84,8.84,0,0,1,1,4.3v16.66h-3.09v-16a6.36,6.36,0,0,0-1.49-4.46,5.34,5.34,0,0,0-4.16-1.63,6,6,0,0,0-3.19.86,5.78,5.78,0,0,0-2.15,2.36,7.5,7.5,0,0,0-.78,3.48v15.35h-3.09V174.89a5.81,5.81,0,0,0-1.55-4.23,5.39,5.39,0,0,0-4-1.58,5.75,5.75,0,0,0-3.19.9,6.24,6.24,0,0,0-2.17,2.5,8.06,8.06,0,0,0-.8,3.7v14.95h-3.1Z" transform="translate(0 -7.09)"/><path class="cls-4" d="M264.89,190a10,10,0,0,1-3.83-4.35,15.36,15.36,0,0,1-1.35-6.67v0a15.53,15.53,0,0,1,1.35-6.68,10,10,0,0,1,9.48-6,10.24,10.24,0,0,1,5.63,1.52,9.82,9.82,0,0,1,3.68,4.25,14.74,14.74,0,0,1,1.3,6.4v1.22h-19.9v-2.46h18.4l-1.57,2.22v-1.17a11.72,11.72,0,0,0-1-5,7.19,7.19,0,0,0-2.67-3.11,7.84,7.84,0,0,0-7.89,0,7.43,7.43,0,0,0-2.73,3.15,11.46,11.46,0,0,0-1,5v1.17a11.78,11.78,0,0,0,1,5.07,7.33,7.33,0,0,0,2.8,3.18,8,8,0,0,0,4.24,1.1,8.64,8.64,0,0,0,3.19-.55,6.23,6.23,0,0,0,2.35-1.55,5.91,5.91,0,0,0,1.33-2.35l.07-.21h3.05l-.05.23a8.55,8.55,0,0,1-1.18,2.88,8.73,8.73,0,0,1-2.17,2.29,9.82,9.82,0,0,1-3,1.5,12.21,12.21,0,0,1-3.66.53A10.92,10.92,0,0,1,264.89,190Z" transform="translate(0 -7.09)"/><path class="cls-4" d="M81.65,283.21h20.11v2.88H84.84v12.73H100.4v2.83H84.84V317H81.65Z" transform="translate(0 -7.09)"/><path class="cls-4" d="M106.34,287.65a2,2,0,0,1-.59-1.47,2,2,0,0,1,.59-1.44,2,2,0,0,1,1.45-.59,2.05,2.05,0,1,1-1.45,3.5Zm-.1,5h3.09V317h-3.09Z" transform="translate(0 -7.09)"/><path class="cls-4" d="M114.91,292.65h2.93v4.27h.07a6.8,6.8,0,0,1,2.27-3.45,6.16,6.16,0,0,1,3.9-1.26,6.52,6.52,0,0,1,1.12.09,6.39,6.39,0,0,1,.8.19v3a4.23,4.23,0,0,0-.92-.24,8.4,8.4,0,0,0-1.43-.11,5.28,5.28,0,0,0-3,.84,5.46,5.46,0,0,0-2,2.34,8.11,8.11,0,0,0-.7,3.45V317h-3.09Z" transform="translate(0 -7.09)"/><path class="cls-4" d="M132.74,316.55a8.17,8.17,0,0,1-3.27-2.56,7.48,7.48,0,0,1-1.46-3.78l0-.21h3.07l.05.21a5.18,5.18,0,0,0,2,3.38,7.07,7.07,0,0,0,4.4,1.26,8.84,8.84,0,0,0,3.22-.52,4.56,4.56,0,0,0,2.09-1.49,3.58,3.58,0,0,0,.74-2.23v0a3.33,3.33,0,0,0-1-2.53,7.64,7.64,0,0,0-3.44-1.52l-3.68-.87a11.22,11.22,0,0,1-5.12-2.4,5.38,5.38,0,0,1-1.68-4.09v0a6,6,0,0,1,1.12-3.6,7.4,7.4,0,0,1,3.07-2.45,11.69,11.69,0,0,1,9,0,7.73,7.73,0,0,1,3.07,2.56,7.37,7.37,0,0,1,1.3,3.74l0,.25h-2.95l0-.16a5.1,5.1,0,0,0-1.84-3.41,6.3,6.3,0,0,0-4.12-1.28,7.39,7.39,0,0,0-2.9.53,4.32,4.32,0,0,0-1.92,1.48,3.61,3.61,0,0,0-.68,2.19v0a3.14,3.14,0,0,0,1,2.42,8,8,0,0,0,3.47,1.54l3.66.87a11,11,0,0,1,5.19,2.4,5.55,5.55,0,0,1,1.53,4.09v0a6,6,0,0,1-1.19,3.68,8,8,0,0,1-3.27,2.49,11.84,11.84,0,0,1-4.75.9A11.53,11.53,0,0,1,132.74,316.55Z" transform="translate(0 -7.09)"/><path class="cls-4" d="M153.69,316a6.43,6.43,0,0,1-1.49-4.68V295.25h-3.59v-2.6h3.59v-6.58h3.19v6.58h4.8v2.6h-4.8v16a3.77,3.77,0,0,0,.85,2.82,3.66,3.66,0,0,0,2.57.79c.27,0,.52,0,.76,0l.62-.06v2.51c-.23,0-.53.09-.9.13s-.74.05-1.11.05A6.11,6.11,0,0,1,153.69,316Z" transform="translate(0 -7.09)"/><path class="cls-4" d="M174.35,292.65h3.09v4.18h.07a7.92,7.92,0,0,1,3-3.3,9,9,0,0,1,4.94-1.3,8.23,8.23,0,0,1,6.33,2.44,9.52,9.52,0,0,1,2.27,6.75V317h-3.09v-15.1a7.42,7.42,0,0,0-1.64-5.18,6.18,6.18,0,0,0-4.76-1.78,7.12,7.12,0,0,0-3.73,1,6.67,6.67,0,0,0-2.47,2.66,8.7,8.7,0,0,0-.88,4V317h-3.09Z" transform="translate(0 -7.09)"/><path class="cls-4" d="M202.22,316.57a6.81,6.81,0,0,1-2.85-2.53,7,7,0,0,1-1-3.76v0a6,6,0,0,1,2.27-4.93,11.37,11.37,0,0,1,6.47-2.08l9.14-.58v2.41l-8.76.59a8.21,8.21,0,0,0-4.42,1.39,3.81,3.81,0,0,0-1.56,3.2v0a3.92,3.92,0,0,0,1.55,3.24,6.22,6.22,0,0,0,4,1.23,8.25,8.25,0,0,0,3.88-.9,7.14,7.14,0,0,0,2.75-2.47,6.4,6.4,0,0,0,1-3.52v-7.24a5.43,5.43,0,0,0-1.58-4.15,6.18,6.18,0,0,0-4.44-1.5,7.24,7.24,0,0,0-4.32,1.2,5.06,5.06,0,0,0-2.08,3.28l0,.23h-3l0-.28a7.63,7.63,0,0,1,1.43-3.72,8.13,8.13,0,0,1,3.24-2.55,11.58,11.58,0,0,1,4.78-.92,10.84,10.84,0,0,1,4.81,1,7.47,7.47,0,0,1,3.15,2.83,8.13,8.13,0,0,1,1.11,4.31V317h-3.1v-4.48h-.07a7.37,7.37,0,0,1-1.89,2.58,9.87,9.87,0,0,1-10.5,1.44Z" transform="translate(0 -7.09)"/><path class="cls-4" d="M223,292.65h3.1v4.22h.07a7.05,7.05,0,0,1,2.55-3.34,7.31,7.31,0,0,1,4.36-1.3,7.68,7.68,0,0,1,3.22.65,6.72,6.72,0,0,1,2.4,1.8,7.06,7.06,0,0,1,1.43,2.71h.1a8.29,8.29,0,0,1,1.67-2.69,7.83,7.83,0,0,1,2.62-1.81,8.37,8.37,0,0,1,3.37-.66,8.27,8.27,0,0,1,4.16,1,7.07,7.07,0,0,1,2.76,2.82,9,9,0,0,1,1,4.3V317h-3.09v-16a6.4,6.4,0,0,0-1.49-4.47A5.37,5.37,0,0,0,247,295a5.81,5.81,0,0,0-5.35,3.23,7.56,7.56,0,0,0-.77,3.48V317h-3.09V300.79a5.78,5.78,0,0,0-1.55-4.23,5.36,5.36,0,0,0-4-1.59,5.65,5.65,0,0,0-3.19.91,6.23,6.23,0,0,0-2.18,2.49,8.21,8.21,0,0,0-.79,3.71V317H223Z" transform="translate(0 -7.09)"/><path class="cls-4" d="M264.93,315.94a10.13,10.13,0,0,1-3.83-4.36,15.33,15.33,0,0,1-1.35-6.67v0a15.47,15.47,0,0,1,1.35-6.68,10.38,10.38,0,0,1,3.79-4.43,11.19,11.19,0,0,1,11.33-.06A10,10,0,0,1,279.9,298a14.74,14.74,0,0,1,1.3,6.4v1.22H261.3v-2.46h18.4l-1.57,2.23v-1.18a11.72,11.72,0,0,0-1-5.05,7.16,7.16,0,0,0-2.67-3.1,7.35,7.35,0,0,0-10.62,3.17,11.37,11.37,0,0,0-1,5v1.18a11.59,11.59,0,0,0,1,5.06,7.35,7.35,0,0,0,2.8,3.19,8,8,0,0,0,4.24,1.1,8.85,8.85,0,0,0,3.19-.55,6.25,6.25,0,0,0,2.34-1.56,5.8,5.8,0,0,0,1.34-2.35l.07-.21h3l0,.24a8.5,8.5,0,0,1-1.18,2.87,9.11,9.11,0,0,1-2.17,2.3,10.54,10.54,0,0,1-3,1.5,12.31,12.31,0,0,1-3.66.52A11.07,11.07,0,0,1,264.93,315.94Z" transform="translate(0 -7.09)"/><path class="cls-4" d="M87.49,439.29a14.23,14.23,0,0,1-5.32-6.08A21.12,21.12,0,0,1,80.29,424v0a21.15,21.15,0,0,1,1.88-9.23,14.16,14.16,0,0,1,5.31-6,15,15,0,0,1,8.1-2.15,14.4,14.4,0,0,1,6.3,1.35,12.75,12.75,0,0,1,4.66,3.74A13,13,0,0,1,109,417.2l0,.24h-3.22l-.11-.42a10.88,10.88,0,0,0-2-4,9.48,9.48,0,0,0-3.44-2.6,12.34,12.34,0,0,0-11.06.86,11.54,11.54,0,0,0-4.18,5A18.3,18.3,0,0,0,83.55,424v0A18.27,18.27,0,0,0,85,431.64a11.75,11.75,0,0,0,4.2,5.06,12.06,12.06,0,0,0,11,.88,9.57,9.57,0,0,0,3.46-2.65,11.11,11.11,0,0,0,2.09-4.13l.07-.21h3.22l0,.23a13.08,13.08,0,0,1-2.49,5.58,12.79,12.79,0,0,1-4.65,3.73,14.49,14.49,0,0,1-6.31,1.33A14.83,14.83,0,0,1,87.49,439.29Z" transform="translate(0 -7.09)"/><path class="cls-4" d="M117.35,439.81a10.32,10.32,0,0,1-3.9-4.37,15.05,15.05,0,0,1-1.4-6.71v0a14.93,14.93,0,0,1,1.4-6.69,10.29,10.29,0,0,1,3.9-4.36,11.71,11.71,0,0,1,11.61,0,10.35,10.35,0,0,1,3.9,4.34,14.83,14.83,0,0,1,1.41,6.71v0a14.87,14.87,0,0,1-1.41,6.72,10.48,10.48,0,0,1-3.89,4.37,10.75,10.75,0,0,1-5.81,1.55A11.13,11.13,0,0,1,117.35,439.81Zm10-2.38a7.59,7.59,0,0,0,2.76-3.4,13,13,0,0,0,1-5.3v0a12.89,12.89,0,0,0-1-5.3A7.74,7.74,0,0,0,119,420a7.78,7.78,0,0,0-2.78,3.37,12.82,12.82,0,0,0-1,5.28v0a13,13,0,0,0,1,5.3,7.7,7.7,0,0,0,2.78,3.4,8.07,8.07,0,0,0,8.37,0Z" transform="translate(0 -7.09)"/><path class="cls-4" d="M138.4,416.55h3.09v4.22h.07a7,7,0,0,1,2.55-3.34,7.26,7.26,0,0,1,4.36-1.3,7.73,7.73,0,0,1,3.23.64,6.9,6.9,0,0,1,2.4,1.8,7.42,7.42,0,0,1,1.43,2.71h.09a8.1,8.1,0,0,1,1.68-2.68,7.67,7.67,0,0,1,2.61-1.82,8.42,8.42,0,0,1,3.38-.65,8.29,8.29,0,0,1,4.16,1A7.07,7.07,0,0,1,170.2,420a8.84,8.84,0,0,1,1,4.3v16.66h-3.09V425a6.36,6.36,0,0,0-1.49-4.46,5.34,5.34,0,0,0-4.16-1.63,6,6,0,0,0-3.19.85,5.81,5.81,0,0,0-2.15,2.37,7.49,7.49,0,0,0-.77,3.48v15.35h-3.1V424.68a5.74,5.74,0,0,0-1.55-4.23,5.36,5.36,0,0,0-4-1.58,5.69,5.69,0,0,0-3.18.9,6.12,6.12,0,0,0-2.18,2.5,8,8,0,0,0-.8,3.7v14.95H138.4Z" transform="translate(0 -7.09)"/><path class="cls-4" d="M176.39,416.55h3.09v5.18h.07a9.26,9.26,0,0,1,1.88-2.93,8.32,8.32,0,0,1,2.83-2,8.86,8.86,0,0,1,3.59-.72,9.46,9.46,0,0,1,5.41,1.57,10.37,10.37,0,0,1,3.62,4.41,15.78,15.78,0,0,1,1.3,6.65v0a15.7,15.7,0,0,1-1.3,6.64,10.39,10.39,0,0,1-3.61,4.4,9.35,9.35,0,0,1-5.37,1.57,9.07,9.07,0,0,1-3.6-.71,8.5,8.5,0,0,1-2.86-2,9.09,9.09,0,0,1-1.89-2.9h-.07v13.32h-3.09Zm15,20.83a7.92,7.92,0,0,0,2.69-3.43,13,13,0,0,0,1-5.19v0a13.06,13.06,0,0,0-1-5.23,7.92,7.92,0,0,0-2.69-3.43,7.44,7.44,0,0,0-8.15,0,8.22,8.22,0,0,0-2.77,3.44,12.33,12.33,0,0,0-1,5.19v0a12.23,12.23,0,0,0,1,5.15,8.16,8.16,0,0,0,2.77,3.46,7,7,0,0,0,4.07,1.23A6.88,6.88,0,0,0,191.39,437.38Z" transform="translate(0 -7.09)"/><path class="cls-4" d="M205.31,440.46a6.81,6.81,0,0,1-2.85-2.53,6.92,6.92,0,0,1-1-3.76v0a6,6,0,0,1,2.28-4.94,11.26,11.26,0,0,1,6.46-2.07l9.15-.59V429l-8.77.58a8.2,8.2,0,0,0-4.42,1.4,3.79,3.79,0,0,0-1.56,3.2v0a4,4,0,0,0,1.55,3.25,6.25,6.25,0,0,0,4,1.23,8.25,8.25,0,0,0,3.88-.9,7.22,7.22,0,0,0,2.74-2.48,6.3,6.3,0,0,0,1-3.51v-7.24a5.46,5.46,0,0,0-1.58-4.15,6.22,6.22,0,0,0-4.45-1.5,7.33,7.33,0,0,0-4.32,1.19,5,5,0,0,0-2.07,3.28l-.05.24h-3l0-.28a7.47,7.47,0,0,1,1.43-3.73A7.93,7.93,0,0,1,207,417a11.42,11.42,0,0,1,4.78-.93,10.74,10.74,0,0,1,4.82,1,7.36,7.36,0,0,1,3.14,2.82,8.16,8.16,0,0,1,1.11,4.31v16.69h-3.09v-4.47h-.07a7.45,7.45,0,0,1-1.9,2.57,9.31,9.31,0,0,1-2.86,1.73,9.56,9.56,0,0,1-3.42.62A9.3,9.3,0,0,1,205.31,440.46Z" transform="translate(0 -7.09)"/><path class="cls-4" d="M226.08,416.55h3.09v4.17h.07a7.81,7.81,0,0,1,2.95-3.29,8.92,8.92,0,0,1,4.95-1.3,8.26,8.26,0,0,1,6.33,2.43,9.55,9.55,0,0,1,2.27,6.75v15.61h-3.09V425.83a7.36,7.36,0,0,0-1.65-5.18,6.11,6.11,0,0,0-4.75-1.78,7.09,7.09,0,0,0-3.73,1,6.54,6.54,0,0,0-2.47,2.66,8.51,8.51,0,0,0-.88,4v14.44h-3.09Z" transform="translate(0 -7.09)"/><path class="cls-4" d="M251.69,449.09c-.31,0-.58,0-.79-.08v-2.58l.51.07a7.07,7.07,0,0,0,3.84-.8,6,6,0,0,0,2-3l.58-1.57-9.18-24.54H252l7.69,22.12-.8-.82H260l-.8.82,7.69-22.12h3.28l-9.77,26.32a15.72,15.72,0,0,1-1.83,3.54,6.3,6.3,0,0,1-2.44,2,8.32,8.32,0,0,1-3.51.67C252.31,449.13,252,449.11,251.69,449.09Z" transform="translate(0 -7.09)"/><circle class="cls-2" cx="106.13" cy="719.21" r="28.92"/><rect class="cls-5" x="84.99" y="715.54" width="42.29" height="6.9" rx="1.39"/><rect class="cls-5" x="85.2" y="722.85" width="42.29" height="6.9" rx="1.39" transform="translate(832.65 612.86) rotate(90)"/><path class="cls-6" d="M178.2,707h2.37v3.89h-.82l-10.92,29.93h-3.38Zm-6.14,20.69h15.43l1,2.74H171Zm7.76-16.8V707h1.55l12.7,33.82h-3.35Z" transform="translate(0 -7.09)"/><path class="cls-6" d="M200.4,739.69a10.41,10.41,0,0,1-3.62-4.42,15.8,15.8,0,0,1-1.3-6.64v0a15.7,15.7,0,0,1,1.31-6.64,10.53,10.53,0,0,1,3.62-4.39,9.29,9.29,0,0,1,5.36-1.57,8.81,8.81,0,0,1,8.34,5.55h.09V707h3.07v33.82H214.2v-5.09h-.11a9,9,0,0,1-3.23,4,8.67,8.67,0,0,1-5.07,1.5A9.36,9.36,0,0,1,200.4,739.69Zm10-2.43a8.16,8.16,0,0,0,2.77-3.46,12.72,12.72,0,0,0,1-5.17v0a12.39,12.39,0,0,0-1-5.15,8.31,8.31,0,0,0-2.77-3.46,6.88,6.88,0,0,0-4.05-1.23,7,7,0,0,0-4.09,1.21,7.64,7.64,0,0,0-2.7,3.42,13.2,13.2,0,0,0-1,5.21v0a13.25,13.25,0,0,0,1,5.22,7.7,7.7,0,0,0,2.7,3.44,7,7,0,0,0,4.09,1.21A6.94,6.94,0,0,0,210.44,737.26Z" transform="translate(0 -7.09)"/><path class="cls-6" d="M226.56,739.69a10.43,10.43,0,0,1-3.63-4.42,16,16,0,0,1-1.3-6.64v0A15.55,15.55,0,0,1,223,722a10.45,10.45,0,0,1,3.62-4.39,9.26,9.26,0,0,1,5.35-1.57,8.81,8.81,0,0,1,8.35,5.55h.09V707h3.07v33.82h-3.07v-5.09h-.12a8.91,8.91,0,0,1-3.22,4,8.69,8.69,0,0,1-5.07,1.5A9.34,9.34,0,0,1,226.56,739.69Zm10-2.43a8.07,8.07,0,0,0,2.76-3.46,12.55,12.55,0,0,0,1-5.17v0a12.39,12.39,0,0,0-1-5.15,8.22,8.22,0,0,0-2.76-3.46,6.91,6.91,0,0,0-4.06-1.23,7,7,0,0,0-4.09,1.21,7.69,7.69,0,0,0-2.69,3.42,13,13,0,0,0-.95,5.21v0a13.08,13.08,0,0,0,.95,5.22,7.75,7.75,0,0,0,2.69,3.44,7.07,7.07,0,0,0,4.09,1.21A7,7,0,0,0,236.6,737.26Z" transform="translate(0 -7.09)"/><path class="cls-6" d="M261.83,740.36a6.74,6.74,0,0,1-3.87-6.29V734a6,6,0,0,1,2.28-4.94A11.26,11.26,0,0,1,266.7,727l9.14-.59v2.42l-8.76.58a8.29,8.29,0,0,0-4.42,1.4,3.8,3.8,0,0,0-1.56,3.2v.05a3.94,3.94,0,0,0,1.55,3.24,6.25,6.25,0,0,0,4,1.23,8.28,8.28,0,0,0,3.88-.9,7.26,7.26,0,0,0,2.74-2.47,6.33,6.33,0,0,0,1-3.52v-7.24a5.46,5.46,0,0,0-1.58-4.15,6.22,6.22,0,0,0-4.45-1.5A7.26,7.26,0,0,0,264,720a5,5,0,0,0-2.07,3.28l-.05.23h-3l0-.28a7.47,7.47,0,0,1,1.43-3.73,8.1,8.1,0,0,1,3.23-2.54,11.42,11.42,0,0,1,4.78-.92,10.88,10.88,0,0,1,4.82,1,7.44,7.44,0,0,1,3.14,2.83,8.11,8.11,0,0,1,1.11,4.31v16.69H274.3v-4.48h-.07a7.58,7.58,0,0,1-1.9,2.58,9.29,9.29,0,0,1-2.86,1.72,9.56,9.56,0,0,1-3.42.62A9.43,9.43,0,0,1,261.83,740.36Z" transform="translate(0 -7.09)"/><path class="cls-6" d="M292.42,716.44h3.09v5.18h.07a9.41,9.41,0,0,1,1.87-2.93,8.67,8.67,0,0,1,6.43-2.69,9.4,9.4,0,0,1,5.41,1.57,10.35,10.35,0,0,1,3.62,4.4,15.8,15.8,0,0,1,1.3,6.66v0a15.75,15.75,0,0,1-1.3,6.65,10.5,10.5,0,0,1-3.61,4.39,9.31,9.31,0,0,1-5.38,1.57,9.05,9.05,0,0,1-3.59-.7,8.43,8.43,0,0,1-2.86-2,9.15,9.15,0,0,1-1.89-2.89h-.07V749h-3.09Zm15,20.84a8,8,0,0,0,2.69-3.44,12.92,12.92,0,0,0,1-5.19v0a13.11,13.11,0,0,0-1-5.24,7.83,7.83,0,0,0-2.69-3.42,7.42,7.42,0,0,0-8.15,0,8.29,8.29,0,0,0-2.78,3.45,12.42,12.42,0,0,0-1,5.19v0a12.47,12.47,0,0,0,1,5.16,8.29,8.29,0,0,0,2.78,3.45,7.37,7.37,0,0,0,8.15,0Z" transform="translate(0 -7.09)"/><path class="cls-6" d="M318.55,707h3.09v13.89h.07a7.79,7.79,0,0,1,3-3.55,9,9,0,0,1,5-1.32,8.66,8.66,0,0,1,4.63,1.21,8.08,8.08,0,0,1,3.07,3.41,11.47,11.47,0,0,1,1.09,5.18v15H335.4V726.31a8,8,0,0,0-1.79-5.58,6.36,6.36,0,0,0-4.94-2,6.85,6.85,0,0,0-3.68,1,6.65,6.65,0,0,0-2.47,2.7,8.63,8.63,0,0,0-.88,4v14.37h-3.09Z" transform="translate(0 -7.09)"/><path class="cls-6" d="M347.77,739.7a10.32,10.32,0,0,1-3.9-4.37,15,15,0,0,1-1.39-6.7v0a14.93,14.93,0,0,1,1.39-6.69,10.35,10.35,0,0,1,3.9-4.36,11.8,11.8,0,0,1,11.62,0,10.45,10.45,0,0,1,3.9,4.35,14.79,14.79,0,0,1,1.41,6.7v0a14.86,14.86,0,0,1-1.41,6.71,10.49,10.49,0,0,1-3.89,4.37,10.69,10.69,0,0,1-5.81,1.55A11,11,0,0,1,347.77,739.7Zm10-2.38a7.61,7.61,0,0,0,2.77-3.4,13.11,13.11,0,0,0,1-5.29v0a13.06,13.06,0,0,0-1-5.3,7.26,7.26,0,0,0-7-4.52,7.36,7.36,0,0,0-4.14,1.17,7.68,7.68,0,0,0-2.78,3.38,12.61,12.61,0,0,0-1,5.27v0a12.77,12.77,0,0,0,1,5.29,7.63,7.63,0,0,0,2.78,3.4,8,8,0,0,0,8.36,0Z" transform="translate(0 -7.09)"/><path class="cls-6" d="M368.82,716.44h3.1v4.17H372a7.81,7.81,0,0,1,2.95-3.29,8.89,8.89,0,0,1,4.94-1.3,8.2,8.2,0,0,1,6.33,2.44,9.48,9.48,0,0,1,2.28,6.75v15.61h-3.1v-15.1a7.42,7.42,0,0,0-1.64-5.18,6.13,6.13,0,0,0-4.76-1.78,7.06,7.06,0,0,0-3.72,1,6.56,6.56,0,0,0-2.48,2.66,8.67,8.67,0,0,0-.87,4v14.44h-3.1Z" transform="translate(0 -7.09)"/><path class="cls-6" d="M397.65,739.73a10.13,10.13,0,0,1-3.83-4.36,15.36,15.36,0,0,1-1.35-6.67v0a15.45,15.45,0,0,1,1.35-6.67,10,10,0,0,1,9.48-6,10.23,10.23,0,0,1,5.63,1.51,9.82,9.82,0,0,1,3.68,4.25,14.74,14.74,0,0,1,1.31,6.4v1.22H394v-2.46h18.4l-1.58,2.22V728a11.72,11.72,0,0,0-1-5.05,7.11,7.11,0,0,0-2.67-3.1,7.23,7.23,0,0,0-3.93-1.06,7.11,7.11,0,0,0-6.69,4.23,11.46,11.46,0,0,0-1,5v1.17a11.75,11.75,0,0,0,1,5.07,7.33,7.33,0,0,0,2.8,3.18,8,8,0,0,0,4.25,1.11,8.58,8.58,0,0,0,3.18-.56,6.23,6.23,0,0,0,2.35-1.55,5.91,5.91,0,0,0,1.33-2.35l.07-.21h3.05l-.05.24a8.59,8.59,0,0,1-1.18,2.87,8.73,8.73,0,0,1-2.17,2.29,9.82,9.82,0,0,1-3,1.5,12.2,12.2,0,0,1-3.65.53A11,11,0,0,1,397.65,739.73Z" transform="translate(0 -7.09)"/><path class="cls-6" d="M431.73,740.14a7.39,7.39,0,0,1-3-3.17,11,11,0,0,1-1-4.92V716.44h3.1v15.09a7.34,7.34,0,0,0,1.65,5.18,6.15,6.15,0,0,0,4.75,1.79,7.06,7.06,0,0,0,3.72-1,6.68,6.68,0,0,0,2.49-2.67,8.55,8.55,0,0,0,.89-4V716.44h3.07v24.38h-3.07v-4.18h-.1a7.8,7.8,0,0,1-2.91,3.3,9.05,9.05,0,0,1-5,1.3A9.17,9.17,0,0,1,431.73,740.14Z" transform="translate(0 -7.09)"/><path class="cls-6" d="M452.75,716.44h3.09v4.22h.08a7.05,7.05,0,0,1,2.55-3.34,7.24,7.24,0,0,1,4.36-1.3,7.68,7.68,0,0,1,3.22.64,6.63,6.63,0,0,1,2.4,1.81,7,7,0,0,1,1.43,2.7h.1a8.24,8.24,0,0,1,1.67-2.68,7.85,7.85,0,0,1,2.62-1.82,8.54,8.54,0,0,1,3.37-.65,8.17,8.17,0,0,1,4.16,1,7.07,7.07,0,0,1,2.76,2.82,9,9,0,0,1,1,4.3v16.67h-3.09v-16a6.38,6.38,0,0,0-1.49-4.46,5.34,5.34,0,0,0-4.16-1.63,5.82,5.82,0,0,0-5.35,3.22,7.62,7.62,0,0,0-.77,3.48v15.36h-3.09V724.57a5.81,5.81,0,0,0-1.55-4.23,5.39,5.39,0,0,0-4-1.58,5.72,5.72,0,0,0-3.19.9,6.26,6.26,0,0,0-2.18,2.5,8.19,8.19,0,0,0-.8,3.7v15h-3.09Z" transform="translate(0 -7.09)"/><path class="cls-6" d="M497.38,739.75a9.12,9.12,0,0,1-3.26-4.09h-.07v5.16H491V707h3.1v14.55h.07a8.86,8.86,0,0,1,8.37-5.55,9.26,9.26,0,0,1,5.35,1.57,10.43,10.43,0,0,1,3.61,4.39,15.7,15.7,0,0,1,1.3,6.64v0a16,16,0,0,1-1.29,6.64,10.32,10.32,0,0,1-3.61,4.42,9.38,9.38,0,0,1-5.41,1.57A8.63,8.63,0,0,1,497.38,739.75Zm8.59-2.46a7.75,7.75,0,0,0,2.69-3.44,13.25,13.25,0,0,0,.95-5.22v0a13.2,13.2,0,0,0-.95-5.21A7.69,7.69,0,0,0,506,720a7,7,0,0,0-4.09-1.21,6.89,6.89,0,0,0-4.06,1.23,8.33,8.33,0,0,0-2.78,3.46,12.23,12.23,0,0,0-1,5.15v0a12.55,12.55,0,0,0,1,5.17,8.18,8.18,0,0,0,2.78,3.46,6.92,6.92,0,0,0,4,1.24A7.12,7.12,0,0,0,506,737.29Z" transform="translate(0 -7.09)"/><path class="cls-6" d="M520.86,739.73a10.13,10.13,0,0,1-3.83-4.36,15.36,15.36,0,0,1-1.35-6.67v0A15.45,15.45,0,0,1,517,722a10.73,10.73,0,0,1,15.12-4.49,10,10,0,0,1,3.68,4.25,14.89,14.89,0,0,1,1.3,6.4v1.22h-19.9v-2.46h18.4l-1.57,2.22V728a11.72,11.72,0,0,0-1-5.05,7.11,7.11,0,0,0-2.67-3.1,7.22,7.22,0,0,0-3.92-1.06,7.11,7.11,0,0,0-6.7,4.23,11.46,11.46,0,0,0-1,5v1.17a11.75,11.75,0,0,0,1,5.07,7.33,7.33,0,0,0,2.8,3.18,8,8,0,0,0,4.25,1.11,8.58,8.58,0,0,0,3.18-.56,6.23,6.23,0,0,0,2.35-1.55A5.91,5.91,0,0,0,533.7,734l.07-.21h3.05l-.05.24a8.38,8.38,0,0,1-1.18,2.87,8.73,8.73,0,0,1-2.17,2.29,9.82,9.82,0,0,1-3,1.5,12.2,12.2,0,0,1-3.65.53A11.07,11.07,0,0,1,520.86,739.73Z" transform="translate(0 -7.09)"/><path class="cls-6" d="M541.27,716.44h2.93v4.27h.07a6.67,6.67,0,0,1,2.28-3.45,6.13,6.13,0,0,1,3.89-1.26,6.52,6.52,0,0,1,1.12.09,4.74,4.74,0,0,1,.8.19v3a4,4,0,0,0-.91-.25A8.66,8.66,0,0,0,550,719a5.32,5.32,0,0,0-3,.84,5.5,5.5,0,0,0-2,2.33,8.19,8.19,0,0,0-.69,3.46v15.24h-3.1Z" transform="translate(0 -7.09)"/><circle class="cls-2" cx="112.13" cy="1041.21" r="28.92"/><rect class="cls-5" x="90.99" y="1037.54" width="42.29" height="6.9" rx="1.39"/><rect class="cls-5" x="91.2" y="1044.85" width="42.29" height="6.9" rx="1.39" transform="translate(1160.65 928.86) rotate(90)"/><path class="cls-6" d="M184.2,1029h2.37v3.89h-.82l-10.92,29.93h-3.38Zm-6.14,20.69h15.43l1,2.74H177Zm7.76-16.8V1029h1.55l12.7,33.82h-3.35Z" transform="translate(0 -7.09)"/><path class="cls-6" d="M206.4,1061.69a10.41,10.41,0,0,1-3.62-4.42,15.8,15.8,0,0,1-1.3-6.64v0a15.7,15.7,0,0,1,1.31-6.64,10.53,10.53,0,0,1,3.62-4.39,9.29,9.29,0,0,1,5.36-1.57,8.81,8.81,0,0,1,8.34,5.55h.09V1029h3.07v33.82H220.2v-5.09h-.11a9,9,0,0,1-3.23,4,8.67,8.67,0,0,1-5.07,1.5A9.36,9.36,0,0,1,206.4,1061.69Zm10-2.43a8.16,8.16,0,0,0,2.77-3.46,12.72,12.72,0,0,0,1-5.17v0a12.39,12.39,0,0,0-1-5.15,8.31,8.31,0,0,0-2.77-3.46,6.88,6.88,0,0,0-4.05-1.23,7,7,0,0,0-4.09,1.21,7.64,7.64,0,0,0-2.7,3.42,13.2,13.2,0,0,0-1,5.21v0a13.25,13.25,0,0,0,1,5.22,7.7,7.7,0,0,0,2.7,3.44,7,7,0,0,0,4.09,1.21A6.94,6.94,0,0,0,216.44,1059.26Z" transform="translate(0 -7.09)"/><path class="cls-6" d="M232.56,1061.69a10.43,10.43,0,0,1-3.63-4.42,16,16,0,0,1-1.3-6.64v0A15.55,15.55,0,0,1,229,1044a10.45,10.45,0,0,1,3.62-4.39,9.26,9.26,0,0,1,5.35-1.57,8.81,8.81,0,0,1,8.35,5.55h.09V1029h3.07v33.82h-3.07v-5.09h-.12a8.91,8.91,0,0,1-3.22,4,8.69,8.69,0,0,1-5.07,1.5A9.34,9.34,0,0,1,232.56,1061.69Zm10-2.43a8.07,8.07,0,0,0,2.76-3.46,12.55,12.55,0,0,0,1-5.17v0a12.39,12.39,0,0,0-1-5.15,8.22,8.22,0,0,0-2.76-3.46,6.91,6.91,0,0,0-4.06-1.23,7,7,0,0,0-4.09,1.21,7.69,7.69,0,0,0-2.69,3.42,13,13,0,0,0-.95,5.21v0a13.08,13.08,0,0,0,.95,5.22,7.75,7.75,0,0,0,2.69,3.44,7.07,7.07,0,0,0,4.09,1.21A7,7,0,0,0,242.6,1059.26Z" transform="translate(0 -7.09)"/><path class="cls-6" d="M267.83,1062.36a6.74,6.74,0,0,1-3.87-6.29v0a6,6,0,0,1,2.28-4.94,11.26,11.26,0,0,1,6.46-2.07l9.14-.59v2.42l-8.76.58a8.29,8.29,0,0,0-4.42,1.4,3.8,3.8,0,0,0-1.56,3.2v0a3.94,3.94,0,0,0,1.55,3.24,6.25,6.25,0,0,0,4,1.23,8.28,8.28,0,0,0,3.88-.9,7.26,7.26,0,0,0,2.74-2.47,6.33,6.33,0,0,0,1-3.52v-7.24a5.46,5.46,0,0,0-1.58-4.15,6.22,6.22,0,0,0-4.45-1.5A7.26,7.26,0,0,0,270,1042a5,5,0,0,0-2.07,3.28l-.05.23h-3l0-.28a7.47,7.47,0,0,1,1.43-3.73,8.1,8.1,0,0,1,3.23-2.54,11.42,11.42,0,0,1,4.78-.92,10.88,10.88,0,0,1,4.82,1,7.44,7.44,0,0,1,3.14,2.83,8.11,8.11,0,0,1,1.11,4.31v16.69H280.3v-4.48h-.07a7.58,7.58,0,0,1-1.9,2.58,9.29,9.29,0,0,1-2.86,1.72,9.56,9.56,0,0,1-3.42.62A9.43,9.43,0,0,1,267.83,1062.36Z" transform="translate(0 -7.09)"/><path class="cls-6" d="M288.59,1038.44h3.1v4.17h.07a7.87,7.87,0,0,1,2.95-3.29,8.92,8.92,0,0,1,5-1.3,8.23,8.23,0,0,1,6.33,2.44,9.52,9.52,0,0,1,2.27,6.75v15.61h-3.09v-15.1a7.37,7.37,0,0,0-1.65-5.18,6.13,6.13,0,0,0-4.75-1.78,7.07,7.07,0,0,0-3.73,1,6.54,6.54,0,0,0-2.47,2.66,8.55,8.55,0,0,0-.88,4v14.44h-3.1Z" transform="translate(0 -7.09)"/><path class="cls-6" d="M327.24,1061.73a10.19,10.19,0,0,1-3.83-4.36,15.36,15.36,0,0,1-1.35-6.67v0a15.45,15.45,0,0,1,1.35-6.67,10.73,10.73,0,0,1,15.12-4.49,10,10,0,0,1,3.68,4.25,14.74,14.74,0,0,1,1.3,6.4v1.22h-19.9v-2.46H342l-1.57,2.22V1050a11.87,11.87,0,0,0-1-5,7.06,7.06,0,0,0-2.68-3.1,7.22,7.22,0,0,0-3.92-1.06,7.11,7.11,0,0,0-6.69,4.23,11.31,11.31,0,0,0-1,5v1.17a11.6,11.6,0,0,0,1,5.07,7.2,7.2,0,0,0,2.8,3.18,7.91,7.91,0,0,0,4.24,1.11,8.64,8.64,0,0,0,3.19-.56,6.19,6.19,0,0,0,2.34-1.55,5.93,5.93,0,0,0,1.34-2.35l.07-.21h3l0,.24a8.61,8.61,0,0,1-1.19,2.87,8.85,8.85,0,0,1-2.16,2.29,10,10,0,0,1-3,1.5,12.31,12.31,0,0,1-3.66.53A11.07,11.07,0,0,1,327.24,1061.73Z" transform="translate(0 -7.09)"/><path class="cls-6" d="M347.66,1047.72h15.11v2.88H347.66Z" transform="translate(0 -7.09)"/><path class="cls-6" d="M368.14,1038.44h3.1v4.22h.07a7.05,7.05,0,0,1,2.55-3.34,7.24,7.24,0,0,1,4.36-1.3,7.68,7.68,0,0,1,3.22.64,6.63,6.63,0,0,1,2.4,1.81,7,7,0,0,1,1.43,2.7h.1a8.24,8.24,0,0,1,1.67-2.68,7.85,7.85,0,0,1,2.62-1.82A8.54,8.54,0,0,1,393,1038a8.17,8.17,0,0,1,4.16,1,7.07,7.07,0,0,1,2.76,2.82,9,9,0,0,1,1,4.3v16.67h-3.09v-16a6.38,6.38,0,0,0-1.49-4.46,5.34,5.34,0,0,0-4.16-1.63,5.82,5.82,0,0,0-5.35,3.22,7.62,7.62,0,0,0-.77,3.48v15.36H383v-16.25a5.81,5.81,0,0,0-1.55-4.23,5.39,5.39,0,0,0-4-1.58,5.72,5.72,0,0,0-3.19.9,6.26,6.26,0,0,0-2.18,2.5,8.19,8.19,0,0,0-.79,3.7v15h-3.1Z" transform="translate(0 -7.09)"/><path class="cls-6" d="M409.13,1062.36a6.75,6.75,0,0,1-3.86-6.29v0a6,6,0,0,1,2.27-4.94A11.29,11.29,0,0,1,414,1049l9.14-.59v2.42l-8.77.58a8.25,8.25,0,0,0-4.41,1.4,3.8,3.8,0,0,0-1.56,3.2v0a3.94,3.94,0,0,0,1.54,3.24,6.27,6.27,0,0,0,4,1.23,8.25,8.25,0,0,0,3.88-.9,7.19,7.19,0,0,0,2.74-2.47,6.33,6.33,0,0,0,1-3.52v-7.24a5.42,5.42,0,0,0-1.58-4.15,6.18,6.18,0,0,0-4.44-1.5,7.27,7.27,0,0,0-4.33,1.2,5.06,5.06,0,0,0-2.07,3.28l-.05.23h-3l0-.28a7.56,7.56,0,0,1,1.43-3.73,8.24,8.24,0,0,1,3.23-2.54,11.47,11.47,0,0,1,4.79-.92,10.84,10.84,0,0,1,4.81,1,7.44,7.44,0,0,1,3.14,2.83,8,8,0,0,1,1.12,4.31v16.69h-3.1v-4.48h-.07a7.58,7.58,0,0,1-1.9,2.58,9.17,9.17,0,0,1-2.86,1.72,10.07,10.07,0,0,1-7.64-.28Z" transform="translate(0 -7.09)"/><path class="cls-6" d="M430.24,1033.44a2,2,0,0,1-.6-1.47,2,2,0,0,1,2-2,2,2,0,0,1,2.06,2,2,2,0,0,1-2.06,2.06A2,2,0,0,1,430.24,1033.44Zm-.11,5h3.1v24.38h-3.1Z" transform="translate(0 -7.09)"/><path class="cls-6" d="M439,1029h3.09v33.82H439Z" transform="translate(0 -7.09)"/></g></g></svg>